%TF.GenerationSoftware,KiCad,Pcbnew,9.0.5*%
%TF.CreationDate,2026-01-03T21:21:06+05:30*%
%TF.ProjectId,Dietarium,44696574-6172-4697-956d-2e6b69636164,rev?*%
%TF.SameCoordinates,Original*%
%TF.FileFunction,Soldermask,Bot*%
%TF.FilePolarity,Negative*%
%FSLAX46Y46*%
G04 Gerber Fmt 4.6, Leading zero omitted, Abs format (unit mm)*
G04 Created by KiCad (PCBNEW 9.0.5) date 2026-01-03 21:21:06*
%MOMM*%
%LPD*%
G01*
G04 APERTURE LIST*
G04 Aperture macros list*
%AMRoundRect*
0 Rectangle with rounded corners*
0 $1 Rounding radius*
0 $2 $3 $4 $5 $6 $7 $8 $9 X,Y pos of 4 corners*
0 Add a 4 corners polygon primitive as box body*
4,1,4,$2,$3,$4,$5,$6,$7,$8,$9,$2,$3,0*
0 Add four circle primitives for the rounded corners*
1,1,$1+$1,$2,$3*
1,1,$1+$1,$4,$5*
1,1,$1+$1,$6,$7*
1,1,$1+$1,$8,$9*
0 Add four rect primitives between the rounded corners*
20,1,$1+$1,$2,$3,$4,$5,0*
20,1,$1+$1,$4,$5,$6,$7,0*
20,1,$1+$1,$6,$7,$8,$9,0*
20,1,$1+$1,$8,$9,$2,$3,0*%
G04 Aperture macros list end*
%ADD10RoundRect,0.266667X1.333333X-1.333333X1.333333X1.333333X-1.333333X1.333333X-1.333333X-1.333333X0*%
%ADD11O,3.200000X3.200000*%
%ADD12RoundRect,0.250000X0.600000X0.725000X-0.600000X0.725000X-0.600000X-0.725000X0.600000X-0.725000X0*%
%ADD13O,1.700000X1.950000*%
%ADD14RoundRect,0.250000X0.725000X-0.600000X0.725000X0.600000X-0.725000X0.600000X-0.725000X-0.600000X0*%
%ADD15O,1.950000X1.700000*%
%ADD16C,3.900000*%
%ADD17C,7.000000*%
%ADD18R,1.700000X1.700000*%
%ADD19C,0.650000*%
%ADD20O,1.000000X2.100000*%
%ADD21O,1.000000X1.600000*%
%ADD22C,3.250000*%
%ADD23R,1.800000X1.800000*%
%ADD24C,1.800000*%
%ADD25C,3.000000*%
%ADD26RoundRect,0.250000X-0.600000X-0.725000X0.600000X-0.725000X0.600000X0.725000X-0.600000X0.725000X0*%
%ADD27C,1.700000*%
%ADD28R,1.350000X1.350000*%
%ADD29RoundRect,0.237500X-0.237500X0.250000X-0.237500X-0.250000X0.237500X-0.250000X0.237500X0.250000X0*%
%ADD30RoundRect,0.250000X-0.475000X0.337500X-0.475000X-0.337500X0.475000X-0.337500X0.475000X0.337500X0*%
%ADD31RoundRect,0.150000X0.150000X-0.587500X0.150000X0.587500X-0.150000X0.587500X-0.150000X-0.587500X0*%
%ADD32RoundRect,0.150000X-0.150000X-0.200000X0.150000X-0.200000X0.150000X0.200000X-0.150000X0.200000X0*%
%ADD33RoundRect,0.237500X-0.237500X0.300000X-0.237500X-0.300000X0.237500X-0.300000X0.237500X0.300000X0*%
%ADD34RoundRect,0.237500X0.250000X0.237500X-0.250000X0.237500X-0.250000X-0.237500X0.250000X-0.237500X0*%
%ADD35RoundRect,0.150000X0.150000X0.200000X-0.150000X0.200000X-0.150000X-0.200000X0.150000X-0.200000X0*%
%ADD36RoundRect,0.237500X0.237500X-0.250000X0.237500X0.250000X-0.237500X0.250000X-0.237500X-0.250000X0*%
%ADD37RoundRect,0.160000X-0.160000X0.197500X-0.160000X-0.197500X0.160000X-0.197500X0.160000X0.197500X0*%
%ADD38RoundRect,0.160000X0.160000X-0.197500X0.160000X0.197500X-0.160000X0.197500X-0.160000X-0.197500X0*%
%ADD39RoundRect,0.237500X-0.250000X-0.237500X0.250000X-0.237500X0.250000X0.237500X-0.250000X0.237500X0*%
%ADD40RoundRect,0.250000X0.312500X0.625000X-0.312500X0.625000X-0.312500X-0.625000X0.312500X-0.625000X0*%
G04 APERTURE END LIST*
D10*
%TO.C,J11*%
X125498550Y-54425455D03*
D11*
X125498550Y-59505455D03*
%TD*%
D12*
%TO.C,J5*%
X72597051Y-63545343D03*
D13*
X70097051Y-63545343D03*
X67597051Y-63545343D03*
X65097051Y-63545343D03*
X62597051Y-63545343D03*
X60097051Y-63545343D03*
%TD*%
D14*
%TO.C,J7*%
X126745255Y-104293247D03*
D15*
X126745255Y-101793247D03*
X126745255Y-99293247D03*
%TD*%
D16*
%TO.C,H4*%
X119516498Y-55014173D03*
D17*
X119516498Y-55014173D03*
%TD*%
D18*
%TO.C,JP2*%
X67647243Y-86455973D03*
X67647243Y-83915973D03*
%TD*%
D16*
%TO.C,H1*%
X55014297Y-103024875D03*
D17*
X55014297Y-103024875D03*
%TD*%
D14*
%TO.C,J10*%
X126738330Y-70842464D03*
D15*
X126738330Y-68342464D03*
X126738330Y-65842464D03*
%TD*%
D19*
%TO.C,J1*%
X63074425Y-102864589D03*
X68854425Y-102864589D03*
D20*
X61644425Y-102334589D03*
D21*
X61644425Y-106514589D03*
D20*
X70284425Y-102334589D03*
D21*
X70284425Y-106514589D03*
%TD*%
D22*
%TO.C,J13*%
X100867550Y-100904837D03*
X112297550Y-100904837D03*
D23*
X102137550Y-94554837D03*
D24*
X103407550Y-92014837D03*
X104677550Y-94554837D03*
X105947550Y-92014837D03*
X107217550Y-94554837D03*
X108487550Y-92014837D03*
X109757550Y-94554837D03*
X111027550Y-92014837D03*
D25*
X98837550Y-97854837D03*
X114327550Y-97854837D03*
%TD*%
D26*
%TO.C,J2*%
X105578338Y-83289838D03*
D13*
X108078338Y-83289838D03*
X110578338Y-83289838D03*
X113078338Y-83289838D03*
%TD*%
D16*
%TO.C,H3*%
X119500770Y-102991232D03*
D17*
X119500770Y-102991232D03*
%TD*%
D14*
%TO.C,J9*%
X126746547Y-81981121D03*
D15*
X126746547Y-79481121D03*
X126746547Y-76981121D03*
%TD*%
D22*
%TO.C,J14*%
X78812138Y-100903198D03*
X90242138Y-100903198D03*
D23*
X80082138Y-94553198D03*
D24*
X81352138Y-92013198D03*
X82622138Y-94553198D03*
X83892138Y-92013198D03*
X85162138Y-94553198D03*
X86432138Y-92013198D03*
X87702138Y-94553198D03*
X88972138Y-92013198D03*
D25*
X76782138Y-97853198D03*
X92272138Y-97853198D03*
%TD*%
D18*
%TO.C,J12*%
X54086454Y-63259590D03*
D27*
X54086454Y-65799590D03*
X54086454Y-68339590D03*
X54086454Y-70879590D03*
D18*
X54086454Y-73419590D03*
D27*
X54086454Y-75959590D03*
X54086454Y-78499590D03*
X54086454Y-81039590D03*
X54086454Y-83579590D03*
X54086454Y-86119590D03*
X54086454Y-88659590D03*
X54086454Y-91199590D03*
X54086454Y-93739590D03*
D18*
X54086454Y-96279590D03*
%TD*%
D26*
%TO.C,J4*%
X105550000Y-65800000D03*
D13*
X108050000Y-65800000D03*
X110550000Y-65800000D03*
X113050000Y-65800000D03*
X115550000Y-65800000D03*
X118050000Y-65800000D03*
%TD*%
D12*
%TO.C,J6*%
X118072004Y-75596282D03*
D13*
X115572004Y-75596282D03*
X113072004Y-75596282D03*
X110572004Y-75596282D03*
X108072004Y-75596282D03*
X105572004Y-75596282D03*
%TD*%
D16*
%TO.C,H2*%
X54988635Y-54993799D03*
D17*
X54988635Y-54993799D03*
%TD*%
D18*
%TO.C,J3*%
X99280373Y-64401618D03*
D27*
X99280373Y-66941618D03*
X99280373Y-69481618D03*
X99280373Y-72021618D03*
X99280373Y-74561618D03*
X99280373Y-77101618D03*
%TD*%
D15*
%TO.C,J8*%
X126732392Y-88091320D03*
X126732392Y-90591320D03*
D14*
X126732392Y-93091320D03*
%TD*%
D28*
%TO.C,JP1*%
X116035408Y-60981673D03*
X118035408Y-60981673D03*
%TD*%
D29*
%TO.C,R13*%
X70113181Y-59328120D03*
X70113181Y-61153120D03*
%TD*%
D30*
%TO.C,C8*%
X81848922Y-61307092D03*
X81848922Y-63382092D03*
%TD*%
D31*
%TO.C,Q2*%
X68965031Y-68605233D03*
X67065031Y-68605233D03*
X68015031Y-66730233D03*
%TD*%
D32*
%TO.C,D4*%
X68123282Y-96995370D03*
X66723282Y-96995370D03*
%TD*%
D29*
%TO.C,R15*%
X67619611Y-59329451D03*
X67619611Y-61154451D03*
%TD*%
D33*
%TO.C,C7*%
X79801535Y-61486148D03*
X79801535Y-63211148D03*
%TD*%
D31*
%TO.C,Q3*%
X64916366Y-68653391D03*
X63016366Y-68653391D03*
X63966366Y-66778391D03*
%TD*%
%TO.C,Q4*%
X60670000Y-68677065D03*
X58770000Y-68677065D03*
X59720000Y-66802065D03*
%TD*%
D34*
%TO.C,R12*%
X73100723Y-70822296D03*
X71275723Y-70822296D03*
%TD*%
D29*
%TO.C,R17*%
X65122433Y-59307904D03*
X65122433Y-61132904D03*
%TD*%
D35*
%TO.C,D3*%
X63846447Y-96995370D03*
X65246447Y-96995370D03*
%TD*%
D36*
%TO.C,R5*%
X103250000Y-77462500D03*
X103250000Y-75637500D03*
%TD*%
D37*
%TO.C,R3*%
X75345395Y-80749775D03*
X75345395Y-81944775D03*
%TD*%
D29*
%TO.C,R19*%
X62588558Y-59329451D03*
X62588558Y-61154451D03*
%TD*%
D34*
%TO.C,R16*%
X64922032Y-70845405D03*
X63097032Y-70845405D03*
%TD*%
D38*
%TO.C,R4*%
X74047458Y-81943420D03*
X74047458Y-80748420D03*
%TD*%
D39*
%TO.C,R11*%
X108687500Y-78700000D03*
X110512500Y-78700000D03*
%TD*%
D40*
%TO.C,R6*%
X105596071Y-72897718D03*
X102671071Y-72897718D03*
%TD*%
D34*
%TO.C,R18*%
X60667564Y-70843916D03*
X58842564Y-70843916D03*
%TD*%
%TO.C,R14*%
X68987098Y-70822296D03*
X67162098Y-70822296D03*
%TD*%
D31*
%TO.C,Q1*%
X73080941Y-68562245D03*
X71180941Y-68562245D03*
X72130941Y-66687245D03*
%TD*%
D34*
%TO.C,R10*%
X114912500Y-78700000D03*
X113087500Y-78700000D03*
%TD*%
M02*
