M48
; DRILL file {KiCad 9.0.5} date 2026-01-03T21:21:16+0530
; FORMAT={-:-/ absolute / metric / decimal}
; #@! TF.CreationDate,2026-01-03T21:21:16+05:30
; #@! TF.GenerationSoftware,Kicad,Pcbnew,9.0.5
; #@! TF.FileFunction,Plated,1,2,PTH
FMAT,2
METRIC
; #@! TA.AperFunction,Plated,PTH,ComponentDrill
T1C0.200
; #@! TA.AperFunction,Plated,PTH,ViaDrill
T2C0.350
; #@! TA.AperFunction,Plated,PTH,ComponentDrill
T3C0.600
; #@! TA.AperFunction,Plated,PTH,ComponentDrill
T4C0.800
; #@! TA.AperFunction,Plated,PTH,ComponentDrill
T5C0.890
; #@! TA.AperFunction,Plated,PTH,ComponentDrill
T6C0.950
; #@! TA.AperFunction,Plated,PTH,ComponentDrill
T7C1.000
; #@! TA.AperFunction,Plated,PTH,ComponentDrill
T8C1.600
; #@! TA.AperFunction,Plated,PTH,ComponentDrill
T9C3.500
%
G90
G05
T1
X83.863Y-66.549
X83.863Y-67.949
X84.563Y-65.849
X84.563Y-67.249
X84.563Y-68.649
X85.263Y-66.549
X85.263Y-67.949
X85.963Y-65.849
X85.963Y-67.249
X85.963Y-68.649
X86.663Y-66.549
X86.663Y-67.949
T2
X55.9Y-72.0
X55.9Y-72.8
X56.8Y-94.5
X56.8Y-98.0
X57.0Y-62.0
X57.0Y-65.0
X57.0Y-72.0
X57.0Y-75.0
X57.2Y-79.3
X57.2Y-86.2
X57.25Y-68.75
X57.25Y-83.25
X57.65Y-91.15
X58.45Y-90.7
X59.35Y-86.25
X59.4Y-69.7
X59.4Y-79.5
X59.4Y-82.972
X59.45Y-76.3
X60.0Y-74.0
X60.3Y-98.0
X60.89Y-84.3
X61.0Y-53.0
X61.0Y-57.0
X62.39Y-82.8
X62.5Y-88.85
X62.925Y-99.05
X63.3Y-87.9
X63.5Y-68.55
X63.5Y-99.625
X63.514Y-100.4
X64.0Y-105.0
X64.7Y-94.6
X65.375Y-99.7
X65.7Y-92.6
X65.75Y-71.75
X65.964Y-104.0
X66.0Y-107.0
X66.6Y-99.7
X66.8Y-77.8
X66.9Y-74.0
X67.6Y-69.4
X67.7Y-94.6
X68.0Y-105.0
X68.4Y-99.65
X68.4Y-100.4
X68.6Y-75.1
X68.6Y-77.8
X69.6Y-82.5
X70.0Y-92.0
X70.0Y-96.0
X70.1Y-74.0
X71.55Y-81.95
X71.7Y-69.4
X72.0Y-86.0
X72.5Y-74.0
X73.0Y-89.0
X73.0Y-92.0
X73.0Y-96.0
X73.0Y-99.0
X73.0Y-103.0
X74.45Y-68.126
X74.5Y-69.5
X74.95Y-80.45
X75.182Y-76.282
X75.818Y-76.918
X76.0Y-89.0
X76.0Y-93.0
X76.5Y-69.999
X76.5Y-70.849
X76.55Y-69.149
X76.65Y-67.749
X76.657Y-66.899
X76.7Y-62.1
X79.411Y-71.873
X79.7Y-61.35
X79.75Y-64.0
X80.036Y-71.203
X80.326Y-75.326
X80.55Y-61.307
X80.7Y-80.5
X80.75Y-63.0
X81.0Y-89.0
X81.6Y-80.5
X81.75Y-64.25
X82.0Y-67.0
X82.0Y-99.0
X82.2Y-75.3
X82.2Y-76.2
X82.5Y-80.5
X84.0Y-75.5
X84.0Y-86.0
X84.527Y-103.0
X85.0Y-63.0
X86.5Y-75.5
X87.0Y-99.0
X89.0Y-81.0
X90.0Y-63.0
X90.0Y-67.0
X90.0Y-71.0
X90.0Y-85.0
X90.0Y-89.0
X91.5Y-75.5
X92.0Y-83.0
X92.0Y-93.0
X93.0Y-67.0
X93.8Y-69.9
X93.8Y-70.959
X93.8Y-72.229
X93.8Y-73.5
X93.8Y-74.8
X93.8Y-75.8
X94.0Y-63.3
X94.0Y-64.7
X95.0Y-81.0
X95.0Y-85.0
X95.0Y-89.0
X95.0Y-93.0
X95.0Y-96.0
X95.0Y-102.0
X97.0Y-68.9
X97.0Y-83.0
X98.0Y-105.0
X98.15Y-78.9
X98.772Y-79.525
X99.0Y-85.0
X99.0Y-89.0
X99.0Y-93.0
X101.0Y-73.0
X101.0Y-76.0
X101.0Y-83.0
X102.0Y-66.0
X103.0Y-71.0
X103.0Y-89.0
X104.0Y-77.462
X104.0Y-99.0
X104.044Y-86.501
X105.0Y-86.501
X106.1Y-86.45
X106.583Y-103.0
X107.0Y-71.0
X108.1Y-78.7
X109.0Y-99.0
X113.0Y-53.0
X113.0Y-56.0
X117.0Y-71.0
X117.0Y-79.0
X117.0Y-84.0
X117.0Y-88.0
X117.0Y-94.0
X120.0Y-79.0
X120.0Y-82.0
X120.0Y-86.0
X120.0Y-90.0
X120.0Y-98.0
X121.0Y-71.0
X123.0Y-69.0
X123.0Y-73.0
X123.0Y-78.0
X123.0Y-88.0
X125.0Y-105.0
X125.5Y-52.0
X125.7Y-85.533
X126.75Y-63.1
X126.75Y-73.0
X126.75Y-83.15
X127.5Y-57.0
X130.5Y-53.5
X130.5Y-57.0
X130.5Y-61.0
X132.0Y-64.0
X132.0Y-67.0
X132.0Y-70.0
X132.0Y-73.0
X132.0Y-76.0
X132.0Y-79.0
X132.0Y-82.0
X132.0Y-84.0
X132.0Y-87.0
X132.0Y-90.0
X132.0Y-93.0
X132.0Y-96.0
X132.0Y-99.0
X132.0Y-102.0
X132.0Y-105.0
T4
X116.035Y-60.982
X118.035Y-60.982
T5
X80.082Y-94.553
X81.352Y-92.013
X82.622Y-94.553
X83.892Y-92.013
X85.162Y-94.553
X86.432Y-92.013
X87.702Y-94.553
X88.972Y-92.013
X102.138Y-94.555
X103.408Y-92.015
X104.678Y-94.555
X105.948Y-92.015
X107.218Y-94.555
X108.488Y-92.015
X109.758Y-94.555
X111.028Y-92.015
T6
X60.097Y-63.545
X62.597Y-63.545
X65.097Y-63.545
X67.597Y-63.545
X70.097Y-63.545
X72.597Y-63.545
X105.55Y-65.8
X105.572Y-75.596
X105.578Y-83.29
X108.05Y-65.8
X108.072Y-75.596
X108.078Y-83.29
X110.55Y-65.8
X110.572Y-75.596
X110.578Y-83.29
X113.05Y-65.8
X113.072Y-75.596
X113.078Y-83.29
X115.55Y-65.8
X115.572Y-75.596
X118.05Y-65.8
X118.072Y-75.596
X126.732Y-88.091
X126.732Y-90.591
X126.732Y-93.091
X126.738Y-65.842
X126.738Y-68.342
X126.738Y-70.842
X126.745Y-99.293
X126.745Y-101.793
X126.745Y-104.293
X126.747Y-76.981
X126.747Y-79.481
X126.747Y-81.981
T7
X54.086Y-63.26
X54.086Y-65.8
X54.086Y-68.34
X54.086Y-70.88
X54.086Y-73.42
X54.086Y-75.96
X54.086Y-78.5
X54.086Y-81.04
X54.086Y-83.58
X54.086Y-86.12
X54.086Y-88.66
X54.086Y-91.2
X54.086Y-93.74
X54.086Y-96.28
X67.647Y-83.916
X67.647Y-86.456
X99.28Y-64.402
X99.28Y-66.942
X99.28Y-69.482
X99.28Y-72.022
X99.28Y-74.562
X99.28Y-77.102
T8
X76.782Y-97.853
X92.272Y-97.853
X98.838Y-97.855
X114.328Y-97.855
X125.499Y-54.425
X125.499Y-59.505
T9
X54.989Y-54.994
X55.014Y-103.025
X119.501Y-102.991
X119.516Y-55.014
T3
G00X61.644Y-101.785
M15
G01X61.644Y-102.885
M16
G05
G00X61.644Y-106.215
M15
G01X61.644Y-106.815
M16
G05
G00X70.284Y-101.785
M15
G01X70.284Y-102.885
M16
G05
G00X70.284Y-106.215
M15
G01X70.284Y-106.815
M16
G05
M30
