%TF.GenerationSoftware,KiCad,Pcbnew,9.0.5*%
%TF.CreationDate,2026-01-05T22:54:41+05:30*%
%TF.ProjectId,Dietarium,44696574-6172-4697-956d-2e6b69636164,rev?*%
%TF.SameCoordinates,Original*%
%TF.FileFunction,Legend,Top*%
%TF.FilePolarity,Positive*%
%FSLAX46Y46*%
G04 Gerber Fmt 4.6, Leading zero omitted, Abs format (unit mm)*
G04 Created by KiCad (PCBNEW 9.0.5) date 2026-01-05 22:54:41*
%MOMM*%
%LPD*%
G01*
G04 APERTURE LIST*
%ADD10C,0.120000*%
%ADD11C,0.200000*%
%ADD12C,0.150000*%
%ADD13C,0.100000*%
G04 APERTURE END LIST*
D10*
G36*
X51845460Y-63620063D02*
G01*
X50747682Y-63620063D01*
X50747682Y-63090221D01*
X50836571Y-63090221D01*
X50836571Y-63204507D01*
X50838447Y-63213940D01*
X50839650Y-63223481D01*
X50877745Y-63337767D01*
X50879233Y-63340377D01*
X50879233Y-63341754D01*
X50884571Y-63349743D01*
X50889338Y-63358105D01*
X50890571Y-63358721D01*
X50892240Y-63361219D01*
X50968430Y-63437409D01*
X50976417Y-63442746D01*
X50984023Y-63448649D01*
X51060215Y-63486744D01*
X51066554Y-63488480D01*
X51072495Y-63491286D01*
X51224876Y-63529383D01*
X51232220Y-63529740D01*
X51239428Y-63531174D01*
X51353714Y-63531174D01*
X51360925Y-63529739D01*
X51368266Y-63529382D01*
X51520647Y-63491286D01*
X51526586Y-63488480D01*
X51532928Y-63486744D01*
X51609118Y-63448649D01*
X51616714Y-63442753D01*
X51624711Y-63437410D01*
X51700902Y-63361219D01*
X51702570Y-63358721D01*
X51703804Y-63358105D01*
X51708570Y-63349743D01*
X51713909Y-63341754D01*
X51713909Y-63340377D01*
X51715397Y-63337767D01*
X51753492Y-63223480D01*
X51754694Y-63213941D01*
X51756571Y-63204507D01*
X51756571Y-63128316D01*
X51754694Y-63118882D01*
X51753492Y-63109342D01*
X51715397Y-62995057D01*
X51713909Y-62992446D01*
X51713909Y-62991070D01*
X51708566Y-62983074D01*
X51703803Y-62974719D01*
X51702571Y-62974103D01*
X51700902Y-62971605D01*
X51662806Y-62933509D01*
X51643341Y-62920502D01*
X51620380Y-62915935D01*
X51353714Y-62915935D01*
X51330753Y-62920502D01*
X51298281Y-62952974D01*
X51293714Y-62975935D01*
X51293714Y-63128316D01*
X51298281Y-63151277D01*
X51330753Y-63183749D01*
X51376675Y-63183749D01*
X51409147Y-63151277D01*
X51413714Y-63128316D01*
X51413714Y-63035935D01*
X51595528Y-63035935D01*
X51606033Y-63046440D01*
X51636571Y-63138053D01*
X51636571Y-63194770D01*
X51606034Y-63286381D01*
X51546744Y-63345670D01*
X51485152Y-63376466D01*
X51346330Y-63411174D01*
X51246812Y-63411174D01*
X51107992Y-63376468D01*
X51046394Y-63345669D01*
X50987108Y-63286383D01*
X50956571Y-63194770D01*
X50956571Y-63104386D01*
X50988332Y-63040864D01*
X50994515Y-63018284D01*
X50979993Y-62974719D01*
X50938919Y-62954182D01*
X50895354Y-62968704D01*
X50881000Y-62987198D01*
X50842905Y-63063388D01*
X50842111Y-63066286D01*
X50841138Y-63067260D01*
X50839261Y-63076692D01*
X50836722Y-63085968D01*
X50837157Y-63087273D01*
X50836571Y-63090221D01*
X50747682Y-63090221D01*
X50747682Y-62827046D01*
X51845460Y-62827046D01*
X51845460Y-63620063D01*
G37*
D11*
X83425660Y-89358268D02*
X83025660Y-88786840D01*
X82739946Y-89358268D02*
X82739946Y-88158268D01*
X82739946Y-88158268D02*
X83197089Y-88158268D01*
X83197089Y-88158268D02*
X83311374Y-88215411D01*
X83311374Y-88215411D02*
X83368517Y-88272554D01*
X83368517Y-88272554D02*
X83425660Y-88386840D01*
X83425660Y-88386840D02*
X83425660Y-88558268D01*
X83425660Y-88558268D02*
X83368517Y-88672554D01*
X83368517Y-88672554D02*
X83311374Y-88729697D01*
X83311374Y-88729697D02*
X83197089Y-88786840D01*
X83197089Y-88786840D02*
X82739946Y-88786840D01*
X84339946Y-88729697D02*
X83939946Y-88729697D01*
X83939946Y-89358268D02*
X83939946Y-88158268D01*
X83939946Y-88158268D02*
X84511374Y-88158268D01*
X84968517Y-89358268D02*
X84968517Y-88158268D01*
X85539946Y-89358268D02*
X85539946Y-88158268D01*
X85539946Y-88158268D02*
X85825660Y-88158268D01*
X85825660Y-88158268D02*
X85997089Y-88215411D01*
X85997089Y-88215411D02*
X86111374Y-88329697D01*
X86111374Y-88329697D02*
X86168517Y-88443983D01*
X86168517Y-88443983D02*
X86225660Y-88672554D01*
X86225660Y-88672554D02*
X86225660Y-88843983D01*
X86225660Y-88843983D02*
X86168517Y-89072554D01*
X86168517Y-89072554D02*
X86111374Y-89186840D01*
X86111374Y-89186840D02*
X85997089Y-89301126D01*
X85997089Y-89301126D02*
X85825660Y-89358268D01*
X85825660Y-89358268D02*
X85539946Y-89358268D01*
D10*
X51469646Y-95629973D02*
X51469646Y-95363307D01*
X51888694Y-95249021D02*
X51888694Y-95629973D01*
X51888694Y-95629973D02*
X51088694Y-95629973D01*
X51088694Y-95629973D02*
X51088694Y-95249021D01*
X51812503Y-94449020D02*
X51850599Y-94487116D01*
X51850599Y-94487116D02*
X51888694Y-94601401D01*
X51888694Y-94601401D02*
X51888694Y-94677592D01*
X51888694Y-94677592D02*
X51850599Y-94791878D01*
X51850599Y-94791878D02*
X51774408Y-94868068D01*
X51774408Y-94868068D02*
X51698218Y-94906163D01*
X51698218Y-94906163D02*
X51545837Y-94944259D01*
X51545837Y-94944259D02*
X51431551Y-94944259D01*
X51431551Y-94944259D02*
X51279170Y-94906163D01*
X51279170Y-94906163D02*
X51202979Y-94868068D01*
X51202979Y-94868068D02*
X51126789Y-94791878D01*
X51126789Y-94791878D02*
X51088694Y-94677592D01*
X51088694Y-94677592D02*
X51088694Y-94601401D01*
X51088694Y-94601401D02*
X51126789Y-94487116D01*
X51126789Y-94487116D02*
X51164884Y-94449020D01*
X51888694Y-94106163D02*
X51088694Y-94106163D01*
X51469646Y-94106163D02*
X51469646Y-93649020D01*
X51888694Y-93649020D02*
X51088694Y-93649020D01*
X51088694Y-93115687D02*
X51088694Y-92963306D01*
X51088694Y-92963306D02*
X51126789Y-92887116D01*
X51126789Y-92887116D02*
X51202979Y-92810925D01*
X51202979Y-92810925D02*
X51355360Y-92772830D01*
X51355360Y-92772830D02*
X51622027Y-92772830D01*
X51622027Y-92772830D02*
X51774408Y-92810925D01*
X51774408Y-92810925D02*
X51850599Y-92887116D01*
X51850599Y-92887116D02*
X51888694Y-92963306D01*
X51888694Y-92963306D02*
X51888694Y-93115687D01*
X51888694Y-93115687D02*
X51850599Y-93191878D01*
X51850599Y-93191878D02*
X51774408Y-93268068D01*
X51774408Y-93268068D02*
X51622027Y-93306164D01*
X51622027Y-93306164D02*
X51355360Y-93306164D01*
X51355360Y-93306164D02*
X51202979Y-93268068D01*
X51202979Y-93268068D02*
X51126789Y-93191878D01*
X51126789Y-93191878D02*
X51088694Y-93115687D01*
G36*
X51944251Y-89110513D02*
G01*
X50846473Y-89110513D01*
X50846473Y-88542874D01*
X50935362Y-88542874D01*
X50935362Y-88923826D01*
X50938216Y-88938178D01*
X50937919Y-88941157D01*
X50939095Y-88942594D01*
X50939929Y-88946787D01*
X50954209Y-88961067D01*
X50966999Y-88976699D01*
X50971087Y-88977945D01*
X50972401Y-88979259D01*
X50975394Y-88979259D01*
X50989392Y-88983528D01*
X51370344Y-89021624D01*
X51393645Y-89019365D01*
X51396102Y-89017355D01*
X51399274Y-89017355D01*
X51413554Y-89003074D01*
X51429187Y-88990285D01*
X51429502Y-88987128D01*
X51431747Y-88984884D01*
X51431747Y-88964688D01*
X51433757Y-88944591D01*
X51431747Y-88942134D01*
X51431747Y-88938961D01*
X51418741Y-88919496D01*
X51387531Y-88888285D01*
X51360124Y-88833471D01*
X51360124Y-88671324D01*
X51387531Y-88616509D01*
X51411854Y-88592186D01*
X51466670Y-88564779D01*
X51628816Y-88564779D01*
X51683630Y-88592186D01*
X51707955Y-88616510D01*
X51735362Y-88671324D01*
X51735362Y-88833471D01*
X51707954Y-88888287D01*
X51676745Y-88919496D01*
X51663738Y-88938961D01*
X51663738Y-88984883D01*
X51696210Y-89017355D01*
X51742132Y-89017355D01*
X51761597Y-89004348D01*
X51799693Y-88966252D01*
X51805032Y-88958260D01*
X51810933Y-88950659D01*
X51849028Y-88874469D01*
X51849821Y-88871570D01*
X51850795Y-88870597D01*
X51852671Y-88861164D01*
X51855211Y-88851889D01*
X51854775Y-88850583D01*
X51855362Y-88847636D01*
X51855362Y-88657160D01*
X51854775Y-88654212D01*
X51855211Y-88652907D01*
X51852671Y-88643633D01*
X51850795Y-88634199D01*
X51849821Y-88633225D01*
X51849028Y-88630328D01*
X51810933Y-88554136D01*
X51805035Y-88546536D01*
X51799693Y-88538542D01*
X51761597Y-88500447D01*
X51753602Y-88495105D01*
X51746004Y-88489208D01*
X51669814Y-88451113D01*
X51666915Y-88450319D01*
X51665942Y-88449346D01*
X51656509Y-88447469D01*
X51647234Y-88444930D01*
X51645928Y-88445365D01*
X51642981Y-88444779D01*
X51452505Y-88444779D01*
X51449557Y-88445365D01*
X51448252Y-88444930D01*
X51438978Y-88447469D01*
X51429544Y-88449346D01*
X51428570Y-88450319D01*
X51425673Y-88451113D01*
X51349481Y-88489208D01*
X51341881Y-88495105D01*
X51333887Y-88500448D01*
X51295793Y-88538543D01*
X51290455Y-88546530D01*
X51284553Y-88554136D01*
X51246458Y-88630327D01*
X51245664Y-88633225D01*
X51244691Y-88634199D01*
X51242814Y-88643631D01*
X51240275Y-88652907D01*
X51240710Y-88654212D01*
X51240124Y-88657160D01*
X51240124Y-88847636D01*
X51240710Y-88850583D01*
X51240275Y-88851889D01*
X51242814Y-88861164D01*
X51244691Y-88870597D01*
X51245664Y-88871570D01*
X51246458Y-88874469D01*
X51253914Y-88889382D01*
X51055362Y-88869527D01*
X51055362Y-88542874D01*
X51050795Y-88519913D01*
X51018323Y-88487441D01*
X50972401Y-88487441D01*
X50939929Y-88519913D01*
X50935362Y-88542874D01*
X50846473Y-88542874D01*
X50846473Y-87747127D01*
X50935513Y-87747127D01*
X50956050Y-87788201D01*
X50976388Y-87799795D01*
X51605625Y-88009539D01*
X50976388Y-88219286D01*
X50956050Y-88230880D01*
X50935513Y-88271954D01*
X50950035Y-88315519D01*
X50991109Y-88336056D01*
X51014336Y-88333128D01*
X51814336Y-88066461D01*
X51834674Y-88054867D01*
X51836678Y-88050857D01*
X51840690Y-88048852D01*
X51846706Y-88030802D01*
X51855211Y-88013793D01*
X51853793Y-88009540D01*
X51855211Y-88005287D01*
X51846704Y-87988273D01*
X51840689Y-87970228D01*
X51836679Y-87968223D01*
X51834674Y-87964213D01*
X51814336Y-87952619D01*
X51014336Y-87685953D01*
X50991109Y-87683025D01*
X50950035Y-87703562D01*
X50935513Y-87747127D01*
X50846473Y-87747127D01*
X50846473Y-87594136D01*
X51944251Y-87594136D01*
X51944251Y-89110513D01*
G37*
D11*
X103042106Y-89240841D02*
X102470678Y-89240841D01*
X102470678Y-89240841D02*
X102470678Y-88040841D01*
X103670678Y-88040841D02*
X103899250Y-88040841D01*
X103899250Y-88040841D02*
X104013535Y-88097984D01*
X104013535Y-88097984D02*
X104127821Y-88212270D01*
X104127821Y-88212270D02*
X104184964Y-88440841D01*
X104184964Y-88440841D02*
X104184964Y-88840841D01*
X104184964Y-88840841D02*
X104127821Y-89069413D01*
X104127821Y-89069413D02*
X104013535Y-89183699D01*
X104013535Y-89183699D02*
X103899250Y-89240841D01*
X103899250Y-89240841D02*
X103670678Y-89240841D01*
X103670678Y-89240841D02*
X103556393Y-89183699D01*
X103556393Y-89183699D02*
X103442107Y-89069413D01*
X103442107Y-89069413D02*
X103384964Y-88840841D01*
X103384964Y-88840841D02*
X103384964Y-88440841D01*
X103384964Y-88440841D02*
X103442107Y-88212270D01*
X103442107Y-88212270D02*
X103556393Y-88097984D01*
X103556393Y-88097984D02*
X103670678Y-88040841D01*
X104642107Y-88897984D02*
X105213536Y-88897984D01*
X104527821Y-89240841D02*
X104927821Y-88040841D01*
X104927821Y-88040841D02*
X105327821Y-89240841D01*
X105727821Y-89240841D02*
X105727821Y-88040841D01*
X105727821Y-88040841D02*
X106013535Y-88040841D01*
X106013535Y-88040841D02*
X106184964Y-88097984D01*
X106184964Y-88097984D02*
X106299249Y-88212270D01*
X106299249Y-88212270D02*
X106356392Y-88326556D01*
X106356392Y-88326556D02*
X106413535Y-88555127D01*
X106413535Y-88555127D02*
X106413535Y-88726556D01*
X106413535Y-88726556D02*
X106356392Y-88955127D01*
X106356392Y-88955127D02*
X106299249Y-89069413D01*
X106299249Y-89069413D02*
X106184964Y-89183699D01*
X106184964Y-89183699D02*
X106013535Y-89240841D01*
X106013535Y-89240841D02*
X105727821Y-89240841D01*
X108527821Y-89126556D02*
X108470678Y-89183699D01*
X108470678Y-89183699D02*
X108299250Y-89240841D01*
X108299250Y-89240841D02*
X108184964Y-89240841D01*
X108184964Y-89240841D02*
X108013535Y-89183699D01*
X108013535Y-89183699D02*
X107899250Y-89069413D01*
X107899250Y-89069413D02*
X107842107Y-88955127D01*
X107842107Y-88955127D02*
X107784964Y-88726556D01*
X107784964Y-88726556D02*
X107784964Y-88555127D01*
X107784964Y-88555127D02*
X107842107Y-88326556D01*
X107842107Y-88326556D02*
X107899250Y-88212270D01*
X107899250Y-88212270D02*
X108013535Y-88097984D01*
X108013535Y-88097984D02*
X108184964Y-88040841D01*
X108184964Y-88040841D02*
X108299250Y-88040841D01*
X108299250Y-88040841D02*
X108470678Y-88097984D01*
X108470678Y-88097984D02*
X108527821Y-88155127D01*
X109042107Y-88612270D02*
X109442107Y-88612270D01*
X109613535Y-89240841D02*
X109042107Y-89240841D01*
X109042107Y-89240841D02*
X109042107Y-88040841D01*
X109042107Y-88040841D02*
X109613535Y-88040841D01*
X110699249Y-89240841D02*
X110127821Y-89240841D01*
X110127821Y-89240841D02*
X110127821Y-88040841D01*
X111670678Y-89240841D02*
X111099250Y-89240841D01*
X111099250Y-89240841D02*
X111099250Y-88040841D01*
D10*
X50896571Y-79109269D02*
X50896571Y-78614031D01*
X50896571Y-78614031D02*
X51201333Y-78880697D01*
X51201333Y-78880697D02*
X51201333Y-78766412D01*
X51201333Y-78766412D02*
X51239428Y-78690221D01*
X51239428Y-78690221D02*
X51277523Y-78652126D01*
X51277523Y-78652126D02*
X51353714Y-78614031D01*
X51353714Y-78614031D02*
X51544190Y-78614031D01*
X51544190Y-78614031D02*
X51620380Y-78652126D01*
X51620380Y-78652126D02*
X51658476Y-78690221D01*
X51658476Y-78690221D02*
X51696571Y-78766412D01*
X51696571Y-78766412D02*
X51696571Y-78994983D01*
X51696571Y-78994983D02*
X51658476Y-79071174D01*
X51658476Y-79071174D02*
X51620380Y-79109269D01*
X51239428Y-78156888D02*
X51201333Y-78233078D01*
X51201333Y-78233078D02*
X51163237Y-78271173D01*
X51163237Y-78271173D02*
X51087047Y-78309269D01*
X51087047Y-78309269D02*
X51048952Y-78309269D01*
X51048952Y-78309269D02*
X50972761Y-78271173D01*
X50972761Y-78271173D02*
X50934666Y-78233078D01*
X50934666Y-78233078D02*
X50896571Y-78156888D01*
X50896571Y-78156888D02*
X50896571Y-78004507D01*
X50896571Y-78004507D02*
X50934666Y-77928316D01*
X50934666Y-77928316D02*
X50972761Y-77890221D01*
X50972761Y-77890221D02*
X51048952Y-77852126D01*
X51048952Y-77852126D02*
X51087047Y-77852126D01*
X51087047Y-77852126D02*
X51163237Y-77890221D01*
X51163237Y-77890221D02*
X51201333Y-77928316D01*
X51201333Y-77928316D02*
X51239428Y-78004507D01*
X51239428Y-78004507D02*
X51239428Y-78156888D01*
X51239428Y-78156888D02*
X51277523Y-78233078D01*
X51277523Y-78233078D02*
X51315618Y-78271173D01*
X51315618Y-78271173D02*
X51391809Y-78309269D01*
X51391809Y-78309269D02*
X51544190Y-78309269D01*
X51544190Y-78309269D02*
X51620380Y-78271173D01*
X51620380Y-78271173D02*
X51658476Y-78233078D01*
X51658476Y-78233078D02*
X51696571Y-78156888D01*
X51696571Y-78156888D02*
X51696571Y-78004507D01*
X51696571Y-78004507D02*
X51658476Y-77928316D01*
X51658476Y-77928316D02*
X51620380Y-77890221D01*
X51620380Y-77890221D02*
X51544190Y-77852126D01*
X51544190Y-77852126D02*
X51391809Y-77852126D01*
X51391809Y-77852126D02*
X51315618Y-77890221D01*
X51315618Y-77890221D02*
X51277523Y-77928316D01*
X51277523Y-77928316D02*
X51239428Y-78004507D01*
G36*
X52045001Y-97315489D02*
G01*
X50947223Y-97315489D01*
X50947223Y-96785647D01*
X51036112Y-96785647D01*
X51036112Y-96899933D01*
X51037988Y-96909366D01*
X51039191Y-96918907D01*
X51077286Y-97033193D01*
X51078774Y-97035803D01*
X51078774Y-97037180D01*
X51084112Y-97045169D01*
X51088879Y-97053531D01*
X51090112Y-97054147D01*
X51091781Y-97056645D01*
X51167971Y-97132835D01*
X51175958Y-97138172D01*
X51183564Y-97144075D01*
X51259756Y-97182170D01*
X51266095Y-97183906D01*
X51272036Y-97186712D01*
X51424417Y-97224809D01*
X51431761Y-97225166D01*
X51438969Y-97226600D01*
X51553255Y-97226600D01*
X51560466Y-97225165D01*
X51567807Y-97224808D01*
X51720188Y-97186712D01*
X51726127Y-97183906D01*
X51732469Y-97182170D01*
X51808659Y-97144075D01*
X51816255Y-97138179D01*
X51824252Y-97132836D01*
X51900443Y-97056645D01*
X51902111Y-97054147D01*
X51903345Y-97053531D01*
X51908111Y-97045169D01*
X51913450Y-97037180D01*
X51913450Y-97035803D01*
X51914938Y-97033193D01*
X51953033Y-96918906D01*
X51954235Y-96909367D01*
X51956112Y-96899933D01*
X51956112Y-96823742D01*
X51954235Y-96814308D01*
X51953033Y-96804768D01*
X51914938Y-96690483D01*
X51913450Y-96687872D01*
X51913450Y-96686496D01*
X51908107Y-96678500D01*
X51903344Y-96670145D01*
X51902112Y-96669529D01*
X51900443Y-96667031D01*
X51862347Y-96628935D01*
X51842882Y-96615928D01*
X51819921Y-96611361D01*
X51553255Y-96611361D01*
X51530294Y-96615928D01*
X51497822Y-96648400D01*
X51493255Y-96671361D01*
X51493255Y-96823742D01*
X51497822Y-96846703D01*
X51530294Y-96879175D01*
X51576216Y-96879175D01*
X51608688Y-96846703D01*
X51613255Y-96823742D01*
X51613255Y-96731361D01*
X51795069Y-96731361D01*
X51805574Y-96741866D01*
X51836112Y-96833479D01*
X51836112Y-96890196D01*
X51805575Y-96981807D01*
X51746285Y-97041096D01*
X51684693Y-97071892D01*
X51545871Y-97106600D01*
X51446353Y-97106600D01*
X51307533Y-97071894D01*
X51245935Y-97041095D01*
X51186649Y-96981809D01*
X51156112Y-96890196D01*
X51156112Y-96799812D01*
X51187873Y-96736290D01*
X51194056Y-96713710D01*
X51179534Y-96670145D01*
X51138460Y-96649608D01*
X51094895Y-96664130D01*
X51080541Y-96682624D01*
X51042446Y-96758814D01*
X51041652Y-96761712D01*
X51040679Y-96762686D01*
X51038802Y-96772118D01*
X51036263Y-96781394D01*
X51036698Y-96782699D01*
X51036112Y-96785647D01*
X50947223Y-96785647D01*
X50947223Y-96522472D01*
X52045001Y-96522472D01*
X52045001Y-97315489D01*
G37*
D11*
X124955071Y-81192294D02*
X123755071Y-81192294D01*
X123755071Y-81192294D02*
X123755071Y-80735151D01*
X123755071Y-80735151D02*
X123812214Y-80620866D01*
X123812214Y-80620866D02*
X123869357Y-80563723D01*
X123869357Y-80563723D02*
X123983643Y-80506580D01*
X123983643Y-80506580D02*
X124155071Y-80506580D01*
X124155071Y-80506580D02*
X124269357Y-80563723D01*
X124269357Y-80563723D02*
X124326500Y-80620866D01*
X124326500Y-80620866D02*
X124383643Y-80735151D01*
X124383643Y-80735151D02*
X124383643Y-81192294D01*
X123755071Y-79763723D02*
X123755071Y-79535151D01*
X123755071Y-79535151D02*
X123812214Y-79420866D01*
X123812214Y-79420866D02*
X123926500Y-79306580D01*
X123926500Y-79306580D02*
X124155071Y-79249437D01*
X124155071Y-79249437D02*
X124555071Y-79249437D01*
X124555071Y-79249437D02*
X124783643Y-79306580D01*
X124783643Y-79306580D02*
X124897929Y-79420866D01*
X124897929Y-79420866D02*
X124955071Y-79535151D01*
X124955071Y-79535151D02*
X124955071Y-79763723D01*
X124955071Y-79763723D02*
X124897929Y-79878009D01*
X124897929Y-79878009D02*
X124783643Y-79992294D01*
X124783643Y-79992294D02*
X124555071Y-80049437D01*
X124555071Y-80049437D02*
X124155071Y-80049437D01*
X124155071Y-80049437D02*
X123926500Y-79992294D01*
X123926500Y-79992294D02*
X123812214Y-79878009D01*
X123812214Y-79878009D02*
X123755071Y-79763723D01*
X123755071Y-78906580D02*
X123755071Y-78220866D01*
X124955071Y-78563723D02*
X123755071Y-78563723D01*
X123869357Y-77878008D02*
X123812214Y-77820865D01*
X123812214Y-77820865D02*
X123755071Y-77706580D01*
X123755071Y-77706580D02*
X123755071Y-77420865D01*
X123755071Y-77420865D02*
X123812214Y-77306580D01*
X123812214Y-77306580D02*
X123869357Y-77249437D01*
X123869357Y-77249437D02*
X123983643Y-77192294D01*
X123983643Y-77192294D02*
X124097929Y-77192294D01*
X124097929Y-77192294D02*
X124269357Y-77249437D01*
X124269357Y-77249437D02*
X124955071Y-77935151D01*
X124955071Y-77935151D02*
X124955071Y-77192294D01*
D10*
G36*
X51845460Y-66753591D02*
G01*
X50747682Y-66753591D01*
X50747682Y-66114031D01*
X50836571Y-66114031D01*
X50836571Y-66609269D01*
X50841138Y-66632230D01*
X50873610Y-66664702D01*
X50919532Y-66664702D01*
X50952004Y-66632230D01*
X50956571Y-66609269D01*
X50956571Y-66246257D01*
X51161823Y-66425852D01*
X51176609Y-66434367D01*
X51178372Y-66436130D01*
X51179670Y-66436130D01*
X51182110Y-66437535D01*
X51203183Y-66436130D01*
X51224294Y-66436130D01*
X51225802Y-66434621D01*
X51227931Y-66434480D01*
X51241840Y-66418584D01*
X51256766Y-66403658D01*
X51257314Y-66400898D01*
X51258171Y-66399920D01*
X51258004Y-66397429D01*
X51261333Y-66380697D01*
X51261333Y-66280576D01*
X51288740Y-66225761D01*
X51313063Y-66201438D01*
X51367879Y-66174031D01*
X51530025Y-66174031D01*
X51584839Y-66201438D01*
X51609164Y-66225762D01*
X51636571Y-66280576D01*
X51636571Y-66480818D01*
X51609164Y-66535632D01*
X51577954Y-66566842D01*
X51564947Y-66586307D01*
X51564947Y-66632229D01*
X51597418Y-66664702D01*
X51643340Y-66664702D01*
X51662806Y-66651696D01*
X51700902Y-66613601D01*
X51706244Y-66605606D01*
X51712142Y-66598007D01*
X51750237Y-66521815D01*
X51751030Y-66518917D01*
X51752004Y-66517944D01*
X51753880Y-66508509D01*
X51756420Y-66499236D01*
X51755984Y-66497930D01*
X51756571Y-66494983D01*
X51756571Y-66266412D01*
X51755984Y-66263464D01*
X51756420Y-66262159D01*
X51753880Y-66252885D01*
X51752004Y-66243451D01*
X51751030Y-66242477D01*
X51750237Y-66239580D01*
X51712142Y-66163388D01*
X51706244Y-66155788D01*
X51700902Y-66147794D01*
X51662806Y-66109699D01*
X51654811Y-66104357D01*
X51647213Y-66098460D01*
X51571023Y-66060365D01*
X51568124Y-66059571D01*
X51567151Y-66058598D01*
X51557718Y-66056721D01*
X51548443Y-66054182D01*
X51547137Y-66054617D01*
X51544190Y-66054031D01*
X51353714Y-66054031D01*
X51350766Y-66054617D01*
X51349461Y-66054182D01*
X51340187Y-66056721D01*
X51330753Y-66058598D01*
X51329779Y-66059571D01*
X51326882Y-66060365D01*
X51250690Y-66098460D01*
X51243090Y-66104357D01*
X51235096Y-66109700D01*
X51197002Y-66147795D01*
X51191664Y-66155782D01*
X51185762Y-66163388D01*
X51147667Y-66239579D01*
X51146873Y-66242477D01*
X51145900Y-66243451D01*
X51144372Y-66251130D01*
X50936081Y-66068876D01*
X50921294Y-66060360D01*
X50919532Y-66058598D01*
X50918234Y-66058598D01*
X50915794Y-66057193D01*
X50894721Y-66058598D01*
X50873610Y-66058598D01*
X50872101Y-66060106D01*
X50869973Y-66060248D01*
X50856064Y-66076144D01*
X50841138Y-66091070D01*
X50840589Y-66093829D01*
X50839733Y-66094808D01*
X50839899Y-66097298D01*
X50836571Y-66114031D01*
X50747682Y-66114031D01*
X50747682Y-65748211D01*
X51564947Y-65748211D01*
X51564947Y-65748212D01*
X51564947Y-65794134D01*
X51577954Y-65813599D01*
X51616050Y-65851695D01*
X51635515Y-65864702D01*
X51635516Y-65864702D01*
X51681438Y-65864702D01*
X51700903Y-65851695D01*
X51738998Y-65813599D01*
X51752004Y-65794134D01*
X51752004Y-65748211D01*
X51738997Y-65728746D01*
X51700902Y-65690652D01*
X51681440Y-65677647D01*
X51681438Y-65677645D01*
X51635515Y-65677645D01*
X51616050Y-65690651D01*
X51577954Y-65728746D01*
X51564947Y-65748211D01*
X50747682Y-65748211D01*
X50747682Y-64971174D01*
X50836571Y-64971174D01*
X50836571Y-65466412D01*
X50841138Y-65489373D01*
X50873610Y-65521845D01*
X50919532Y-65521845D01*
X50952004Y-65489373D01*
X50956571Y-65466412D01*
X50956571Y-65103400D01*
X51161823Y-65282995D01*
X51176609Y-65291510D01*
X51178372Y-65293273D01*
X51179670Y-65293273D01*
X51182110Y-65294678D01*
X51203183Y-65293273D01*
X51224294Y-65293273D01*
X51225802Y-65291764D01*
X51227931Y-65291623D01*
X51241840Y-65275727D01*
X51256766Y-65260801D01*
X51257314Y-65258041D01*
X51258171Y-65257063D01*
X51258004Y-65254572D01*
X51261333Y-65237840D01*
X51261333Y-65137719D01*
X51288740Y-65082904D01*
X51313063Y-65058581D01*
X51367879Y-65031174D01*
X51530025Y-65031174D01*
X51584839Y-65058581D01*
X51609164Y-65082905D01*
X51636571Y-65137719D01*
X51636571Y-65337961D01*
X51609164Y-65392775D01*
X51577954Y-65423985D01*
X51564947Y-65443450D01*
X51564947Y-65489372D01*
X51597418Y-65521845D01*
X51643340Y-65521845D01*
X51662806Y-65508839D01*
X51700902Y-65470744D01*
X51706244Y-65462749D01*
X51712142Y-65455150D01*
X51750237Y-65378958D01*
X51751030Y-65376060D01*
X51752004Y-65375087D01*
X51753880Y-65365652D01*
X51756420Y-65356379D01*
X51755984Y-65355073D01*
X51756571Y-65352126D01*
X51756571Y-65123555D01*
X51755984Y-65120607D01*
X51756420Y-65119302D01*
X51753880Y-65110028D01*
X51752004Y-65100594D01*
X51751030Y-65099620D01*
X51750237Y-65096723D01*
X51712142Y-65020531D01*
X51706244Y-65012931D01*
X51700902Y-65004937D01*
X51662806Y-64966842D01*
X51654811Y-64961500D01*
X51647213Y-64955603D01*
X51571023Y-64917508D01*
X51568124Y-64916714D01*
X51567151Y-64915741D01*
X51557718Y-64913864D01*
X51548443Y-64911325D01*
X51547137Y-64911760D01*
X51544190Y-64911174D01*
X51353714Y-64911174D01*
X51350766Y-64911760D01*
X51349461Y-64911325D01*
X51340187Y-64913864D01*
X51330753Y-64915741D01*
X51329779Y-64916714D01*
X51326882Y-64917508D01*
X51250690Y-64955603D01*
X51243090Y-64961500D01*
X51235096Y-64966843D01*
X51197002Y-65004938D01*
X51191664Y-65012925D01*
X51185762Y-65020531D01*
X51147667Y-65096722D01*
X51146873Y-65099620D01*
X51145900Y-65100594D01*
X51144372Y-65108273D01*
X50936081Y-64926019D01*
X50921294Y-64917503D01*
X50919532Y-64915741D01*
X50918234Y-64915741D01*
X50915794Y-64914336D01*
X50894721Y-64915741D01*
X50873610Y-64915741D01*
X50872101Y-64917249D01*
X50869973Y-64917391D01*
X50856064Y-64933287D01*
X50841138Y-64948213D01*
X50840589Y-64950972D01*
X50839733Y-64951951D01*
X50839899Y-64954441D01*
X50836571Y-64971174D01*
X50747682Y-64971174D01*
X50747682Y-64213522D01*
X50836722Y-64213522D01*
X50857259Y-64254596D01*
X50877597Y-64266190D01*
X51506834Y-64475934D01*
X50877597Y-64685681D01*
X50857259Y-64697275D01*
X50836722Y-64738349D01*
X50851244Y-64781914D01*
X50892318Y-64802451D01*
X50915545Y-64799523D01*
X51715545Y-64532856D01*
X51735883Y-64521262D01*
X51737887Y-64517252D01*
X51741899Y-64515247D01*
X51747915Y-64497197D01*
X51756420Y-64480188D01*
X51755002Y-64475935D01*
X51756420Y-64471682D01*
X51747913Y-64454668D01*
X51741898Y-64436623D01*
X51737888Y-64434618D01*
X51735883Y-64430608D01*
X51715545Y-64419014D01*
X50915545Y-64152348D01*
X50892318Y-64149420D01*
X50851244Y-64169957D01*
X50836722Y-64213522D01*
X50747682Y-64213522D01*
X50747682Y-64060531D01*
X51845460Y-64060531D01*
X51845460Y-66753591D01*
G37*
X51696571Y-71375935D02*
X51315618Y-71642602D01*
X51696571Y-71833078D02*
X50896571Y-71833078D01*
X50896571Y-71833078D02*
X50896571Y-71528316D01*
X50896571Y-71528316D02*
X50934666Y-71452126D01*
X50934666Y-71452126D02*
X50972761Y-71414031D01*
X50972761Y-71414031D02*
X51048952Y-71375935D01*
X51048952Y-71375935D02*
X51163237Y-71375935D01*
X51163237Y-71375935D02*
X51239428Y-71414031D01*
X51239428Y-71414031D02*
X51277523Y-71452126D01*
X51277523Y-71452126D02*
X51315618Y-71528316D01*
X51315618Y-71528316D02*
X51315618Y-71833078D01*
X50896571Y-71109269D02*
X51696571Y-70575935D01*
X50896571Y-70575935D02*
X51696571Y-71109269D01*
X51696571Y-70271173D02*
X50896571Y-70271173D01*
X50896571Y-70271173D02*
X50896571Y-70080697D01*
X50896571Y-70080697D02*
X50934666Y-69966411D01*
X50934666Y-69966411D02*
X51010856Y-69890221D01*
X51010856Y-69890221D02*
X51087047Y-69852126D01*
X51087047Y-69852126D02*
X51239428Y-69814030D01*
X51239428Y-69814030D02*
X51353714Y-69814030D01*
X51353714Y-69814030D02*
X51506095Y-69852126D01*
X51506095Y-69852126D02*
X51582285Y-69890221D01*
X51582285Y-69890221D02*
X51658476Y-69966411D01*
X51658476Y-69966411D02*
X51696571Y-70080697D01*
X51696571Y-70080697D02*
X51696571Y-70271173D01*
X101320541Y-74799115D02*
X101282445Y-74837211D01*
X101282445Y-74837211D02*
X101168160Y-74875306D01*
X101168160Y-74875306D02*
X101091969Y-74875306D01*
X101091969Y-74875306D02*
X100977683Y-74837211D01*
X100977683Y-74837211D02*
X100901493Y-74761020D01*
X100901493Y-74761020D02*
X100863398Y-74684830D01*
X100863398Y-74684830D02*
X100825302Y-74532449D01*
X100825302Y-74532449D02*
X100825302Y-74418163D01*
X100825302Y-74418163D02*
X100863398Y-74265782D01*
X100863398Y-74265782D02*
X100901493Y-74189591D01*
X100901493Y-74189591D02*
X100977683Y-74113401D01*
X100977683Y-74113401D02*
X101091969Y-74075306D01*
X101091969Y-74075306D02*
X101168160Y-74075306D01*
X101168160Y-74075306D02*
X101282445Y-74113401D01*
X101282445Y-74113401D02*
X101320541Y-74151496D01*
X101663398Y-74875306D02*
X101663398Y-74075306D01*
X102120541Y-74875306D02*
X101777683Y-74418163D01*
X102120541Y-74075306D02*
X101663398Y-74532449D01*
D11*
X57314171Y-84282707D02*
X57371314Y-84111279D01*
X57371314Y-84111279D02*
X57428457Y-84054136D01*
X57428457Y-84054136D02*
X57542742Y-83996993D01*
X57542742Y-83996993D02*
X57714171Y-83996993D01*
X57714171Y-83996993D02*
X57828457Y-84054136D01*
X57828457Y-84054136D02*
X57885600Y-84111279D01*
X57885600Y-84111279D02*
X57942742Y-84225564D01*
X57942742Y-84225564D02*
X57942742Y-84682707D01*
X57942742Y-84682707D02*
X56742742Y-84682707D01*
X56742742Y-84682707D02*
X56742742Y-84282707D01*
X56742742Y-84282707D02*
X56799885Y-84168422D01*
X56799885Y-84168422D02*
X56857028Y-84111279D01*
X56857028Y-84111279D02*
X56971314Y-84054136D01*
X56971314Y-84054136D02*
X57085600Y-84054136D01*
X57085600Y-84054136D02*
X57199885Y-84111279D01*
X57199885Y-84111279D02*
X57257028Y-84168422D01*
X57257028Y-84168422D02*
X57314171Y-84282707D01*
X57314171Y-84282707D02*
X57314171Y-84682707D01*
X56742742Y-83254136D02*
X56742742Y-83025564D01*
X56742742Y-83025564D02*
X56799885Y-82911279D01*
X56799885Y-82911279D02*
X56914171Y-82796993D01*
X56914171Y-82796993D02*
X57142742Y-82739850D01*
X57142742Y-82739850D02*
X57542742Y-82739850D01*
X57542742Y-82739850D02*
X57771314Y-82796993D01*
X57771314Y-82796993D02*
X57885600Y-82911279D01*
X57885600Y-82911279D02*
X57942742Y-83025564D01*
X57942742Y-83025564D02*
X57942742Y-83254136D01*
X57942742Y-83254136D02*
X57885600Y-83368422D01*
X57885600Y-83368422D02*
X57771314Y-83482707D01*
X57771314Y-83482707D02*
X57542742Y-83539850D01*
X57542742Y-83539850D02*
X57142742Y-83539850D01*
X57142742Y-83539850D02*
X56914171Y-83482707D01*
X56914171Y-83482707D02*
X56799885Y-83368422D01*
X56799885Y-83368422D02*
X56742742Y-83254136D01*
X56742742Y-81996993D02*
X56742742Y-81768421D01*
X56742742Y-81768421D02*
X56799885Y-81654136D01*
X56799885Y-81654136D02*
X56914171Y-81539850D01*
X56914171Y-81539850D02*
X57142742Y-81482707D01*
X57142742Y-81482707D02*
X57542742Y-81482707D01*
X57542742Y-81482707D02*
X57771314Y-81539850D01*
X57771314Y-81539850D02*
X57885600Y-81654136D01*
X57885600Y-81654136D02*
X57942742Y-81768421D01*
X57942742Y-81768421D02*
X57942742Y-81996993D01*
X57942742Y-81996993D02*
X57885600Y-82111279D01*
X57885600Y-82111279D02*
X57771314Y-82225564D01*
X57771314Y-82225564D02*
X57542742Y-82282707D01*
X57542742Y-82282707D02*
X57142742Y-82282707D01*
X57142742Y-82282707D02*
X56914171Y-82225564D01*
X56914171Y-82225564D02*
X56799885Y-82111279D01*
X56799885Y-82111279D02*
X56742742Y-81996993D01*
X56742742Y-81139850D02*
X56742742Y-80454136D01*
X57942742Y-80796993D02*
X56742742Y-80796993D01*
D12*
X70006200Y-86148935D02*
X70044295Y-86034649D01*
X70044295Y-86034649D02*
X70044295Y-85844173D01*
X70044295Y-85844173D02*
X70006200Y-85767982D01*
X70006200Y-85767982D02*
X69968104Y-85729887D01*
X69968104Y-85729887D02*
X69891914Y-85691792D01*
X69891914Y-85691792D02*
X69815723Y-85691792D01*
X69815723Y-85691792D02*
X69739533Y-85729887D01*
X69739533Y-85729887D02*
X69701438Y-85767982D01*
X69701438Y-85767982D02*
X69663342Y-85844173D01*
X69663342Y-85844173D02*
X69625247Y-85996554D01*
X69625247Y-85996554D02*
X69587152Y-86072744D01*
X69587152Y-86072744D02*
X69549057Y-86110839D01*
X69549057Y-86110839D02*
X69472866Y-86148935D01*
X69472866Y-86148935D02*
X69396676Y-86148935D01*
X69396676Y-86148935D02*
X69320485Y-86110839D01*
X69320485Y-86110839D02*
X69282390Y-86072744D01*
X69282390Y-86072744D02*
X69244295Y-85996554D01*
X69244295Y-85996554D02*
X69244295Y-85806077D01*
X69244295Y-85806077D02*
X69282390Y-85691792D01*
X69244295Y-85425125D02*
X70044295Y-85234649D01*
X70044295Y-85234649D02*
X69472866Y-85082268D01*
X69472866Y-85082268D02*
X70044295Y-84929887D01*
X70044295Y-84929887D02*
X69244295Y-84739411D01*
D10*
G36*
X51845460Y-73820063D02*
G01*
X50747682Y-73820063D01*
X50747682Y-73290221D01*
X50836571Y-73290221D01*
X50836571Y-73404507D01*
X50838447Y-73413940D01*
X50839650Y-73423481D01*
X50877745Y-73537767D01*
X50879233Y-73540377D01*
X50879233Y-73541754D01*
X50884571Y-73549743D01*
X50889338Y-73558105D01*
X50890571Y-73558721D01*
X50892240Y-73561219D01*
X50968430Y-73637409D01*
X50976417Y-73642746D01*
X50984023Y-73648649D01*
X51060215Y-73686744D01*
X51066554Y-73688480D01*
X51072495Y-73691286D01*
X51224876Y-73729383D01*
X51232220Y-73729740D01*
X51239428Y-73731174D01*
X51353714Y-73731174D01*
X51360925Y-73729739D01*
X51368266Y-73729382D01*
X51520647Y-73691286D01*
X51526586Y-73688480D01*
X51532928Y-73686744D01*
X51609118Y-73648649D01*
X51616714Y-73642753D01*
X51624711Y-73637410D01*
X51700902Y-73561219D01*
X51702570Y-73558721D01*
X51703804Y-73558105D01*
X51708570Y-73549743D01*
X51713909Y-73541754D01*
X51713909Y-73540377D01*
X51715397Y-73537767D01*
X51753492Y-73423480D01*
X51754694Y-73413941D01*
X51756571Y-73404507D01*
X51756571Y-73328316D01*
X51754694Y-73318882D01*
X51753492Y-73309342D01*
X51715397Y-73195057D01*
X51713909Y-73192446D01*
X51713909Y-73191070D01*
X51708566Y-73183074D01*
X51703803Y-73174719D01*
X51702571Y-73174103D01*
X51700902Y-73171605D01*
X51662806Y-73133509D01*
X51643341Y-73120502D01*
X51620380Y-73115935D01*
X51353714Y-73115935D01*
X51330753Y-73120502D01*
X51298281Y-73152974D01*
X51293714Y-73175935D01*
X51293714Y-73328316D01*
X51298281Y-73351277D01*
X51330753Y-73383749D01*
X51376675Y-73383749D01*
X51409147Y-73351277D01*
X51413714Y-73328316D01*
X51413714Y-73235935D01*
X51595528Y-73235935D01*
X51606033Y-73246440D01*
X51636571Y-73338053D01*
X51636571Y-73394770D01*
X51606034Y-73486381D01*
X51546744Y-73545670D01*
X51485152Y-73576466D01*
X51346330Y-73611174D01*
X51246812Y-73611174D01*
X51107992Y-73576468D01*
X51046394Y-73545669D01*
X50987108Y-73486383D01*
X50956571Y-73394770D01*
X50956571Y-73304386D01*
X50988332Y-73240864D01*
X50994515Y-73218284D01*
X50979993Y-73174719D01*
X50938919Y-73154182D01*
X50895354Y-73168704D01*
X50881000Y-73187198D01*
X50842905Y-73263388D01*
X50842111Y-73266286D01*
X50841138Y-73267260D01*
X50839261Y-73276692D01*
X50836722Y-73285968D01*
X50837157Y-73287273D01*
X50836571Y-73290221D01*
X50747682Y-73290221D01*
X50747682Y-73027046D01*
X51845460Y-73027046D01*
X51845460Y-73820063D01*
G37*
X100852219Y-69870755D02*
X100852219Y-69070755D01*
X100852219Y-69070755D02*
X101042695Y-69070755D01*
X101042695Y-69070755D02*
X101156981Y-69108850D01*
X101156981Y-69108850D02*
X101233171Y-69185040D01*
X101233171Y-69185040D02*
X101271266Y-69261231D01*
X101271266Y-69261231D02*
X101309362Y-69413612D01*
X101309362Y-69413612D02*
X101309362Y-69527898D01*
X101309362Y-69527898D02*
X101271266Y-69680279D01*
X101271266Y-69680279D02*
X101233171Y-69756469D01*
X101233171Y-69756469D02*
X101156981Y-69832660D01*
X101156981Y-69832660D02*
X101042695Y-69870755D01*
X101042695Y-69870755D02*
X100852219Y-69870755D01*
X101804600Y-69070755D02*
X101956981Y-69070755D01*
X101956981Y-69070755D02*
X102033171Y-69108850D01*
X102033171Y-69108850D02*
X102109362Y-69185040D01*
X102109362Y-69185040D02*
X102147457Y-69337421D01*
X102147457Y-69337421D02*
X102147457Y-69604088D01*
X102147457Y-69604088D02*
X102109362Y-69756469D01*
X102109362Y-69756469D02*
X102033171Y-69832660D01*
X102033171Y-69832660D02*
X101956981Y-69870755D01*
X101956981Y-69870755D02*
X101804600Y-69870755D01*
X101804600Y-69870755D02*
X101728409Y-69832660D01*
X101728409Y-69832660D02*
X101652219Y-69756469D01*
X101652219Y-69756469D02*
X101614123Y-69604088D01*
X101614123Y-69604088D02*
X101614123Y-69337421D01*
X101614123Y-69337421D02*
X101652219Y-69185040D01*
X101652219Y-69185040D02*
X101728409Y-69108850D01*
X101728409Y-69108850D02*
X101804600Y-69070755D01*
D11*
X124900277Y-70155995D02*
X123700277Y-70155995D01*
X123700277Y-70155995D02*
X123700277Y-69698852D01*
X123700277Y-69698852D02*
X123757420Y-69584567D01*
X123757420Y-69584567D02*
X123814563Y-69527424D01*
X123814563Y-69527424D02*
X123928849Y-69470281D01*
X123928849Y-69470281D02*
X124100277Y-69470281D01*
X124100277Y-69470281D02*
X124214563Y-69527424D01*
X124214563Y-69527424D02*
X124271706Y-69584567D01*
X124271706Y-69584567D02*
X124328849Y-69698852D01*
X124328849Y-69698852D02*
X124328849Y-70155995D01*
X123700277Y-68727424D02*
X123700277Y-68498852D01*
X123700277Y-68498852D02*
X123757420Y-68384567D01*
X123757420Y-68384567D02*
X123871706Y-68270281D01*
X123871706Y-68270281D02*
X124100277Y-68213138D01*
X124100277Y-68213138D02*
X124500277Y-68213138D01*
X124500277Y-68213138D02*
X124728849Y-68270281D01*
X124728849Y-68270281D02*
X124843135Y-68384567D01*
X124843135Y-68384567D02*
X124900277Y-68498852D01*
X124900277Y-68498852D02*
X124900277Y-68727424D01*
X124900277Y-68727424D02*
X124843135Y-68841710D01*
X124843135Y-68841710D02*
X124728849Y-68955995D01*
X124728849Y-68955995D02*
X124500277Y-69013138D01*
X124500277Y-69013138D02*
X124100277Y-69013138D01*
X124100277Y-69013138D02*
X123871706Y-68955995D01*
X123871706Y-68955995D02*
X123757420Y-68841710D01*
X123757420Y-68841710D02*
X123700277Y-68727424D01*
X123700277Y-67870281D02*
X123700277Y-67184567D01*
X124900277Y-67527424D02*
X123700277Y-67527424D01*
X124900277Y-66155995D02*
X124900277Y-66841709D01*
X124900277Y-66498852D02*
X123700277Y-66498852D01*
X123700277Y-66498852D02*
X123871706Y-66613138D01*
X123871706Y-66613138D02*
X123985992Y-66727423D01*
X123985992Y-66727423D02*
X124043135Y-66841709D01*
X124976989Y-103468560D02*
X123776989Y-103468560D01*
X123776989Y-103468560D02*
X123776989Y-103011417D01*
X123776989Y-103011417D02*
X123834132Y-102897132D01*
X123834132Y-102897132D02*
X123891275Y-102839989D01*
X123891275Y-102839989D02*
X124005561Y-102782846D01*
X124005561Y-102782846D02*
X124176989Y-102782846D01*
X124176989Y-102782846D02*
X124291275Y-102839989D01*
X124291275Y-102839989D02*
X124348418Y-102897132D01*
X124348418Y-102897132D02*
X124405561Y-103011417D01*
X124405561Y-103011417D02*
X124405561Y-103468560D01*
X123776989Y-102039989D02*
X123776989Y-101811417D01*
X123776989Y-101811417D02*
X123834132Y-101697132D01*
X123834132Y-101697132D02*
X123948418Y-101582846D01*
X123948418Y-101582846D02*
X124176989Y-101525703D01*
X124176989Y-101525703D02*
X124576989Y-101525703D01*
X124576989Y-101525703D02*
X124805561Y-101582846D01*
X124805561Y-101582846D02*
X124919847Y-101697132D01*
X124919847Y-101697132D02*
X124976989Y-101811417D01*
X124976989Y-101811417D02*
X124976989Y-102039989D01*
X124976989Y-102039989D02*
X124919847Y-102154275D01*
X124919847Y-102154275D02*
X124805561Y-102268560D01*
X124805561Y-102268560D02*
X124576989Y-102325703D01*
X124576989Y-102325703D02*
X124176989Y-102325703D01*
X124176989Y-102325703D02*
X123948418Y-102268560D01*
X123948418Y-102268560D02*
X123834132Y-102154275D01*
X123834132Y-102154275D02*
X123776989Y-102039989D01*
X123776989Y-101182846D02*
X123776989Y-100497132D01*
X124976989Y-100839989D02*
X123776989Y-100839989D01*
X124176989Y-99582846D02*
X124976989Y-99582846D01*
X123719847Y-99868560D02*
X124576989Y-100154274D01*
X124576989Y-100154274D02*
X124576989Y-99411417D01*
D10*
X50996571Y-84309269D02*
X50996571Y-83814031D01*
X50996571Y-83814031D02*
X51301333Y-84080697D01*
X51301333Y-84080697D02*
X51301333Y-83966412D01*
X51301333Y-83966412D02*
X51339428Y-83890221D01*
X51339428Y-83890221D02*
X51377523Y-83852126D01*
X51377523Y-83852126D02*
X51453714Y-83814031D01*
X51453714Y-83814031D02*
X51644190Y-83814031D01*
X51644190Y-83814031D02*
X51720380Y-83852126D01*
X51720380Y-83852126D02*
X51758476Y-83890221D01*
X51758476Y-83890221D02*
X51796571Y-83966412D01*
X51796571Y-83966412D02*
X51796571Y-84194983D01*
X51796571Y-84194983D02*
X51758476Y-84271174D01*
X51758476Y-84271174D02*
X51720380Y-84309269D01*
X50996571Y-83128316D02*
X50996571Y-83280697D01*
X50996571Y-83280697D02*
X51034666Y-83356888D01*
X51034666Y-83356888D02*
X51072761Y-83394983D01*
X51072761Y-83394983D02*
X51187047Y-83471173D01*
X51187047Y-83471173D02*
X51339428Y-83509269D01*
X51339428Y-83509269D02*
X51644190Y-83509269D01*
X51644190Y-83509269D02*
X51720380Y-83471173D01*
X51720380Y-83471173D02*
X51758476Y-83433078D01*
X51758476Y-83433078D02*
X51796571Y-83356888D01*
X51796571Y-83356888D02*
X51796571Y-83204507D01*
X51796571Y-83204507D02*
X51758476Y-83128316D01*
X51758476Y-83128316D02*
X51720380Y-83090221D01*
X51720380Y-83090221D02*
X51644190Y-83052126D01*
X51644190Y-83052126D02*
X51453714Y-83052126D01*
X51453714Y-83052126D02*
X51377523Y-83090221D01*
X51377523Y-83090221D02*
X51339428Y-83128316D01*
X51339428Y-83128316D02*
X51301333Y-83204507D01*
X51301333Y-83204507D02*
X51301333Y-83356888D01*
X51301333Y-83356888D02*
X51339428Y-83433078D01*
X51339428Y-83433078D02*
X51377523Y-83471173D01*
X51377523Y-83471173D02*
X51453714Y-83509269D01*
D11*
X124976989Y-92219687D02*
X123776989Y-92219687D01*
X123776989Y-92219687D02*
X123776989Y-91762544D01*
X123776989Y-91762544D02*
X123834132Y-91648259D01*
X123834132Y-91648259D02*
X123891275Y-91591116D01*
X123891275Y-91591116D02*
X124005561Y-91533973D01*
X124005561Y-91533973D02*
X124176989Y-91533973D01*
X124176989Y-91533973D02*
X124291275Y-91591116D01*
X124291275Y-91591116D02*
X124348418Y-91648259D01*
X124348418Y-91648259D02*
X124405561Y-91762544D01*
X124405561Y-91762544D02*
X124405561Y-92219687D01*
X123776989Y-90791116D02*
X123776989Y-90562544D01*
X123776989Y-90562544D02*
X123834132Y-90448259D01*
X123834132Y-90448259D02*
X123948418Y-90333973D01*
X123948418Y-90333973D02*
X124176989Y-90276830D01*
X124176989Y-90276830D02*
X124576989Y-90276830D01*
X124576989Y-90276830D02*
X124805561Y-90333973D01*
X124805561Y-90333973D02*
X124919847Y-90448259D01*
X124919847Y-90448259D02*
X124976989Y-90562544D01*
X124976989Y-90562544D02*
X124976989Y-90791116D01*
X124976989Y-90791116D02*
X124919847Y-90905402D01*
X124919847Y-90905402D02*
X124805561Y-91019687D01*
X124805561Y-91019687D02*
X124576989Y-91076830D01*
X124576989Y-91076830D02*
X124176989Y-91076830D01*
X124176989Y-91076830D02*
X123948418Y-91019687D01*
X123948418Y-91019687D02*
X123834132Y-90905402D01*
X123834132Y-90905402D02*
X123776989Y-90791116D01*
X123776989Y-89933973D02*
X123776989Y-89248259D01*
X124976989Y-89591116D02*
X123776989Y-89591116D01*
X123776989Y-88962544D02*
X123776989Y-88219687D01*
X123776989Y-88219687D02*
X124234132Y-88619687D01*
X124234132Y-88619687D02*
X124234132Y-88448258D01*
X124234132Y-88448258D02*
X124291275Y-88333973D01*
X124291275Y-88333973D02*
X124348418Y-88276830D01*
X124348418Y-88276830D02*
X124462704Y-88219687D01*
X124462704Y-88219687D02*
X124748418Y-88219687D01*
X124748418Y-88219687D02*
X124862704Y-88276830D01*
X124862704Y-88276830D02*
X124919847Y-88333973D01*
X124919847Y-88333973D02*
X124976989Y-88448258D01*
X124976989Y-88448258D02*
X124976989Y-88791115D01*
X124976989Y-88791115D02*
X124919847Y-88905401D01*
X124919847Y-88905401D02*
X124862704Y-88962544D01*
D10*
X100860988Y-72373498D02*
X100860988Y-71573498D01*
X100860988Y-71573498D02*
X101051464Y-71573498D01*
X101051464Y-71573498D02*
X101165750Y-71611593D01*
X101165750Y-71611593D02*
X101241940Y-71687783D01*
X101241940Y-71687783D02*
X101280035Y-71763974D01*
X101280035Y-71763974D02*
X101318131Y-71916355D01*
X101318131Y-71916355D02*
X101318131Y-72030641D01*
X101318131Y-72030641D02*
X101280035Y-72183022D01*
X101280035Y-72183022D02*
X101241940Y-72259212D01*
X101241940Y-72259212D02*
X101165750Y-72335403D01*
X101165750Y-72335403D02*
X101051464Y-72373498D01*
X101051464Y-72373498D02*
X100860988Y-72373498D01*
X101660988Y-72373498D02*
X101660988Y-71573498D01*
X51696571Y-76114031D02*
X51696571Y-76571174D01*
X51696571Y-76342602D02*
X50896571Y-76342602D01*
X50896571Y-76342602D02*
X51010856Y-76418793D01*
X51010856Y-76418793D02*
X51087047Y-76494983D01*
X51087047Y-76494983D02*
X51125142Y-76571174D01*
X50896571Y-75390221D02*
X50896571Y-75771173D01*
X50896571Y-75771173D02*
X51277523Y-75809269D01*
X51277523Y-75809269D02*
X51239428Y-75771173D01*
X51239428Y-75771173D02*
X51201333Y-75694983D01*
X51201333Y-75694983D02*
X51201333Y-75504507D01*
X51201333Y-75504507D02*
X51239428Y-75428316D01*
X51239428Y-75428316D02*
X51277523Y-75390221D01*
X51277523Y-75390221D02*
X51353714Y-75352126D01*
X51353714Y-75352126D02*
X51544190Y-75352126D01*
X51544190Y-75352126D02*
X51620380Y-75390221D01*
X51620380Y-75390221D02*
X51658476Y-75428316D01*
X51658476Y-75428316D02*
X51696571Y-75504507D01*
X51696571Y-75504507D02*
X51696571Y-75694983D01*
X51696571Y-75694983D02*
X51658476Y-75771173D01*
X51658476Y-75771173D02*
X51620380Y-75809269D01*
D11*
X109056413Y-62579265D02*
X109227842Y-62636407D01*
X109227842Y-62636407D02*
X109513556Y-62636407D01*
X109513556Y-62636407D02*
X109627842Y-62579265D01*
X109627842Y-62579265D02*
X109684984Y-62522122D01*
X109684984Y-62522122D02*
X109742127Y-62407836D01*
X109742127Y-62407836D02*
X109742127Y-62293550D01*
X109742127Y-62293550D02*
X109684984Y-62179265D01*
X109684984Y-62179265D02*
X109627842Y-62122122D01*
X109627842Y-62122122D02*
X109513556Y-62064979D01*
X109513556Y-62064979D02*
X109284984Y-62007836D01*
X109284984Y-62007836D02*
X109170699Y-61950693D01*
X109170699Y-61950693D02*
X109113556Y-61893550D01*
X109113556Y-61893550D02*
X109056413Y-61779265D01*
X109056413Y-61779265D02*
X109056413Y-61664979D01*
X109056413Y-61664979D02*
X109113556Y-61550693D01*
X109113556Y-61550693D02*
X109170699Y-61493550D01*
X109170699Y-61493550D02*
X109284984Y-61436407D01*
X109284984Y-61436407D02*
X109570699Y-61436407D01*
X109570699Y-61436407D02*
X109742127Y-61493550D01*
X110256413Y-62007836D02*
X110656413Y-62007836D01*
X110827841Y-62636407D02*
X110256413Y-62636407D01*
X110256413Y-62636407D02*
X110256413Y-61436407D01*
X110256413Y-61436407D02*
X110827841Y-61436407D01*
X112027841Y-62636407D02*
X111627841Y-62064979D01*
X111342127Y-62636407D02*
X111342127Y-61436407D01*
X111342127Y-61436407D02*
X111799270Y-61436407D01*
X111799270Y-61436407D02*
X111913555Y-61493550D01*
X111913555Y-61493550D02*
X111970698Y-61550693D01*
X111970698Y-61550693D02*
X112027841Y-61664979D01*
X112027841Y-61664979D02*
X112027841Y-61836407D01*
X112027841Y-61836407D02*
X111970698Y-61950693D01*
X111970698Y-61950693D02*
X111913555Y-62007836D01*
X111913555Y-62007836D02*
X111799270Y-62064979D01*
X111799270Y-62064979D02*
X111342127Y-62064979D01*
X112370698Y-61436407D02*
X112770698Y-62636407D01*
X112770698Y-62636407D02*
X113170698Y-61436407D01*
X113799269Y-61436407D02*
X114027841Y-61436407D01*
X114027841Y-61436407D02*
X114142126Y-61493550D01*
X114142126Y-61493550D02*
X114256412Y-61607836D01*
X114256412Y-61607836D02*
X114313555Y-61836407D01*
X114313555Y-61836407D02*
X114313555Y-62236407D01*
X114313555Y-62236407D02*
X114256412Y-62464979D01*
X114256412Y-62464979D02*
X114142126Y-62579265D01*
X114142126Y-62579265D02*
X114027841Y-62636407D01*
X114027841Y-62636407D02*
X113799269Y-62636407D01*
X113799269Y-62636407D02*
X113684984Y-62579265D01*
X113684984Y-62579265D02*
X113570698Y-62464979D01*
X113570698Y-62464979D02*
X113513555Y-62236407D01*
X113513555Y-62236407D02*
X113513555Y-61836407D01*
X113513555Y-61836407D02*
X113570698Y-61607836D01*
X113570698Y-61607836D02*
X113684984Y-61493550D01*
X113684984Y-61493550D02*
X113799269Y-61436407D01*
X64703006Y-59642742D02*
X64303006Y-59071314D01*
X64017292Y-59642742D02*
X64017292Y-58442742D01*
X64017292Y-58442742D02*
X64474435Y-58442742D01*
X64474435Y-58442742D02*
X64588720Y-58499885D01*
X64588720Y-58499885D02*
X64645863Y-58557028D01*
X64645863Y-58557028D02*
X64703006Y-58671314D01*
X64703006Y-58671314D02*
X64703006Y-58842742D01*
X64703006Y-58842742D02*
X64645863Y-58957028D01*
X64645863Y-58957028D02*
X64588720Y-59014171D01*
X64588720Y-59014171D02*
X64474435Y-59071314D01*
X64474435Y-59071314D02*
X64017292Y-59071314D01*
X65217292Y-59014171D02*
X65617292Y-59014171D01*
X65788720Y-59642742D02*
X65217292Y-59642742D01*
X65217292Y-59642742D02*
X65217292Y-58442742D01*
X65217292Y-58442742D02*
X65788720Y-58442742D01*
X66874434Y-59642742D02*
X66303006Y-59642742D01*
X66303006Y-59642742D02*
X66303006Y-58442742D01*
X67217292Y-59299885D02*
X67788721Y-59299885D01*
X67103006Y-59642742D02*
X67503006Y-58442742D01*
X67503006Y-58442742D02*
X67903006Y-59642742D01*
X68531577Y-59071314D02*
X68531577Y-59642742D01*
X68131577Y-58442742D02*
X68531577Y-59071314D01*
X68531577Y-59071314D02*
X68931577Y-58442742D01*
D10*
X51089882Y-92086372D02*
X51089882Y-91629229D01*
X51889882Y-91857801D02*
X51089882Y-91857801D01*
X51889882Y-90905419D02*
X51508929Y-91172086D01*
X51889882Y-91362562D02*
X51089882Y-91362562D01*
X51089882Y-91362562D02*
X51089882Y-91057800D01*
X51089882Y-91057800D02*
X51127977Y-90981610D01*
X51127977Y-90981610D02*
X51166072Y-90943515D01*
X51166072Y-90943515D02*
X51242263Y-90905419D01*
X51242263Y-90905419D02*
X51356548Y-90905419D01*
X51356548Y-90905419D02*
X51432739Y-90943515D01*
X51432739Y-90943515D02*
X51470834Y-90981610D01*
X51470834Y-90981610D02*
X51508929Y-91057800D01*
X51508929Y-91057800D02*
X51508929Y-91362562D01*
X51889882Y-90562562D02*
X51089882Y-90562562D01*
X51127977Y-89762563D02*
X51089882Y-89838753D01*
X51089882Y-89838753D02*
X51089882Y-89953039D01*
X51089882Y-89953039D02*
X51127977Y-90067325D01*
X51127977Y-90067325D02*
X51204167Y-90143515D01*
X51204167Y-90143515D02*
X51280358Y-90181610D01*
X51280358Y-90181610D02*
X51432739Y-90219706D01*
X51432739Y-90219706D02*
X51547025Y-90219706D01*
X51547025Y-90219706D02*
X51699406Y-90181610D01*
X51699406Y-90181610D02*
X51775596Y-90143515D01*
X51775596Y-90143515D02*
X51851787Y-90067325D01*
X51851787Y-90067325D02*
X51889882Y-89953039D01*
X51889882Y-89953039D02*
X51889882Y-89876848D01*
X51889882Y-89876848D02*
X51851787Y-89762563D01*
X51851787Y-89762563D02*
X51813691Y-89724467D01*
X51813691Y-89724467D02*
X51547025Y-89724467D01*
X51547025Y-89724467D02*
X51547025Y-89876848D01*
X100852219Y-67366871D02*
X100852219Y-66566871D01*
X100852219Y-66566871D02*
X101118885Y-67138299D01*
X101118885Y-67138299D02*
X101385552Y-66566871D01*
X101385552Y-66566871D02*
X101385552Y-67366871D01*
X101728409Y-67328776D02*
X101842695Y-67366871D01*
X101842695Y-67366871D02*
X102033171Y-67366871D01*
X102033171Y-67366871D02*
X102109362Y-67328776D01*
X102109362Y-67328776D02*
X102147457Y-67290680D01*
X102147457Y-67290680D02*
X102185552Y-67214490D01*
X102185552Y-67214490D02*
X102185552Y-67138299D01*
X102185552Y-67138299D02*
X102147457Y-67062109D01*
X102147457Y-67062109D02*
X102109362Y-67024014D01*
X102109362Y-67024014D02*
X102033171Y-66985918D01*
X102033171Y-66985918D02*
X101880790Y-66947823D01*
X101880790Y-66947823D02*
X101804600Y-66909728D01*
X101804600Y-66909728D02*
X101766505Y-66871633D01*
X101766505Y-66871633D02*
X101728409Y-66795442D01*
X101728409Y-66795442D02*
X101728409Y-66719252D01*
X101728409Y-66719252D02*
X101766505Y-66643061D01*
X101766505Y-66643061D02*
X101804600Y-66604966D01*
X101804600Y-66604966D02*
X101880790Y-66566871D01*
X101880790Y-66566871D02*
X102071267Y-66566871D01*
X102071267Y-66566871D02*
X102185552Y-66604966D01*
X50896571Y-69147364D02*
X50896571Y-68690221D01*
X51696571Y-68918793D02*
X50896571Y-68918793D01*
X50896571Y-68499745D02*
X51696571Y-67966411D01*
X50896571Y-67966411D02*
X51696571Y-68499745D01*
X51696571Y-67661649D02*
X50896571Y-67661649D01*
X50896571Y-67661649D02*
X50896571Y-67471173D01*
X50896571Y-67471173D02*
X50934666Y-67356887D01*
X50934666Y-67356887D02*
X51010856Y-67280697D01*
X51010856Y-67280697D02*
X51087047Y-67242602D01*
X51087047Y-67242602D02*
X51239428Y-67204506D01*
X51239428Y-67204506D02*
X51353714Y-67204506D01*
X51353714Y-67204506D02*
X51506095Y-67242602D01*
X51506095Y-67242602D02*
X51582285Y-67280697D01*
X51582285Y-67280697D02*
X51658476Y-67356887D01*
X51658476Y-67356887D02*
X51696571Y-67471173D01*
X51696571Y-67471173D02*
X51696571Y-67661649D01*
D11*
G36*
X123376075Y-62014119D02*
G01*
X121709409Y-62014119D01*
X121709409Y-61306055D01*
X122130378Y-61306055D01*
X122130378Y-61345073D01*
X122145310Y-61381121D01*
X122172900Y-61408711D01*
X122208948Y-61423643D01*
X122228457Y-61425564D01*
X122585600Y-61425564D01*
X122585600Y-61782707D01*
X122587521Y-61802216D01*
X122602453Y-61838264D01*
X122630043Y-61865854D01*
X122666091Y-61880786D01*
X122705109Y-61880786D01*
X122741157Y-61865854D01*
X122768747Y-61838264D01*
X122783679Y-61802216D01*
X122785600Y-61782707D01*
X122785600Y-61425564D01*
X123142742Y-61425564D01*
X123162251Y-61423643D01*
X123198299Y-61408711D01*
X123225889Y-61381121D01*
X123240821Y-61345073D01*
X123240821Y-61306055D01*
X123225889Y-61270007D01*
X123198299Y-61242417D01*
X123162251Y-61227485D01*
X123142742Y-61225564D01*
X122785600Y-61225564D01*
X122785600Y-60868422D01*
X122783679Y-60848913D01*
X122768747Y-60812865D01*
X122741157Y-60785275D01*
X122705109Y-60770343D01*
X122666091Y-60770343D01*
X122630043Y-60785275D01*
X122602453Y-60812865D01*
X122587521Y-60848913D01*
X122585600Y-60868422D01*
X122585600Y-61225564D01*
X122228457Y-61225564D01*
X122208948Y-61227485D01*
X122172900Y-61242417D01*
X122145310Y-61270007D01*
X122130378Y-61306055D01*
X121709409Y-61306055D01*
X121709409Y-59725565D01*
X121842742Y-59725565D01*
X121842742Y-60296993D01*
X121843452Y-60304209D01*
X121843209Y-60306646D01*
X121843926Y-60309024D01*
X121844663Y-60316502D01*
X121850259Y-60330011D01*
X121854480Y-60344001D01*
X121857667Y-60347897D01*
X121859595Y-60352550D01*
X121869931Y-60362886D01*
X121879187Y-60374199D01*
X121883624Y-60376579D01*
X121887185Y-60380140D01*
X121900690Y-60385734D01*
X121913571Y-60392644D01*
X121920935Y-60394120D01*
X121923233Y-60395072D01*
X121925683Y-60395072D01*
X121932792Y-60396497D01*
X122504221Y-60453640D01*
X122523824Y-60453669D01*
X122528646Y-60452214D01*
X122533680Y-60452214D01*
X122547184Y-60446620D01*
X122561179Y-60442398D01*
X122565075Y-60439210D01*
X122569728Y-60437283D01*
X122580064Y-60426946D01*
X122591377Y-60417691D01*
X122593757Y-60413253D01*
X122597318Y-60409693D01*
X122602910Y-60396190D01*
X122609822Y-60383307D01*
X122610323Y-60378294D01*
X122612249Y-60373645D01*
X122612249Y-60359034D01*
X122613704Y-60344483D01*
X122612249Y-60339660D01*
X122612249Y-60334627D01*
X122606655Y-60321121D01*
X122602433Y-60307128D01*
X122599245Y-60303232D01*
X122597318Y-60298578D01*
X122584881Y-60283425D01*
X122539213Y-60237756D01*
X122499885Y-60159100D01*
X122499885Y-59920601D01*
X122539213Y-59841944D01*
X122573406Y-59807750D01*
X122652065Y-59768422D01*
X122890564Y-59768422D01*
X122969220Y-59807750D01*
X123003414Y-59841943D01*
X123042742Y-59920599D01*
X123042742Y-60159101D01*
X123003414Y-60237757D01*
X122957746Y-60283425D01*
X122945310Y-60298579D01*
X122930378Y-60334627D01*
X122930378Y-60373645D01*
X122945310Y-60409693D01*
X122972900Y-60437283D01*
X123008948Y-60452215D01*
X123047966Y-60452215D01*
X123084014Y-60437283D01*
X123099168Y-60424847D01*
X123156310Y-60367704D01*
X123162605Y-60360034D01*
X123164600Y-60358304D01*
X123166491Y-60355298D01*
X123168747Y-60352551D01*
X123169758Y-60350109D01*
X123175043Y-60341714D01*
X123232185Y-60227429D01*
X123239191Y-60209121D01*
X123239445Y-60205537D01*
X123240821Y-60202217D01*
X123242742Y-60182708D01*
X123242742Y-59896993D01*
X123240821Y-59877484D01*
X123239445Y-59874163D01*
X123239191Y-59870580D01*
X123232185Y-59852272D01*
X123175043Y-59737987D01*
X123169758Y-59729591D01*
X123168747Y-59727150D01*
X123166491Y-59724402D01*
X123164600Y-59721397D01*
X123162605Y-59719666D01*
X123156310Y-59711997D01*
X123099168Y-59654854D01*
X123091501Y-59648562D01*
X123089769Y-59646565D01*
X123086757Y-59644669D01*
X123084014Y-59642418D01*
X123081577Y-59641408D01*
X123073179Y-59636122D01*
X122958892Y-59578979D01*
X122940584Y-59571973D01*
X122937000Y-59571718D01*
X122933680Y-59570343D01*
X122914171Y-59568422D01*
X122628457Y-59568422D01*
X122608948Y-59570343D01*
X122605627Y-59571718D01*
X122602044Y-59571973D01*
X122583736Y-59578979D01*
X122469450Y-59636122D01*
X122461053Y-59641407D01*
X122458613Y-59642418D01*
X122455867Y-59644671D01*
X122452859Y-59646565D01*
X122451126Y-59648562D01*
X122443460Y-59654855D01*
X122386317Y-59711997D01*
X122380025Y-59719663D01*
X122378028Y-59721396D01*
X122376132Y-59724407D01*
X122373881Y-59727151D01*
X122372870Y-59729589D01*
X122367586Y-59737986D01*
X122310442Y-59852271D01*
X122303436Y-59870580D01*
X122303181Y-59874163D01*
X122301806Y-59877484D01*
X122299885Y-59896993D01*
X122299885Y-60182708D01*
X122301806Y-60202217D01*
X122303181Y-60205537D01*
X122303436Y-60209121D01*
X122310442Y-60227430D01*
X122313512Y-60233571D01*
X122042742Y-60206494D01*
X122042742Y-59725565D01*
X122040821Y-59706056D01*
X122025889Y-59670008D01*
X121998299Y-59642418D01*
X121962251Y-59627486D01*
X121923233Y-59627486D01*
X121887185Y-59642418D01*
X121859595Y-59670008D01*
X121844663Y-59706056D01*
X121842742Y-59725565D01*
X121709409Y-59725565D01*
X121709409Y-58513058D01*
X121843527Y-58513058D01*
X121846293Y-58551978D01*
X121863743Y-58586877D01*
X121893219Y-58612442D01*
X121911119Y-58620433D01*
X122826515Y-58925565D01*
X121911119Y-59230697D01*
X121893219Y-59238688D01*
X121863743Y-59264253D01*
X121846293Y-59299152D01*
X121843527Y-59338072D01*
X121855865Y-59375088D01*
X121881430Y-59404564D01*
X121916329Y-59422014D01*
X121955249Y-59424780D01*
X121974365Y-59420433D01*
X123174365Y-59020433D01*
X123192265Y-59012442D01*
X123197665Y-59007757D01*
X123204053Y-59004564D01*
X123212266Y-58995094D01*
X123221741Y-58986877D01*
X123224935Y-58980487D01*
X123229619Y-58975088D01*
X123233584Y-58963190D01*
X123239191Y-58951978D01*
X123239697Y-58944850D01*
X123241957Y-58938072D01*
X123241068Y-58925565D01*
X123241957Y-58913058D01*
X123239697Y-58906279D01*
X123239191Y-58899152D01*
X123233584Y-58887939D01*
X123229619Y-58876042D01*
X123224935Y-58870642D01*
X123221741Y-58864253D01*
X123212266Y-58856035D01*
X123204053Y-58846566D01*
X123197665Y-58843372D01*
X123192265Y-58838688D01*
X123174365Y-58830697D01*
X121974365Y-58430697D01*
X121955249Y-58426350D01*
X121916329Y-58429116D01*
X121881430Y-58446566D01*
X121855865Y-58476042D01*
X121843527Y-58513058D01*
X121709409Y-58513058D01*
X121709409Y-58293017D01*
X123376075Y-58293017D01*
X123376075Y-62014119D01*
G37*
D10*
X100887809Y-76780395D02*
X101383047Y-76780395D01*
X101383047Y-76780395D02*
X101116381Y-77085157D01*
X101116381Y-77085157D02*
X101230666Y-77085157D01*
X101230666Y-77085157D02*
X101306857Y-77123252D01*
X101306857Y-77123252D02*
X101344952Y-77161347D01*
X101344952Y-77161347D02*
X101383047Y-77237538D01*
X101383047Y-77237538D02*
X101383047Y-77428014D01*
X101383047Y-77428014D02*
X101344952Y-77504204D01*
X101344952Y-77504204D02*
X101306857Y-77542300D01*
X101306857Y-77542300D02*
X101230666Y-77580395D01*
X101230666Y-77580395D02*
X101002095Y-77580395D01*
X101002095Y-77580395D02*
X100925904Y-77542300D01*
X100925904Y-77542300D02*
X100887809Y-77504204D01*
X101611619Y-76780395D02*
X101878286Y-77580395D01*
X101878286Y-77580395D02*
X102144952Y-76780395D01*
X102335428Y-76780395D02*
X102830666Y-76780395D01*
X102830666Y-76780395D02*
X102564000Y-77085157D01*
X102564000Y-77085157D02*
X102678285Y-77085157D01*
X102678285Y-77085157D02*
X102754476Y-77123252D01*
X102754476Y-77123252D02*
X102792571Y-77161347D01*
X102792571Y-77161347D02*
X102830666Y-77237538D01*
X102830666Y-77237538D02*
X102830666Y-77428014D01*
X102830666Y-77428014D02*
X102792571Y-77504204D01*
X102792571Y-77504204D02*
X102754476Y-77542300D01*
X102754476Y-77542300D02*
X102678285Y-77580395D01*
X102678285Y-77580395D02*
X102449714Y-77580395D01*
X102449714Y-77580395D02*
X102373523Y-77542300D01*
X102373523Y-77542300D02*
X102335428Y-77504204D01*
X50896571Y-81609269D02*
X50896571Y-81114031D01*
X50896571Y-81114031D02*
X51201333Y-81380697D01*
X51201333Y-81380697D02*
X51201333Y-81266412D01*
X51201333Y-81266412D02*
X51239428Y-81190221D01*
X51239428Y-81190221D02*
X51277523Y-81152126D01*
X51277523Y-81152126D02*
X51353714Y-81114031D01*
X51353714Y-81114031D02*
X51544190Y-81114031D01*
X51544190Y-81114031D02*
X51620380Y-81152126D01*
X51620380Y-81152126D02*
X51658476Y-81190221D01*
X51658476Y-81190221D02*
X51696571Y-81266412D01*
X51696571Y-81266412D02*
X51696571Y-81494983D01*
X51696571Y-81494983D02*
X51658476Y-81571174D01*
X51658476Y-81571174D02*
X51620380Y-81609269D01*
X50896571Y-80847364D02*
X50896571Y-80314030D01*
X50896571Y-80314030D02*
X51696571Y-80656888D01*
G36*
X101558854Y-65023592D02*
G01*
X100765837Y-65023592D01*
X100765837Y-64417560D01*
X100854726Y-64417560D01*
X100854726Y-64531846D01*
X100856160Y-64539057D01*
X100856518Y-64546398D01*
X100894614Y-64698779D01*
X100897419Y-64704718D01*
X100899156Y-64711060D01*
X100937251Y-64787250D01*
X100943146Y-64794846D01*
X100948490Y-64802843D01*
X101024681Y-64879034D01*
X101027178Y-64880702D01*
X101027795Y-64881936D01*
X101036156Y-64886702D01*
X101044146Y-64892041D01*
X101045523Y-64892041D01*
X101048133Y-64893529D01*
X101162420Y-64931624D01*
X101171958Y-64932826D01*
X101181393Y-64934703D01*
X101257584Y-64934703D01*
X101267017Y-64932826D01*
X101276558Y-64931624D01*
X101390843Y-64893529D01*
X101393453Y-64892041D01*
X101394830Y-64892041D01*
X101402825Y-64886698D01*
X101411181Y-64881935D01*
X101411796Y-64880703D01*
X101414295Y-64879034D01*
X101452391Y-64840938D01*
X101465398Y-64821473D01*
X101469965Y-64798512D01*
X101469965Y-64531846D01*
X101465398Y-64508885D01*
X101432926Y-64476413D01*
X101409965Y-64471846D01*
X101257584Y-64471846D01*
X101234623Y-64476413D01*
X101202151Y-64508885D01*
X101202151Y-64554807D01*
X101234623Y-64587279D01*
X101257584Y-64591846D01*
X101349965Y-64591846D01*
X101349965Y-64773660D01*
X101339459Y-64784165D01*
X101247847Y-64814703D01*
X101191130Y-64814703D01*
X101099518Y-64784166D01*
X101040229Y-64724876D01*
X101009433Y-64663284D01*
X100974726Y-64524461D01*
X100974726Y-64424944D01*
X101009433Y-64286120D01*
X101040229Y-64224527D01*
X101099516Y-64165240D01*
X101191130Y-64134703D01*
X101281514Y-64134703D01*
X101345036Y-64166464D01*
X101367616Y-64172647D01*
X101411181Y-64158125D01*
X101431718Y-64117051D01*
X101417196Y-64073486D01*
X101398702Y-64059132D01*
X101322512Y-64021037D01*
X101319613Y-64020243D01*
X101318640Y-64019270D01*
X101309207Y-64017393D01*
X101299932Y-64014854D01*
X101298626Y-64015289D01*
X101295679Y-64014703D01*
X101181393Y-64014703D01*
X101171958Y-64016579D01*
X101162420Y-64017782D01*
X101048133Y-64055877D01*
X101045523Y-64057365D01*
X101044146Y-64057365D01*
X101036156Y-64062703D01*
X101027795Y-64067470D01*
X101027178Y-64068703D01*
X101024681Y-64070372D01*
X100948491Y-64146562D01*
X100943153Y-64154549D01*
X100937251Y-64162155D01*
X100899156Y-64238346D01*
X100897419Y-64244687D01*
X100894614Y-64250627D01*
X100856518Y-64403008D01*
X100856160Y-64410348D01*
X100854726Y-64417560D01*
X100765837Y-64417560D01*
X100765837Y-63925814D01*
X101558854Y-63925814D01*
X101558854Y-65023592D01*
G37*
D11*
X107626749Y-79026228D02*
X107855321Y-79026228D01*
X107855321Y-79026228D02*
X107969606Y-79083371D01*
X107969606Y-79083371D02*
X108083892Y-79197657D01*
X108083892Y-79197657D02*
X108141035Y-79426228D01*
X108141035Y-79426228D02*
X108141035Y-79826228D01*
X108141035Y-79826228D02*
X108083892Y-80054800D01*
X108083892Y-80054800D02*
X107969606Y-80169086D01*
X107969606Y-80169086D02*
X107855321Y-80226228D01*
X107855321Y-80226228D02*
X107626749Y-80226228D01*
X107626749Y-80226228D02*
X107512464Y-80169086D01*
X107512464Y-80169086D02*
X107398178Y-80054800D01*
X107398178Y-80054800D02*
X107341035Y-79826228D01*
X107341035Y-79826228D02*
X107341035Y-79426228D01*
X107341035Y-79426228D02*
X107398178Y-79197657D01*
X107398178Y-79197657D02*
X107512464Y-79083371D01*
X107512464Y-79083371D02*
X107626749Y-79026228D01*
X109226749Y-80226228D02*
X108655321Y-80226228D01*
X108655321Y-80226228D02*
X108655321Y-79026228D01*
X109626750Y-79597657D02*
X110026750Y-79597657D01*
X110198178Y-80226228D02*
X109626750Y-80226228D01*
X109626750Y-80226228D02*
X109626750Y-79026228D01*
X109626750Y-79026228D02*
X110198178Y-79026228D01*
X110712464Y-80226228D02*
X110712464Y-79026228D01*
X110712464Y-79026228D02*
X110998178Y-79026228D01*
X110998178Y-79026228D02*
X111169607Y-79083371D01*
X111169607Y-79083371D02*
X111283892Y-79197657D01*
X111283892Y-79197657D02*
X111341035Y-79311943D01*
X111341035Y-79311943D02*
X111398178Y-79540514D01*
X111398178Y-79540514D02*
X111398178Y-79711943D01*
X111398178Y-79711943D02*
X111341035Y-79940514D01*
X111341035Y-79940514D02*
X111283892Y-80054800D01*
X111283892Y-80054800D02*
X111169607Y-80169086D01*
X111169607Y-80169086D02*
X110998178Y-80226228D01*
X110998178Y-80226228D02*
X110712464Y-80226228D01*
X109985302Y-71435552D02*
X109413874Y-71435552D01*
X109413874Y-71435552D02*
X109413874Y-70235552D01*
X110328160Y-71092695D02*
X110899589Y-71092695D01*
X110213874Y-71435552D02*
X110613874Y-70235552D01*
X110613874Y-70235552D02*
X111013874Y-71435552D01*
X111356731Y-71378410D02*
X111528160Y-71435552D01*
X111528160Y-71435552D02*
X111813874Y-71435552D01*
X111813874Y-71435552D02*
X111928160Y-71378410D01*
X111928160Y-71378410D02*
X111985302Y-71321267D01*
X111985302Y-71321267D02*
X112042445Y-71206981D01*
X112042445Y-71206981D02*
X112042445Y-71092695D01*
X112042445Y-71092695D02*
X111985302Y-70978410D01*
X111985302Y-70978410D02*
X111928160Y-70921267D01*
X111928160Y-70921267D02*
X111813874Y-70864124D01*
X111813874Y-70864124D02*
X111585302Y-70806981D01*
X111585302Y-70806981D02*
X111471017Y-70749838D01*
X111471017Y-70749838D02*
X111413874Y-70692695D01*
X111413874Y-70692695D02*
X111356731Y-70578410D01*
X111356731Y-70578410D02*
X111356731Y-70464124D01*
X111356731Y-70464124D02*
X111413874Y-70349838D01*
X111413874Y-70349838D02*
X111471017Y-70292695D01*
X111471017Y-70292695D02*
X111585302Y-70235552D01*
X111585302Y-70235552D02*
X111871017Y-70235552D01*
X111871017Y-70235552D02*
X112042445Y-70292695D01*
X112556731Y-70806981D02*
X112956731Y-70806981D01*
X113128159Y-71435552D02*
X112556731Y-71435552D01*
X112556731Y-71435552D02*
X112556731Y-70235552D01*
X112556731Y-70235552D02*
X113128159Y-70235552D01*
X114328159Y-71435552D02*
X113928159Y-70864124D01*
X113642445Y-71435552D02*
X113642445Y-70235552D01*
X113642445Y-70235552D02*
X114099588Y-70235552D01*
X114099588Y-70235552D02*
X114213873Y-70292695D01*
X114213873Y-70292695D02*
X114271016Y-70349838D01*
X114271016Y-70349838D02*
X114328159Y-70464124D01*
X114328159Y-70464124D02*
X114328159Y-70635552D01*
X114328159Y-70635552D02*
X114271016Y-70749838D01*
X114271016Y-70749838D02*
X114213873Y-70806981D01*
X114213873Y-70806981D02*
X114099588Y-70864124D01*
X114099588Y-70864124D02*
X113642445Y-70864124D01*
X58031287Y-74793666D02*
X57459859Y-75193666D01*
X58031287Y-75479380D02*
X56831287Y-75479380D01*
X56831287Y-75479380D02*
X56831287Y-75022237D01*
X56831287Y-75022237D02*
X56888430Y-74907952D01*
X56888430Y-74907952D02*
X56945573Y-74850809D01*
X56945573Y-74850809D02*
X57059859Y-74793666D01*
X57059859Y-74793666D02*
X57231287Y-74793666D01*
X57231287Y-74793666D02*
X57345573Y-74850809D01*
X57345573Y-74850809D02*
X57402716Y-74907952D01*
X57402716Y-74907952D02*
X57459859Y-75022237D01*
X57459859Y-75022237D02*
X57459859Y-75479380D01*
X57402716Y-74279380D02*
X57402716Y-73879380D01*
X58031287Y-73707952D02*
X58031287Y-74279380D01*
X58031287Y-74279380D02*
X56831287Y-74279380D01*
X56831287Y-74279380D02*
X56831287Y-73707952D01*
X57974145Y-73250809D02*
X58031287Y-73079381D01*
X58031287Y-73079381D02*
X58031287Y-72793666D01*
X58031287Y-72793666D02*
X57974145Y-72679381D01*
X57974145Y-72679381D02*
X57917002Y-72622238D01*
X57917002Y-72622238D02*
X57802716Y-72565095D01*
X57802716Y-72565095D02*
X57688430Y-72565095D01*
X57688430Y-72565095D02*
X57574145Y-72622238D01*
X57574145Y-72622238D02*
X57517002Y-72679381D01*
X57517002Y-72679381D02*
X57459859Y-72793666D01*
X57459859Y-72793666D02*
X57402716Y-73022238D01*
X57402716Y-73022238D02*
X57345573Y-73136523D01*
X57345573Y-73136523D02*
X57288430Y-73193666D01*
X57288430Y-73193666D02*
X57174145Y-73250809D01*
X57174145Y-73250809D02*
X57059859Y-73250809D01*
X57059859Y-73250809D02*
X56945573Y-73193666D01*
X56945573Y-73193666D02*
X56888430Y-73136523D01*
X56888430Y-73136523D02*
X56831287Y-73022238D01*
X56831287Y-73022238D02*
X56831287Y-72736523D01*
X56831287Y-72736523D02*
X56888430Y-72565095D01*
X57402716Y-72050809D02*
X57402716Y-71650809D01*
X58031287Y-71479381D02*
X58031287Y-72050809D01*
X58031287Y-72050809D02*
X56831287Y-72050809D01*
X56831287Y-72050809D02*
X56831287Y-71479381D01*
X56831287Y-71136524D02*
X56831287Y-70450810D01*
X58031287Y-70793667D02*
X56831287Y-70793667D01*
D10*
X50996571Y-86909269D02*
X50996571Y-86414031D01*
X50996571Y-86414031D02*
X51301333Y-86680697D01*
X51301333Y-86680697D02*
X51301333Y-86566412D01*
X51301333Y-86566412D02*
X51339428Y-86490221D01*
X51339428Y-86490221D02*
X51377523Y-86452126D01*
X51377523Y-86452126D02*
X51453714Y-86414031D01*
X51453714Y-86414031D02*
X51644190Y-86414031D01*
X51644190Y-86414031D02*
X51720380Y-86452126D01*
X51720380Y-86452126D02*
X51758476Y-86490221D01*
X51758476Y-86490221D02*
X51796571Y-86566412D01*
X51796571Y-86566412D02*
X51796571Y-86794983D01*
X51796571Y-86794983D02*
X51758476Y-86871174D01*
X51758476Y-86871174D02*
X51720380Y-86909269D01*
X50996571Y-85690221D02*
X50996571Y-86071173D01*
X50996571Y-86071173D02*
X51377523Y-86109269D01*
X51377523Y-86109269D02*
X51339428Y-86071173D01*
X51339428Y-86071173D02*
X51301333Y-85994983D01*
X51301333Y-85994983D02*
X51301333Y-85804507D01*
X51301333Y-85804507D02*
X51339428Y-85728316D01*
X51339428Y-85728316D02*
X51377523Y-85690221D01*
X51377523Y-85690221D02*
X51453714Y-85652126D01*
X51453714Y-85652126D02*
X51644190Y-85652126D01*
X51644190Y-85652126D02*
X51720380Y-85690221D01*
X51720380Y-85690221D02*
X51758476Y-85728316D01*
X51758476Y-85728316D02*
X51796571Y-85804507D01*
X51796571Y-85804507D02*
X51796571Y-85994983D01*
X51796571Y-85994983D02*
X51758476Y-86071173D01*
X51758476Y-86071173D02*
X51720380Y-86109269D01*
D12*
X58862295Y-94233332D02*
X58481342Y-94499999D01*
X58862295Y-94690475D02*
X58062295Y-94690475D01*
X58062295Y-94690475D02*
X58062295Y-94385713D01*
X58062295Y-94385713D02*
X58100390Y-94309523D01*
X58100390Y-94309523D02*
X58138485Y-94271428D01*
X58138485Y-94271428D02*
X58214676Y-94233332D01*
X58214676Y-94233332D02*
X58328961Y-94233332D01*
X58328961Y-94233332D02*
X58405152Y-94271428D01*
X58405152Y-94271428D02*
X58443247Y-94309523D01*
X58443247Y-94309523D02*
X58481342Y-94385713D01*
X58481342Y-94385713D02*
X58481342Y-94690475D01*
X58062295Y-93966666D02*
X58062295Y-93433332D01*
X58062295Y-93433332D02*
X58862295Y-93776190D01*
X64786104Y-83208332D02*
X64824200Y-83246428D01*
X64824200Y-83246428D02*
X64862295Y-83360713D01*
X64862295Y-83360713D02*
X64862295Y-83436904D01*
X64862295Y-83436904D02*
X64824200Y-83551190D01*
X64824200Y-83551190D02*
X64748009Y-83627380D01*
X64748009Y-83627380D02*
X64671819Y-83665475D01*
X64671819Y-83665475D02*
X64519438Y-83703571D01*
X64519438Y-83703571D02*
X64405152Y-83703571D01*
X64405152Y-83703571D02*
X64252771Y-83665475D01*
X64252771Y-83665475D02*
X64176580Y-83627380D01*
X64176580Y-83627380D02*
X64100390Y-83551190D01*
X64100390Y-83551190D02*
X64062295Y-83436904D01*
X64062295Y-83436904D02*
X64062295Y-83360713D01*
X64062295Y-83360713D02*
X64100390Y-83246428D01*
X64100390Y-83246428D02*
X64138485Y-83208332D01*
X64862295Y-82827380D02*
X64862295Y-82674999D01*
X64862295Y-82674999D02*
X64824200Y-82598809D01*
X64824200Y-82598809D02*
X64786104Y-82560713D01*
X64786104Y-82560713D02*
X64671819Y-82484523D01*
X64671819Y-82484523D02*
X64519438Y-82446428D01*
X64519438Y-82446428D02*
X64214676Y-82446428D01*
X64214676Y-82446428D02*
X64138485Y-82484523D01*
X64138485Y-82484523D02*
X64100390Y-82522618D01*
X64100390Y-82522618D02*
X64062295Y-82598809D01*
X64062295Y-82598809D02*
X64062295Y-82751190D01*
X64062295Y-82751190D02*
X64100390Y-82827380D01*
X64100390Y-82827380D02*
X64138485Y-82865475D01*
X64138485Y-82865475D02*
X64214676Y-82903571D01*
X64214676Y-82903571D02*
X64405152Y-82903571D01*
X64405152Y-82903571D02*
X64481342Y-82865475D01*
X64481342Y-82865475D02*
X64519438Y-82827380D01*
X64519438Y-82827380D02*
X64557533Y-82751190D01*
X64557533Y-82751190D02*
X64557533Y-82598809D01*
X64557533Y-82598809D02*
X64519438Y-82522618D01*
X64519438Y-82522618D02*
X64481342Y-82484523D01*
X64481342Y-82484523D02*
X64405152Y-82446428D01*
X66059524Y-92412295D02*
X66059524Y-91612295D01*
X66059524Y-91612295D02*
X66250000Y-91612295D01*
X66250000Y-91612295D02*
X66364286Y-91650390D01*
X66364286Y-91650390D02*
X66440476Y-91726580D01*
X66440476Y-91726580D02*
X66478571Y-91802771D01*
X66478571Y-91802771D02*
X66516667Y-91955152D01*
X66516667Y-91955152D02*
X66516667Y-92069438D01*
X66516667Y-92069438D02*
X66478571Y-92221819D01*
X66478571Y-92221819D02*
X66440476Y-92298009D01*
X66440476Y-92298009D02*
X66364286Y-92374200D01*
X66364286Y-92374200D02*
X66250000Y-92412295D01*
X66250000Y-92412295D02*
X66059524Y-92412295D01*
X67278571Y-92412295D02*
X66821428Y-92412295D01*
X67050000Y-92412295D02*
X67050000Y-91612295D01*
X67050000Y-91612295D02*
X66973809Y-91726580D01*
X66973809Y-91726580D02*
X66897619Y-91802771D01*
X66897619Y-91802771D02*
X66821428Y-91840866D01*
X57562295Y-92490475D02*
X56762295Y-92490475D01*
X56762295Y-92490475D02*
X56762295Y-92299999D01*
X56762295Y-92299999D02*
X56800390Y-92185713D01*
X56800390Y-92185713D02*
X56876580Y-92109523D01*
X56876580Y-92109523D02*
X56952771Y-92071428D01*
X56952771Y-92071428D02*
X57105152Y-92033332D01*
X57105152Y-92033332D02*
X57219438Y-92033332D01*
X57219438Y-92033332D02*
X57371819Y-92071428D01*
X57371819Y-92071428D02*
X57448009Y-92109523D01*
X57448009Y-92109523D02*
X57524200Y-92185713D01*
X57524200Y-92185713D02*
X57562295Y-92299999D01*
X57562295Y-92299999D02*
X57562295Y-92490475D01*
X56838485Y-91728571D02*
X56800390Y-91690475D01*
X56800390Y-91690475D02*
X56762295Y-91614285D01*
X56762295Y-91614285D02*
X56762295Y-91423809D01*
X56762295Y-91423809D02*
X56800390Y-91347618D01*
X56800390Y-91347618D02*
X56838485Y-91309523D01*
X56838485Y-91309523D02*
X56914676Y-91271428D01*
X56914676Y-91271428D02*
X56990866Y-91271428D01*
X56990866Y-91271428D02*
X57105152Y-91309523D01*
X57105152Y-91309523D02*
X57562295Y-91766666D01*
X57562295Y-91766666D02*
X57562295Y-91271428D01*
X64886104Y-89833332D02*
X64924200Y-89871428D01*
X64924200Y-89871428D02*
X64962295Y-89985713D01*
X64962295Y-89985713D02*
X64962295Y-90061904D01*
X64962295Y-90061904D02*
X64924200Y-90176190D01*
X64924200Y-90176190D02*
X64848009Y-90252380D01*
X64848009Y-90252380D02*
X64771819Y-90290475D01*
X64771819Y-90290475D02*
X64619438Y-90328571D01*
X64619438Y-90328571D02*
X64505152Y-90328571D01*
X64505152Y-90328571D02*
X64352771Y-90290475D01*
X64352771Y-90290475D02*
X64276580Y-90252380D01*
X64276580Y-90252380D02*
X64200390Y-90176190D01*
X64200390Y-90176190D02*
X64162295Y-90061904D01*
X64162295Y-90061904D02*
X64162295Y-89985713D01*
X64162295Y-89985713D02*
X64200390Y-89871428D01*
X64200390Y-89871428D02*
X64238485Y-89833332D01*
X64238485Y-89528571D02*
X64200390Y-89490475D01*
X64200390Y-89490475D02*
X64162295Y-89414285D01*
X64162295Y-89414285D02*
X64162295Y-89223809D01*
X64162295Y-89223809D02*
X64200390Y-89147618D01*
X64200390Y-89147618D02*
X64238485Y-89109523D01*
X64238485Y-89109523D02*
X64314676Y-89071428D01*
X64314676Y-89071428D02*
X64390866Y-89071428D01*
X64390866Y-89071428D02*
X64505152Y-89109523D01*
X64505152Y-89109523D02*
X64962295Y-89566666D01*
X64962295Y-89566666D02*
X64962295Y-89071428D01*
X71271307Y-77258263D02*
X71309403Y-77296359D01*
X71309403Y-77296359D02*
X71347498Y-77410644D01*
X71347498Y-77410644D02*
X71347498Y-77486835D01*
X71347498Y-77486835D02*
X71309403Y-77601121D01*
X71309403Y-77601121D02*
X71233212Y-77677311D01*
X71233212Y-77677311D02*
X71157022Y-77715406D01*
X71157022Y-77715406D02*
X71004641Y-77753502D01*
X71004641Y-77753502D02*
X70890355Y-77753502D01*
X70890355Y-77753502D02*
X70737974Y-77715406D01*
X70737974Y-77715406D02*
X70661783Y-77677311D01*
X70661783Y-77677311D02*
X70585593Y-77601121D01*
X70585593Y-77601121D02*
X70547498Y-77486835D01*
X70547498Y-77486835D02*
X70547498Y-77410644D01*
X70547498Y-77410644D02*
X70585593Y-77296359D01*
X70585593Y-77296359D02*
X70623688Y-77258263D01*
X70547498Y-76572549D02*
X70547498Y-76724930D01*
X70547498Y-76724930D02*
X70585593Y-76801121D01*
X70585593Y-76801121D02*
X70623688Y-76839216D01*
X70623688Y-76839216D02*
X70737974Y-76915406D01*
X70737974Y-76915406D02*
X70890355Y-76953502D01*
X70890355Y-76953502D02*
X71195117Y-76953502D01*
X71195117Y-76953502D02*
X71271307Y-76915406D01*
X71271307Y-76915406D02*
X71309403Y-76877311D01*
X71309403Y-76877311D02*
X71347498Y-76801121D01*
X71347498Y-76801121D02*
X71347498Y-76648740D01*
X71347498Y-76648740D02*
X71309403Y-76572549D01*
X71309403Y-76572549D02*
X71271307Y-76534454D01*
X71271307Y-76534454D02*
X71195117Y-76496359D01*
X71195117Y-76496359D02*
X71004641Y-76496359D01*
X71004641Y-76496359D02*
X70928450Y-76534454D01*
X70928450Y-76534454D02*
X70890355Y-76572549D01*
X70890355Y-76572549D02*
X70852260Y-76648740D01*
X70852260Y-76648740D02*
X70852260Y-76801121D01*
X70852260Y-76801121D02*
X70890355Y-76877311D01*
X70890355Y-76877311D02*
X70928450Y-76915406D01*
X70928450Y-76915406D02*
X71004641Y-76953502D01*
X60662295Y-94690475D02*
X59862295Y-94690475D01*
X59862295Y-94690475D02*
X59862295Y-94499999D01*
X59862295Y-94499999D02*
X59900390Y-94385713D01*
X59900390Y-94385713D02*
X59976580Y-94309523D01*
X59976580Y-94309523D02*
X60052771Y-94271428D01*
X60052771Y-94271428D02*
X60205152Y-94233332D01*
X60205152Y-94233332D02*
X60319438Y-94233332D01*
X60319438Y-94233332D02*
X60471819Y-94271428D01*
X60471819Y-94271428D02*
X60548009Y-94309523D01*
X60548009Y-94309523D02*
X60624200Y-94385713D01*
X60624200Y-94385713D02*
X60662295Y-94499999D01*
X60662295Y-94499999D02*
X60662295Y-94690475D01*
X59862295Y-93509523D02*
X59862295Y-93890475D01*
X59862295Y-93890475D02*
X60243247Y-93928571D01*
X60243247Y-93928571D02*
X60205152Y-93890475D01*
X60205152Y-93890475D02*
X60167057Y-93814285D01*
X60167057Y-93814285D02*
X60167057Y-93623809D01*
X60167057Y-93623809D02*
X60205152Y-93547618D01*
X60205152Y-93547618D02*
X60243247Y-93509523D01*
X60243247Y-93509523D02*
X60319438Y-93471428D01*
X60319438Y-93471428D02*
X60509914Y-93471428D01*
X60509914Y-93471428D02*
X60586104Y-93509523D01*
X60586104Y-93509523D02*
X60624200Y-93547618D01*
X60624200Y-93547618D02*
X60662295Y-93623809D01*
X60662295Y-93623809D02*
X60662295Y-93814285D01*
X60662295Y-93814285D02*
X60624200Y-93890475D01*
X60624200Y-93890475D02*
X60586104Y-93928571D01*
X73176239Y-77261368D02*
X73214335Y-77299464D01*
X73214335Y-77299464D02*
X73252430Y-77413749D01*
X73252430Y-77413749D02*
X73252430Y-77489940D01*
X73252430Y-77489940D02*
X73214335Y-77604226D01*
X73214335Y-77604226D02*
X73138144Y-77680416D01*
X73138144Y-77680416D02*
X73061954Y-77718511D01*
X73061954Y-77718511D02*
X72909573Y-77756607D01*
X72909573Y-77756607D02*
X72795287Y-77756607D01*
X72795287Y-77756607D02*
X72642906Y-77718511D01*
X72642906Y-77718511D02*
X72566715Y-77680416D01*
X72566715Y-77680416D02*
X72490525Y-77604226D01*
X72490525Y-77604226D02*
X72452430Y-77489940D01*
X72452430Y-77489940D02*
X72452430Y-77413749D01*
X72452430Y-77413749D02*
X72490525Y-77299464D01*
X72490525Y-77299464D02*
X72528620Y-77261368D01*
X72452430Y-76537559D02*
X72452430Y-76918511D01*
X72452430Y-76918511D02*
X72833382Y-76956607D01*
X72833382Y-76956607D02*
X72795287Y-76918511D01*
X72795287Y-76918511D02*
X72757192Y-76842321D01*
X72757192Y-76842321D02*
X72757192Y-76651845D01*
X72757192Y-76651845D02*
X72795287Y-76575654D01*
X72795287Y-76575654D02*
X72833382Y-76537559D01*
X72833382Y-76537559D02*
X72909573Y-76499464D01*
X72909573Y-76499464D02*
X73100049Y-76499464D01*
X73100049Y-76499464D02*
X73176239Y-76537559D01*
X73176239Y-76537559D02*
X73214335Y-76575654D01*
X73214335Y-76575654D02*
X73252430Y-76651845D01*
X73252430Y-76651845D02*
X73252430Y-76842321D01*
X73252430Y-76842321D02*
X73214335Y-76918511D01*
X73214335Y-76918511D02*
X73176239Y-76956607D01*
X64862295Y-78333332D02*
X64481342Y-78599999D01*
X64862295Y-78790475D02*
X64062295Y-78790475D01*
X64062295Y-78790475D02*
X64062295Y-78485713D01*
X64062295Y-78485713D02*
X64100390Y-78409523D01*
X64100390Y-78409523D02*
X64138485Y-78371428D01*
X64138485Y-78371428D02*
X64214676Y-78333332D01*
X64214676Y-78333332D02*
X64328961Y-78333332D01*
X64328961Y-78333332D02*
X64405152Y-78371428D01*
X64405152Y-78371428D02*
X64443247Y-78409523D01*
X64443247Y-78409523D02*
X64481342Y-78485713D01*
X64481342Y-78485713D02*
X64481342Y-78790475D01*
X64405152Y-77876190D02*
X64367057Y-77952380D01*
X64367057Y-77952380D02*
X64328961Y-77990475D01*
X64328961Y-77990475D02*
X64252771Y-78028571D01*
X64252771Y-78028571D02*
X64214676Y-78028571D01*
X64214676Y-78028571D02*
X64138485Y-77990475D01*
X64138485Y-77990475D02*
X64100390Y-77952380D01*
X64100390Y-77952380D02*
X64062295Y-77876190D01*
X64062295Y-77876190D02*
X64062295Y-77723809D01*
X64062295Y-77723809D02*
X64100390Y-77647618D01*
X64100390Y-77647618D02*
X64138485Y-77609523D01*
X64138485Y-77609523D02*
X64214676Y-77571428D01*
X64214676Y-77571428D02*
X64252771Y-77571428D01*
X64252771Y-77571428D02*
X64328961Y-77609523D01*
X64328961Y-77609523D02*
X64367057Y-77647618D01*
X64367057Y-77647618D02*
X64405152Y-77723809D01*
X64405152Y-77723809D02*
X64405152Y-77876190D01*
X64405152Y-77876190D02*
X64443247Y-77952380D01*
X64443247Y-77952380D02*
X64481342Y-77990475D01*
X64481342Y-77990475D02*
X64557533Y-78028571D01*
X64557533Y-78028571D02*
X64709914Y-78028571D01*
X64709914Y-78028571D02*
X64786104Y-77990475D01*
X64786104Y-77990475D02*
X64824200Y-77952380D01*
X64824200Y-77952380D02*
X64862295Y-77876190D01*
X64862295Y-77876190D02*
X64862295Y-77723809D01*
X64862295Y-77723809D02*
X64824200Y-77647618D01*
X64824200Y-77647618D02*
X64786104Y-77609523D01*
X64786104Y-77609523D02*
X64709914Y-77571428D01*
X64709914Y-77571428D02*
X64557533Y-77571428D01*
X64557533Y-77571428D02*
X64481342Y-77609523D01*
X64481342Y-77609523D02*
X64443247Y-77647618D01*
X64443247Y-77647618D02*
X64405152Y-77723809D01*
X64066667Y-94136104D02*
X64028571Y-94174200D01*
X64028571Y-94174200D02*
X63914286Y-94212295D01*
X63914286Y-94212295D02*
X63838095Y-94212295D01*
X63838095Y-94212295D02*
X63723809Y-94174200D01*
X63723809Y-94174200D02*
X63647619Y-94098009D01*
X63647619Y-94098009D02*
X63609524Y-94021819D01*
X63609524Y-94021819D02*
X63571428Y-93869438D01*
X63571428Y-93869438D02*
X63571428Y-93755152D01*
X63571428Y-93755152D02*
X63609524Y-93602771D01*
X63609524Y-93602771D02*
X63647619Y-93526580D01*
X63647619Y-93526580D02*
X63723809Y-93450390D01*
X63723809Y-93450390D02*
X63838095Y-93412295D01*
X63838095Y-93412295D02*
X63914286Y-93412295D01*
X63914286Y-93412295D02*
X64028571Y-93450390D01*
X64028571Y-93450390D02*
X64066667Y-93488485D01*
X64828571Y-94212295D02*
X64371428Y-94212295D01*
X64600000Y-94212295D02*
X64600000Y-93412295D01*
X64600000Y-93412295D02*
X64523809Y-93526580D01*
X64523809Y-93526580D02*
X64447619Y-93602771D01*
X64447619Y-93602771D02*
X64371428Y-93640866D01*
X64962295Y-73133332D02*
X64581342Y-73399999D01*
X64962295Y-73590475D02*
X64162295Y-73590475D01*
X64162295Y-73590475D02*
X64162295Y-73285713D01*
X64162295Y-73285713D02*
X64200390Y-73209523D01*
X64200390Y-73209523D02*
X64238485Y-73171428D01*
X64238485Y-73171428D02*
X64314676Y-73133332D01*
X64314676Y-73133332D02*
X64428961Y-73133332D01*
X64428961Y-73133332D02*
X64505152Y-73171428D01*
X64505152Y-73171428D02*
X64543247Y-73209523D01*
X64543247Y-73209523D02*
X64581342Y-73285713D01*
X64581342Y-73285713D02*
X64581342Y-73590475D01*
X64962295Y-72752380D02*
X64962295Y-72599999D01*
X64962295Y-72599999D02*
X64924200Y-72523809D01*
X64924200Y-72523809D02*
X64886104Y-72485713D01*
X64886104Y-72485713D02*
X64771819Y-72409523D01*
X64771819Y-72409523D02*
X64619438Y-72371428D01*
X64619438Y-72371428D02*
X64314676Y-72371428D01*
X64314676Y-72371428D02*
X64238485Y-72409523D01*
X64238485Y-72409523D02*
X64200390Y-72447618D01*
X64200390Y-72447618D02*
X64162295Y-72523809D01*
X64162295Y-72523809D02*
X64162295Y-72676190D01*
X64162295Y-72676190D02*
X64200390Y-72752380D01*
X64200390Y-72752380D02*
X64238485Y-72790475D01*
X64238485Y-72790475D02*
X64314676Y-72828571D01*
X64314676Y-72828571D02*
X64505152Y-72828571D01*
X64505152Y-72828571D02*
X64581342Y-72790475D01*
X64581342Y-72790475D02*
X64619438Y-72752380D01*
X64619438Y-72752380D02*
X64657533Y-72676190D01*
X64657533Y-72676190D02*
X64657533Y-72523809D01*
X64657533Y-72523809D02*
X64619438Y-72447618D01*
X64619438Y-72447618D02*
X64581342Y-72409523D01*
X64581342Y-72409523D02*
X64505152Y-72371428D01*
X68897846Y-77180958D02*
X68935942Y-77219054D01*
X68935942Y-77219054D02*
X68974037Y-77333339D01*
X68974037Y-77333339D02*
X68974037Y-77409530D01*
X68974037Y-77409530D02*
X68935942Y-77523816D01*
X68935942Y-77523816D02*
X68859751Y-77600006D01*
X68859751Y-77600006D02*
X68783561Y-77638101D01*
X68783561Y-77638101D02*
X68631180Y-77676197D01*
X68631180Y-77676197D02*
X68516894Y-77676197D01*
X68516894Y-77676197D02*
X68364513Y-77638101D01*
X68364513Y-77638101D02*
X68288322Y-77600006D01*
X68288322Y-77600006D02*
X68212132Y-77523816D01*
X68212132Y-77523816D02*
X68174037Y-77409530D01*
X68174037Y-77409530D02*
X68174037Y-77333339D01*
X68174037Y-77333339D02*
X68212132Y-77219054D01*
X68212132Y-77219054D02*
X68250227Y-77180958D01*
X68174037Y-76914292D02*
X68174037Y-76419054D01*
X68174037Y-76419054D02*
X68478799Y-76685720D01*
X68478799Y-76685720D02*
X68478799Y-76571435D01*
X68478799Y-76571435D02*
X68516894Y-76495244D01*
X68516894Y-76495244D02*
X68554989Y-76457149D01*
X68554989Y-76457149D02*
X68631180Y-76419054D01*
X68631180Y-76419054D02*
X68821656Y-76419054D01*
X68821656Y-76419054D02*
X68897846Y-76457149D01*
X68897846Y-76457149D02*
X68935942Y-76495244D01*
X68935942Y-76495244D02*
X68974037Y-76571435D01*
X68974037Y-76571435D02*
X68974037Y-76800006D01*
X68974037Y-76800006D02*
X68935942Y-76876197D01*
X68935942Y-76876197D02*
X68897846Y-76914292D01*
X66599588Y-96627644D02*
X66218635Y-96894311D01*
X66599588Y-97084787D02*
X65799588Y-97084787D01*
X65799588Y-97084787D02*
X65799588Y-96780025D01*
X65799588Y-96780025D02*
X65837683Y-96703835D01*
X65837683Y-96703835D02*
X65875778Y-96665740D01*
X65875778Y-96665740D02*
X65951969Y-96627644D01*
X65951969Y-96627644D02*
X66066254Y-96627644D01*
X66066254Y-96627644D02*
X66142445Y-96665740D01*
X66142445Y-96665740D02*
X66180540Y-96703835D01*
X66180540Y-96703835D02*
X66218635Y-96780025D01*
X66218635Y-96780025D02*
X66218635Y-97084787D01*
X65875778Y-96322883D02*
X65837683Y-96284787D01*
X65837683Y-96284787D02*
X65799588Y-96208597D01*
X65799588Y-96208597D02*
X65799588Y-96018121D01*
X65799588Y-96018121D02*
X65837683Y-95941930D01*
X65837683Y-95941930D02*
X65875778Y-95903835D01*
X65875778Y-95903835D02*
X65951969Y-95865740D01*
X65951969Y-95865740D02*
X66028159Y-95865740D01*
X66028159Y-95865740D02*
X66142445Y-95903835D01*
X66142445Y-95903835D02*
X66599588Y-96360978D01*
X66599588Y-96360978D02*
X66599588Y-95865740D01*
X71190476Y-83912295D02*
X71190476Y-84559914D01*
X71190476Y-84559914D02*
X71228571Y-84636104D01*
X71228571Y-84636104D02*
X71266666Y-84674200D01*
X71266666Y-84674200D02*
X71342857Y-84712295D01*
X71342857Y-84712295D02*
X71495238Y-84712295D01*
X71495238Y-84712295D02*
X71571428Y-84674200D01*
X71571428Y-84674200D02*
X71609523Y-84636104D01*
X71609523Y-84636104D02*
X71647619Y-84559914D01*
X71647619Y-84559914D02*
X71647619Y-83912295D01*
X72447618Y-84712295D02*
X71990475Y-84712295D01*
X72219047Y-84712295D02*
X72219047Y-83912295D01*
X72219047Y-83912295D02*
X72142856Y-84026580D01*
X72142856Y-84026580D02*
X72066666Y-84102771D01*
X72066666Y-84102771D02*
X71990475Y-84140866D01*
X69556791Y-96633332D02*
X69175838Y-96899999D01*
X69556791Y-97090475D02*
X68756791Y-97090475D01*
X68756791Y-97090475D02*
X68756791Y-96785713D01*
X68756791Y-96785713D02*
X68794886Y-96709523D01*
X68794886Y-96709523D02*
X68832981Y-96671428D01*
X68832981Y-96671428D02*
X68909172Y-96633332D01*
X68909172Y-96633332D02*
X69023457Y-96633332D01*
X69023457Y-96633332D02*
X69099648Y-96671428D01*
X69099648Y-96671428D02*
X69137743Y-96709523D01*
X69137743Y-96709523D02*
X69175838Y-96785713D01*
X69175838Y-96785713D02*
X69175838Y-97090475D01*
X69556791Y-95871428D02*
X69556791Y-96328571D01*
X69556791Y-96099999D02*
X68756791Y-96099999D01*
X68756791Y-96099999D02*
X68871076Y-96176190D01*
X68871076Y-96176190D02*
X68947267Y-96252380D01*
X68947267Y-96252380D02*
X68985362Y-96328571D01*
X67097846Y-77180958D02*
X67135942Y-77219054D01*
X67135942Y-77219054D02*
X67174037Y-77333339D01*
X67174037Y-77333339D02*
X67174037Y-77409530D01*
X67174037Y-77409530D02*
X67135942Y-77523816D01*
X67135942Y-77523816D02*
X67059751Y-77600006D01*
X67059751Y-77600006D02*
X66983561Y-77638101D01*
X66983561Y-77638101D02*
X66831180Y-77676197D01*
X66831180Y-77676197D02*
X66716894Y-77676197D01*
X66716894Y-77676197D02*
X66564513Y-77638101D01*
X66564513Y-77638101D02*
X66488322Y-77600006D01*
X66488322Y-77600006D02*
X66412132Y-77523816D01*
X66412132Y-77523816D02*
X66374037Y-77409530D01*
X66374037Y-77409530D02*
X66374037Y-77333339D01*
X66374037Y-77333339D02*
X66412132Y-77219054D01*
X66412132Y-77219054D02*
X66450227Y-77180958D01*
X66640703Y-76495244D02*
X67174037Y-76495244D01*
X66335942Y-76685720D02*
X66907370Y-76876197D01*
X66907370Y-76876197D02*
X66907370Y-76380958D01*
X74111344Y-83601465D02*
X74111344Y-83982417D01*
X74111344Y-83982417D02*
X73311344Y-83982417D01*
X74111344Y-82915751D02*
X74111344Y-83372894D01*
X74111344Y-83144322D02*
X73311344Y-83144322D01*
X73311344Y-83144322D02*
X73425629Y-83220513D01*
X73425629Y-83220513D02*
X73501820Y-83296703D01*
X73501820Y-83296703D02*
X73539915Y-83372894D01*
X64886104Y-68314285D02*
X64924200Y-68352381D01*
X64924200Y-68352381D02*
X64962295Y-68466666D01*
X64962295Y-68466666D02*
X64962295Y-68542857D01*
X64962295Y-68542857D02*
X64924200Y-68657143D01*
X64924200Y-68657143D02*
X64848009Y-68733333D01*
X64848009Y-68733333D02*
X64771819Y-68771428D01*
X64771819Y-68771428D02*
X64619438Y-68809524D01*
X64619438Y-68809524D02*
X64505152Y-68809524D01*
X64505152Y-68809524D02*
X64352771Y-68771428D01*
X64352771Y-68771428D02*
X64276580Y-68733333D01*
X64276580Y-68733333D02*
X64200390Y-68657143D01*
X64200390Y-68657143D02*
X64162295Y-68542857D01*
X64162295Y-68542857D02*
X64162295Y-68466666D01*
X64162295Y-68466666D02*
X64200390Y-68352381D01*
X64200390Y-68352381D02*
X64238485Y-68314285D01*
X64962295Y-67552381D02*
X64962295Y-68009524D01*
X64962295Y-67780952D02*
X64162295Y-67780952D01*
X64162295Y-67780952D02*
X64276580Y-67857143D01*
X64276580Y-67857143D02*
X64352771Y-67933333D01*
X64352771Y-67933333D02*
X64390866Y-68009524D01*
X64162295Y-67057142D02*
X64162295Y-66980952D01*
X64162295Y-66980952D02*
X64200390Y-66904761D01*
X64200390Y-66904761D02*
X64238485Y-66866666D01*
X64238485Y-66866666D02*
X64314676Y-66828571D01*
X64314676Y-66828571D02*
X64467057Y-66790476D01*
X64467057Y-66790476D02*
X64657533Y-66790476D01*
X64657533Y-66790476D02*
X64809914Y-66828571D01*
X64809914Y-66828571D02*
X64886104Y-66866666D01*
X64886104Y-66866666D02*
X64924200Y-66904761D01*
X64924200Y-66904761D02*
X64962295Y-66980952D01*
X64962295Y-66980952D02*
X64962295Y-67057142D01*
X64962295Y-67057142D02*
X64924200Y-67133333D01*
X64924200Y-67133333D02*
X64886104Y-67171428D01*
X64886104Y-67171428D02*
X64809914Y-67209523D01*
X64809914Y-67209523D02*
X64657533Y-67247619D01*
X64657533Y-67247619D02*
X64467057Y-67247619D01*
X64467057Y-67247619D02*
X64314676Y-67209523D01*
X64314676Y-67209523D02*
X64238485Y-67171428D01*
X64238485Y-67171428D02*
X64200390Y-67133333D01*
X64200390Y-67133333D02*
X64162295Y-67057142D01*
X62143247Y-92266666D02*
X62143247Y-92533332D01*
X62562295Y-92533332D02*
X61762295Y-92533332D01*
X61762295Y-92533332D02*
X61762295Y-92152380D01*
X62143247Y-91580952D02*
X62181342Y-91466666D01*
X62181342Y-91466666D02*
X62219438Y-91428571D01*
X62219438Y-91428571D02*
X62295628Y-91390475D01*
X62295628Y-91390475D02*
X62409914Y-91390475D01*
X62409914Y-91390475D02*
X62486104Y-91428571D01*
X62486104Y-91428571D02*
X62524200Y-91466666D01*
X62524200Y-91466666D02*
X62562295Y-91542856D01*
X62562295Y-91542856D02*
X62562295Y-91847618D01*
X62562295Y-91847618D02*
X61762295Y-91847618D01*
X61762295Y-91847618D02*
X61762295Y-91580952D01*
X61762295Y-91580952D02*
X61800390Y-91504761D01*
X61800390Y-91504761D02*
X61838485Y-91466666D01*
X61838485Y-91466666D02*
X61914676Y-91428571D01*
X61914676Y-91428571D02*
X61990866Y-91428571D01*
X61990866Y-91428571D02*
X62067057Y-91466666D01*
X62067057Y-91466666D02*
X62105152Y-91504761D01*
X62105152Y-91504761D02*
X62143247Y-91580952D01*
X62143247Y-91580952D02*
X62143247Y-91847618D01*
X62562295Y-90628571D02*
X62562295Y-91085714D01*
X62562295Y-90857142D02*
X61762295Y-90857142D01*
X61762295Y-90857142D02*
X61876580Y-90933333D01*
X61876580Y-90933333D02*
X61952771Y-91009523D01*
X61952771Y-91009523D02*
X61990866Y-91085714D01*
X76061025Y-77301726D02*
X76708644Y-77301726D01*
X76708644Y-77301726D02*
X76784834Y-77263631D01*
X76784834Y-77263631D02*
X76822930Y-77225536D01*
X76822930Y-77225536D02*
X76861025Y-77149345D01*
X76861025Y-77149345D02*
X76861025Y-76996964D01*
X76861025Y-76996964D02*
X76822930Y-76920774D01*
X76822930Y-76920774D02*
X76784834Y-76882679D01*
X76784834Y-76882679D02*
X76708644Y-76844583D01*
X76708644Y-76844583D02*
X76061025Y-76844583D01*
X76137215Y-76501727D02*
X76099120Y-76463631D01*
X76099120Y-76463631D02*
X76061025Y-76387441D01*
X76061025Y-76387441D02*
X76061025Y-76196965D01*
X76061025Y-76196965D02*
X76099120Y-76120774D01*
X76099120Y-76120774D02*
X76137215Y-76082679D01*
X76137215Y-76082679D02*
X76213406Y-76044584D01*
X76213406Y-76044584D02*
X76289596Y-76044584D01*
X76289596Y-76044584D02*
X76403882Y-76082679D01*
X76403882Y-76082679D02*
X76861025Y-76539822D01*
X76861025Y-76539822D02*
X76861025Y-76044584D01*
D10*
%TO.C,R7*%
X57973919Y-96739926D02*
X57973919Y-96230478D01*
X59018919Y-96739926D02*
X59018919Y-96230478D01*
%TO.C,J5*%
X57537051Y-60035343D02*
X57537051Y-66005343D01*
X57537051Y-66005343D02*
X75157051Y-66005343D01*
X57547051Y-63745343D02*
X58297051Y-63745343D01*
X57547051Y-65245343D02*
X57547051Y-65995343D01*
X57547051Y-65995343D02*
X59347051Y-65995343D01*
X58297051Y-60795343D02*
X66347051Y-60795343D01*
X58297051Y-63745343D02*
X58297051Y-60795343D01*
X59347051Y-65245343D02*
X57547051Y-65245343D01*
X59347051Y-65995343D02*
X59347051Y-65245343D01*
X60847051Y-65245343D02*
X60847051Y-65995343D01*
X60847051Y-65995343D02*
X71847051Y-65995343D01*
X71847051Y-65245343D02*
X60847051Y-65245343D01*
X71847051Y-65995343D02*
X71847051Y-65245343D01*
X73347051Y-65245343D02*
X73347051Y-65995343D01*
X73347051Y-65995343D02*
X75147051Y-65995343D01*
X74197051Y-66295343D02*
X75447051Y-66295343D01*
X74397051Y-60795343D02*
X66347051Y-60795343D01*
X74397051Y-63745343D02*
X74397051Y-60795343D01*
X75147051Y-63745343D02*
X74397051Y-63745343D01*
X75147051Y-65245343D02*
X73347051Y-65245343D01*
X75147051Y-65995343D02*
X75147051Y-65245343D01*
X75157051Y-60035343D02*
X57537051Y-60035343D01*
X75157051Y-66005343D02*
X75157051Y-60035343D01*
X75447051Y-66295343D02*
X75447051Y-65045343D01*
D11*
%TO.C,S2*%
X58639930Y-80722390D02*
X63139930Y-80722390D01*
X58639930Y-85222390D02*
X58639930Y-80722390D01*
X63139930Y-80722390D02*
X63139930Y-85222390D01*
X63139930Y-85222390D02*
X58639930Y-85222390D01*
X62489930Y-78472390D02*
G75*
G02*
X62289930Y-78472390I-100000J0D01*
G01*
X62289930Y-78472390D02*
G75*
G02*
X62489930Y-78472390I100000J0D01*
G01*
D10*
%TO.C,C9*%
X63989450Y-85583766D02*
X63989450Y-85291232D01*
X65009450Y-85583766D02*
X65009450Y-85291232D01*
%TO.C,D1*%
X68221201Y-89702045D02*
X65561201Y-89702045D01*
X68221201Y-91402045D02*
X65561201Y-91402045D01*
X68221201Y-91402045D02*
X68221201Y-89702045D01*
%TO.C,D2*%
X57873739Y-92573602D02*
X57873739Y-90613602D01*
X59073739Y-90613602D02*
X57873739Y-90613602D01*
X59073739Y-92573602D02*
X59073739Y-90613602D01*
%TO.C,J7*%
X124335255Y-96733247D02*
X124335255Y-98153247D01*
X124335255Y-98153247D02*
X128835255Y-98153247D01*
X124335255Y-105433247D02*
X128835255Y-105433247D01*
X124335255Y-106853247D02*
X124335255Y-105433247D01*
X124645255Y-103993247D02*
X125245255Y-104293247D01*
X124645255Y-104593247D02*
X124645255Y-103993247D01*
X125245255Y-104293247D02*
X124645255Y-104593247D01*
X128835255Y-98153247D02*
X128835255Y-101793247D01*
X128835255Y-105433247D02*
X128835255Y-101793247D01*
X129945255Y-99043247D02*
X129945255Y-99543247D01*
X129945255Y-99543247D02*
X135445255Y-99543247D01*
X129945255Y-101543247D02*
X129945255Y-102043247D01*
X129945255Y-102043247D02*
X135445255Y-102043247D01*
X129945255Y-104043247D02*
X129945255Y-104543247D01*
X129945255Y-104543247D02*
X135445255Y-104543247D01*
X135445255Y-99043247D02*
X129945255Y-99043247D01*
X135445255Y-99543247D02*
X135445255Y-99043247D01*
X135445255Y-101543247D02*
X129945255Y-101543247D01*
X135445255Y-102043247D02*
X135445255Y-101543247D01*
X135445255Y-104043247D02*
X129945255Y-104043247D01*
X135445255Y-104543247D02*
X135445255Y-104043247D01*
X136055255Y-96733247D02*
X124335255Y-96733247D01*
X136055255Y-101793247D02*
X136055255Y-96733247D01*
X136055255Y-101793247D02*
X136055255Y-106853247D01*
X136055255Y-106853247D02*
X124335255Y-106853247D01*
%TO.C,JP2*%
X66267243Y-85185973D02*
X66267243Y-82535973D01*
X69027243Y-82535973D02*
X66267243Y-82535973D01*
X69027243Y-85185973D02*
X66267243Y-85185973D01*
X69027243Y-85185973D02*
X69027243Y-82535973D01*
X69027243Y-86455973D02*
X69027243Y-87835973D01*
X69027243Y-87835973D02*
X67647243Y-87835973D01*
%TO.C,C2*%
X62803430Y-89846947D02*
X62803430Y-89554413D01*
X63823430Y-89846947D02*
X63823430Y-89554413D01*
%TO.C,C6*%
X70475203Y-79771198D02*
X70475203Y-79478664D01*
X71495203Y-79771198D02*
X71495203Y-79478664D01*
%TO.C,J10*%
X124328330Y-63282464D02*
X124328330Y-64702464D01*
X124328330Y-64702464D02*
X128828330Y-64702464D01*
X124328330Y-71982464D02*
X128828330Y-71982464D01*
X124328330Y-73402464D02*
X124328330Y-71982464D01*
X124638330Y-70542464D02*
X125238330Y-70842464D01*
X124638330Y-71142464D02*
X124638330Y-70542464D01*
X125238330Y-70842464D02*
X124638330Y-71142464D01*
X128828330Y-64702464D02*
X128828330Y-68342464D01*
X128828330Y-71982464D02*
X128828330Y-68342464D01*
X129938330Y-65592464D02*
X129938330Y-66092464D01*
X129938330Y-66092464D02*
X135438330Y-66092464D01*
X129938330Y-68092464D02*
X129938330Y-68592464D01*
X129938330Y-68592464D02*
X135438330Y-68592464D01*
X129938330Y-70592464D02*
X129938330Y-71092464D01*
X129938330Y-71092464D02*
X135438330Y-71092464D01*
X135438330Y-65592464D02*
X129938330Y-65592464D01*
X135438330Y-66092464D02*
X135438330Y-65592464D01*
X135438330Y-68092464D02*
X129938330Y-68092464D01*
X135438330Y-68592464D02*
X135438330Y-68092464D01*
X135438330Y-70592464D02*
X129938330Y-70592464D01*
X135438330Y-71092464D02*
X135438330Y-70592464D01*
X136048330Y-63282464D02*
X124328330Y-63282464D01*
X136048330Y-68342464D02*
X136048330Y-63282464D01*
X136048330Y-68342464D02*
X136048330Y-73402464D01*
X136048330Y-73402464D02*
X124328330Y-73402464D01*
%TO.C,D5*%
X59554913Y-95708850D02*
X59554913Y-97993850D01*
X59554913Y-97993850D02*
X61024913Y-97993850D01*
X61024913Y-97993850D02*
X61024913Y-95708850D01*
%TO.C,C5*%
X72380135Y-79774303D02*
X72380135Y-79481769D01*
X73400135Y-79774303D02*
X73400135Y-79481769D01*
D11*
%TO.C,S1*%
X58650000Y-70762500D02*
X63150000Y-70762500D01*
X58650000Y-75262500D02*
X58650000Y-70762500D01*
X63150000Y-70762500D02*
X63150000Y-75262500D01*
X63150000Y-75262500D02*
X58650000Y-75262500D01*
X62500000Y-68512500D02*
G75*
G02*
X62300000Y-68512500I-100000J0D01*
G01*
X62300000Y-68512500D02*
G75*
G02*
X62500000Y-68512500I100000J0D01*
G01*
D10*
%TO.C,R8*%
X63970923Y-80884194D02*
X63970923Y-80374746D01*
X65015923Y-80884194D02*
X65015923Y-80374746D01*
%TO.C,C1*%
X64047156Y-92059729D02*
X64339690Y-92059729D01*
X64047156Y-93079729D02*
X64339690Y-93079729D01*
%TO.C,J1*%
X61264425Y-103564589D02*
X61264425Y-105564589D01*
X61264425Y-107464589D02*
X61264425Y-109364589D01*
X61264425Y-109364589D02*
X70664425Y-109364589D01*
X70664425Y-103564589D02*
X70664425Y-105564589D01*
X70664425Y-107464589D02*
X70664425Y-109364589D01*
%TO.C,J13*%
X97512550Y-94154837D02*
X97512550Y-94954837D01*
X97512550Y-94954837D02*
X98312550Y-94554837D01*
X98312550Y-94554837D02*
X97512550Y-94154837D01*
X98412550Y-89984837D02*
X98412550Y-96094837D01*
X98412550Y-102469837D02*
X98412550Y-99614837D01*
X114752550Y-89984837D02*
X98412550Y-89984837D01*
X114752550Y-89984837D02*
X114752550Y-96094837D01*
X114752550Y-102469837D02*
X114752550Y-99614837D01*
%TO.C,J2*%
X102728338Y-80539838D02*
X102728338Y-81789838D01*
X103018338Y-80829838D02*
X103018338Y-86799838D01*
X103018338Y-86799838D02*
X115638338Y-86799838D01*
X103028338Y-80839838D02*
X103028338Y-81589838D01*
X103028338Y-81589838D02*
X104828338Y-81589838D01*
X103028338Y-83089838D02*
X103778338Y-83089838D01*
X103778338Y-83089838D02*
X103778338Y-86039838D01*
X103778338Y-86039838D02*
X109328338Y-86039838D01*
X103978338Y-80539838D02*
X102728338Y-80539838D01*
X104828338Y-80839838D02*
X103028338Y-80839838D01*
X104828338Y-81589838D02*
X104828338Y-80839838D01*
X106328338Y-80839838D02*
X106328338Y-81589838D01*
X106328338Y-81589838D02*
X112328338Y-81589838D01*
X112328338Y-80839838D02*
X106328338Y-80839838D01*
X112328338Y-81589838D02*
X112328338Y-80839838D01*
X113828338Y-80839838D02*
X113828338Y-81589838D01*
X113828338Y-81589838D02*
X115628338Y-81589838D01*
X114878338Y-83089838D02*
X114878338Y-86039838D01*
X114878338Y-86039838D02*
X109328338Y-86039838D01*
X115628338Y-80839838D02*
X113828338Y-80839838D01*
X115628338Y-81589838D02*
X115628338Y-80839838D01*
X115628338Y-83089838D02*
X114878338Y-83089838D01*
X115638338Y-80829838D02*
X103018338Y-80829838D01*
X115638338Y-86799838D02*
X115638338Y-80829838D01*
%TO.C,R9*%
X64044246Y-75111884D02*
X64044246Y-75621332D01*
X65089246Y-75111884D02*
X65089246Y-75621332D01*
%TO.C,J9*%
X124336547Y-74421121D02*
X124336547Y-75841121D01*
X124336547Y-75841121D02*
X128836547Y-75841121D01*
X124336547Y-83121121D02*
X128836547Y-83121121D01*
X124336547Y-84541121D02*
X124336547Y-83121121D01*
X124646547Y-81681121D02*
X125246547Y-81981121D01*
X124646547Y-82281121D02*
X124646547Y-81681121D01*
X125246547Y-81981121D02*
X124646547Y-82281121D01*
X128836547Y-75841121D02*
X128836547Y-79481121D01*
X128836547Y-83121121D02*
X128836547Y-79481121D01*
X129946547Y-76731121D02*
X129946547Y-77231121D01*
X129946547Y-77231121D02*
X135446547Y-77231121D01*
X129946547Y-79231121D02*
X129946547Y-79731121D01*
X129946547Y-79731121D02*
X135446547Y-79731121D01*
X129946547Y-81731121D02*
X129946547Y-82231121D01*
X129946547Y-82231121D02*
X135446547Y-82231121D01*
X135446547Y-76731121D02*
X129946547Y-76731121D01*
X135446547Y-77231121D02*
X135446547Y-76731121D01*
X135446547Y-79231121D02*
X129946547Y-79231121D01*
X135446547Y-79731121D02*
X135446547Y-79231121D01*
X135446547Y-81731121D02*
X129946547Y-81731121D01*
X135446547Y-82231121D02*
X135446547Y-81731121D01*
X136056547Y-74421121D02*
X124336547Y-74421121D01*
X136056547Y-79481121D02*
X136056547Y-74421121D01*
X136056547Y-79481121D02*
X136056547Y-84541121D01*
X136056547Y-84541121D02*
X124336547Y-84541121D01*
%TO.C,C3*%
X68081634Y-79786676D02*
X68081634Y-79494142D01*
X69101634Y-79786676D02*
X69101634Y-79494142D01*
%TO.C,R2*%
X64014746Y-96715847D02*
X64014746Y-96261719D01*
X65484746Y-96715847D02*
X65484746Y-96261719D01*
%TO.C,U1*%
X71373699Y-81864165D02*
X72509267Y-81864165D01*
X72509267Y-83734165D02*
X71089267Y-83734165D01*
X71079267Y-81859165D02*
X70939267Y-81669165D01*
X71219267Y-81669165D01*
X71079267Y-81859165D01*
G36*
X71079267Y-81859165D02*
G01*
X70939267Y-81669165D01*
X71219267Y-81669165D01*
X71079267Y-81859165D01*
G37*
%TO.C,J14*%
X75457138Y-94153198D02*
X75457138Y-94953198D01*
X75457138Y-94953198D02*
X76257138Y-94553198D01*
X76257138Y-94553198D02*
X75457138Y-94153198D01*
X76357138Y-89983198D02*
X76357138Y-96093198D01*
X76357138Y-102468198D02*
X76357138Y-99613198D01*
X92697138Y-89983198D02*
X76357138Y-89983198D01*
X92697138Y-89983198D02*
X92697138Y-96093198D01*
X92697138Y-102468198D02*
X92697138Y-99613198D01*
%TO.C,J12*%
X52706454Y-61879590D02*
X54086454Y-61879590D01*
X52706454Y-63259590D02*
X52706454Y-61879590D01*
X52706454Y-64529590D02*
X52706454Y-97659590D01*
X52706454Y-64529590D02*
X55466454Y-64529590D01*
X52706454Y-97659590D02*
X55466454Y-97659590D01*
X55466454Y-64529590D02*
X55466454Y-97659590D01*
%TO.C,R1*%
X66962248Y-96722258D02*
X66962248Y-96268130D01*
X68432248Y-96722258D02*
X68432248Y-96268130D01*
%TO.C,J4*%
X102700000Y-63050000D02*
X102700000Y-64300000D01*
X102990000Y-63340000D02*
X102990000Y-69310000D01*
X102990000Y-69310000D02*
X120610000Y-69310000D01*
X103000000Y-63350000D02*
X103000000Y-64100000D01*
X103000000Y-64100000D02*
X104800000Y-64100000D01*
X103000000Y-65600000D02*
X103750000Y-65600000D01*
X103750000Y-65600000D02*
X103750000Y-68550000D01*
X103750000Y-68550000D02*
X111800000Y-68550000D01*
X103950000Y-63050000D02*
X102700000Y-63050000D01*
X104800000Y-63350000D02*
X103000000Y-63350000D01*
X104800000Y-64100000D02*
X104800000Y-63350000D01*
X106300000Y-63350000D02*
X106300000Y-64100000D01*
X106300000Y-64100000D02*
X117300000Y-64100000D01*
X117300000Y-63350000D02*
X106300000Y-63350000D01*
X117300000Y-64100000D02*
X117300000Y-63350000D01*
X118800000Y-63350000D02*
X118800000Y-64100000D01*
X118800000Y-64100000D02*
X120600000Y-64100000D01*
X119850000Y-65600000D02*
X119850000Y-68550000D01*
X119850000Y-68550000D02*
X111800000Y-68550000D01*
X120600000Y-63350000D02*
X118800000Y-63350000D01*
X120600000Y-64100000D02*
X120600000Y-63350000D01*
X120600000Y-65600000D02*
X119850000Y-65600000D01*
X120610000Y-63340000D02*
X102990000Y-63340000D01*
X120610000Y-69310000D02*
X120610000Y-63340000D01*
%TO.C,C4*%
X66281634Y-79786676D02*
X66281634Y-79494142D01*
X67301634Y-79786676D02*
X67301634Y-79494142D01*
%TO.C,J6*%
X103012004Y-72086282D02*
X103012004Y-78056282D01*
X103012004Y-78056282D02*
X120632004Y-78056282D01*
X103022004Y-75796282D02*
X103772004Y-75796282D01*
X103022004Y-77296282D02*
X103022004Y-78046282D01*
X103022004Y-78046282D02*
X104822004Y-78046282D01*
X103772004Y-72846282D02*
X111822004Y-72846282D01*
X103772004Y-75796282D02*
X103772004Y-72846282D01*
X104822004Y-77296282D02*
X103022004Y-77296282D01*
X104822004Y-78046282D02*
X104822004Y-77296282D01*
X106322004Y-77296282D02*
X106322004Y-78046282D01*
X106322004Y-78046282D02*
X117322004Y-78046282D01*
X117322004Y-77296282D02*
X106322004Y-77296282D01*
X117322004Y-78046282D02*
X117322004Y-77296282D01*
X118822004Y-77296282D02*
X118822004Y-78046282D01*
X118822004Y-78046282D02*
X120622004Y-78046282D01*
X119672004Y-78346282D02*
X120922004Y-78346282D01*
X119872004Y-72846282D02*
X111822004Y-72846282D01*
X119872004Y-75796282D02*
X119872004Y-72846282D01*
X120622004Y-75796282D02*
X119872004Y-75796282D01*
X120622004Y-77296282D02*
X118822004Y-77296282D01*
X120622004Y-78046282D02*
X120622004Y-77296282D01*
X120632004Y-72086282D02*
X103012004Y-72086282D01*
X120632004Y-78056282D02*
X120632004Y-72086282D01*
X120922004Y-78346282D02*
X120922004Y-77096282D01*
D13*
%TO.C,J11*%
X123798550Y-51185455D02*
X123798550Y-52305455D01*
X123798550Y-62745455D02*
X123798550Y-61625455D01*
X123798550Y-62745455D02*
X135998550Y-62745455D01*
X135998550Y-51185455D02*
X123798550Y-51185455D01*
X135998550Y-62745455D02*
X135998550Y-51185455D01*
D10*
%TO.C,L1*%
X74589049Y-79358132D02*
X74689049Y-79358132D01*
X74589049Y-87578132D02*
X74589049Y-79358132D01*
X74689049Y-87578132D02*
X74589049Y-87578132D01*
X82709049Y-79358132D02*
X82809049Y-79358132D01*
X82809049Y-79358132D02*
X82809049Y-87578132D01*
X82809049Y-87578132D02*
X82709049Y-87578132D01*
%TO.C,C10*%
X64078545Y-70442753D02*
X64078545Y-70735287D01*
X65098545Y-70442753D02*
X65098545Y-70735287D01*
%TO.C,FB1*%
X59962023Y-91795071D02*
X59962023Y-91340943D01*
X61432023Y-91795071D02*
X61432023Y-91340943D01*
%TO.C,J8*%
X124322392Y-85531320D02*
X124322392Y-86951320D01*
X124322392Y-86951320D02*
X128822392Y-86951320D01*
X124322392Y-94231320D02*
X128822392Y-94231320D01*
X124322392Y-95651320D02*
X124322392Y-94231320D01*
X124632392Y-92791320D02*
X125232392Y-93091320D01*
X124632392Y-93391320D02*
X124632392Y-92791320D01*
X125232392Y-93091320D02*
X124632392Y-93391320D01*
X128822392Y-86951320D02*
X128822392Y-90591320D01*
X128822392Y-94231320D02*
X128822392Y-90591320D01*
X129932392Y-87841320D02*
X129932392Y-88341320D01*
X129932392Y-88341320D02*
X135432392Y-88341320D01*
X129932392Y-90341320D02*
X129932392Y-90841320D01*
X129932392Y-90841320D02*
X135432392Y-90841320D01*
X129932392Y-92841320D02*
X129932392Y-93341320D01*
X129932392Y-93341320D02*
X135432392Y-93341320D01*
X135432392Y-87841320D02*
X129932392Y-87841320D01*
X135432392Y-88341320D02*
X135432392Y-87841320D01*
X135432392Y-90341320D02*
X129932392Y-90341320D01*
X135432392Y-90841320D02*
X135432392Y-90341320D01*
X135432392Y-92841320D02*
X129932392Y-92841320D01*
X135432392Y-93341320D02*
X135432392Y-92841320D01*
X136042392Y-85531320D02*
X124322392Y-85531320D01*
X136042392Y-90591320D02*
X136042392Y-85531320D01*
X136042392Y-90591320D02*
X136042392Y-95651320D01*
X136042392Y-95651320D02*
X124322392Y-95651320D01*
%TO.C,JP1*%
X114925408Y-62091673D02*
X114925408Y-60981673D01*
X116035408Y-62091673D02*
X114925408Y-62091673D01*
X117035408Y-59871673D02*
X119145408Y-59871673D01*
X117035408Y-62091673D02*
X117035408Y-59871673D01*
X117035408Y-62091673D02*
X119145408Y-62091673D01*
X119145408Y-62091673D02*
X119145408Y-59871673D01*
%TO.C,U2*%
X77563107Y-51888879D02*
X77563107Y-58088879D01*
X77563107Y-51888879D02*
X95963107Y-51888879D01*
X77563107Y-76738879D02*
X77563107Y-77738879D01*
X77563107Y-77738879D02*
X79063107Y-77738879D01*
X95963107Y-51888879D02*
X95963107Y-58088879D01*
X95963107Y-77738879D02*
X94463107Y-77738879D01*
X95963107Y-77738879D02*
X95963107Y-76738879D01*
X77563107Y-58763879D02*
X77063107Y-58763879D01*
X77563107Y-58263879D01*
X77563107Y-58763879D01*
G36*
X77563107Y-58763879D02*
G01*
X77063107Y-58763879D01*
X77563107Y-58263879D01*
X77563107Y-58763879D01*
G37*
%TD*%
M02*
