%TF.GenerationSoftware,KiCad,Pcbnew,9.0.5*%
%TF.CreationDate,2026-01-05T22:54:41+05:30*%
%TF.ProjectId,Dietarium,44696574-6172-4697-956d-2e6b69636164,rev?*%
%TF.SameCoordinates,Original*%
%TF.FileFunction,Legend,Bot*%
%TF.FilePolarity,Positive*%
%FSLAX46Y46*%
G04 Gerber Fmt 4.6, Leading zero omitted, Abs format (unit mm)*
G04 Created by KiCad (PCBNEW 9.0.5) date 2026-01-05 22:54:41*
%MOMM*%
%LPD*%
G01*
G04 APERTURE LIST*
%ADD10C,0.150000*%
%ADD11C,0.120000*%
G04 APERTURE END LIST*
D10*
X130319818Y-71085780D02*
X131034103Y-71085780D01*
X131034103Y-71085780D02*
X131176960Y-71038161D01*
X131176960Y-71038161D02*
X131272199Y-70942923D01*
X131272199Y-70942923D02*
X131319818Y-70800066D01*
X131319818Y-70800066D02*
X131319818Y-70704828D01*
X131034103Y-71514352D02*
X131034103Y-71990542D01*
X131319818Y-71419114D02*
X130319818Y-71752447D01*
X130319818Y-71752447D02*
X131319818Y-72085780D01*
X131319818Y-72419114D02*
X130319818Y-72419114D01*
X130319818Y-72419114D02*
X131319818Y-72990542D01*
X131319818Y-72990542D02*
X130319818Y-72990542D01*
X130415056Y-74181019D02*
X130367437Y-74228638D01*
X130367437Y-74228638D02*
X130319818Y-74323876D01*
X130319818Y-74323876D02*
X130319818Y-74561971D01*
X130319818Y-74561971D02*
X130367437Y-74657209D01*
X130367437Y-74657209D02*
X130415056Y-74704828D01*
X130415056Y-74704828D02*
X130510294Y-74752447D01*
X130510294Y-74752447D02*
X130605532Y-74752447D01*
X130605532Y-74752447D02*
X130748389Y-74704828D01*
X130748389Y-74704828D02*
X131319818Y-74133400D01*
X131319818Y-74133400D02*
X131319818Y-74752447D01*
X130319818Y-75371495D02*
X130319818Y-75466733D01*
X130319818Y-75466733D02*
X130367437Y-75561971D01*
X130367437Y-75561971D02*
X130415056Y-75609590D01*
X130415056Y-75609590D02*
X130510294Y-75657209D01*
X130510294Y-75657209D02*
X130700770Y-75704828D01*
X130700770Y-75704828D02*
X130938865Y-75704828D01*
X130938865Y-75704828D02*
X131129341Y-75657209D01*
X131129341Y-75657209D02*
X131224579Y-75609590D01*
X131224579Y-75609590D02*
X131272199Y-75561971D01*
X131272199Y-75561971D02*
X131319818Y-75466733D01*
X131319818Y-75466733D02*
X131319818Y-75371495D01*
X131319818Y-75371495D02*
X131272199Y-75276257D01*
X131272199Y-75276257D02*
X131224579Y-75228638D01*
X131224579Y-75228638D02*
X131129341Y-75181019D01*
X131129341Y-75181019D02*
X130938865Y-75133400D01*
X130938865Y-75133400D02*
X130700770Y-75133400D01*
X130700770Y-75133400D02*
X130510294Y-75181019D01*
X130510294Y-75181019D02*
X130415056Y-75228638D01*
X130415056Y-75228638D02*
X130367437Y-75276257D01*
X130367437Y-75276257D02*
X130319818Y-75371495D01*
X130415056Y-76085781D02*
X130367437Y-76133400D01*
X130367437Y-76133400D02*
X130319818Y-76228638D01*
X130319818Y-76228638D02*
X130319818Y-76466733D01*
X130319818Y-76466733D02*
X130367437Y-76561971D01*
X130367437Y-76561971D02*
X130415056Y-76609590D01*
X130415056Y-76609590D02*
X130510294Y-76657209D01*
X130510294Y-76657209D02*
X130605532Y-76657209D01*
X130605532Y-76657209D02*
X130748389Y-76609590D01*
X130748389Y-76609590D02*
X131319818Y-76038162D01*
X131319818Y-76038162D02*
X131319818Y-76657209D01*
X130319818Y-77514352D02*
X130319818Y-77323876D01*
X130319818Y-77323876D02*
X130367437Y-77228638D01*
X130367437Y-77228638D02*
X130415056Y-77181019D01*
X130415056Y-77181019D02*
X130557913Y-77085781D01*
X130557913Y-77085781D02*
X130748389Y-77038162D01*
X130748389Y-77038162D02*
X131129341Y-77038162D01*
X131129341Y-77038162D02*
X131224579Y-77085781D01*
X131224579Y-77085781D02*
X131272199Y-77133400D01*
X131272199Y-77133400D02*
X131319818Y-77228638D01*
X131319818Y-77228638D02*
X131319818Y-77419114D01*
X131319818Y-77419114D02*
X131272199Y-77514352D01*
X131272199Y-77514352D02*
X131224579Y-77561971D01*
X131224579Y-77561971D02*
X131129341Y-77609590D01*
X131129341Y-77609590D02*
X130891246Y-77609590D01*
X130891246Y-77609590D02*
X130796008Y-77561971D01*
X130796008Y-77561971D02*
X130748389Y-77514352D01*
X130748389Y-77514352D02*
X130700770Y-77419114D01*
X130700770Y-77419114D02*
X130700770Y-77228638D01*
X130700770Y-77228638D02*
X130748389Y-77133400D01*
X130748389Y-77133400D02*
X130796008Y-77085781D01*
X130796008Y-77085781D02*
X130891246Y-77038162D01*
X132882143Y-70752447D02*
X132929762Y-70895304D01*
X132929762Y-70895304D02*
X132929762Y-71133399D01*
X132929762Y-71133399D02*
X132882143Y-71228637D01*
X132882143Y-71228637D02*
X132834523Y-71276256D01*
X132834523Y-71276256D02*
X132739285Y-71323875D01*
X132739285Y-71323875D02*
X132644047Y-71323875D01*
X132644047Y-71323875D02*
X132548809Y-71276256D01*
X132548809Y-71276256D02*
X132501190Y-71228637D01*
X132501190Y-71228637D02*
X132453571Y-71133399D01*
X132453571Y-71133399D02*
X132405952Y-70942923D01*
X132405952Y-70942923D02*
X132358333Y-70847685D01*
X132358333Y-70847685D02*
X132310714Y-70800066D01*
X132310714Y-70800066D02*
X132215476Y-70752447D01*
X132215476Y-70752447D02*
X132120238Y-70752447D01*
X132120238Y-70752447D02*
X132025000Y-70800066D01*
X132025000Y-70800066D02*
X131977381Y-70847685D01*
X131977381Y-70847685D02*
X131929762Y-70942923D01*
X131929762Y-70942923D02*
X131929762Y-71181018D01*
X131929762Y-71181018D02*
X131977381Y-71323875D01*
X132929762Y-72181018D02*
X132405952Y-72181018D01*
X132405952Y-72181018D02*
X132310714Y-72133399D01*
X132310714Y-72133399D02*
X132263095Y-72038161D01*
X132263095Y-72038161D02*
X132263095Y-71847685D01*
X132263095Y-71847685D02*
X132310714Y-71752447D01*
X132882143Y-72181018D02*
X132929762Y-72085780D01*
X132929762Y-72085780D02*
X132929762Y-71847685D01*
X132929762Y-71847685D02*
X132882143Y-71752447D01*
X132882143Y-71752447D02*
X132786904Y-71704828D01*
X132786904Y-71704828D02*
X132691666Y-71704828D01*
X132691666Y-71704828D02*
X132596428Y-71752447D01*
X132596428Y-71752447D02*
X132548809Y-71847685D01*
X132548809Y-71847685D02*
X132548809Y-72085780D01*
X132548809Y-72085780D02*
X132501190Y-72181018D01*
X132929762Y-72657209D02*
X132263095Y-72657209D01*
X132453571Y-72657209D02*
X132358333Y-72704828D01*
X132358333Y-72704828D02*
X132310714Y-72752447D01*
X132310714Y-72752447D02*
X132263095Y-72847685D01*
X132263095Y-72847685D02*
X132263095Y-72942923D01*
X132929762Y-73419114D02*
X132882143Y-73323876D01*
X132882143Y-73323876D02*
X132834523Y-73276257D01*
X132834523Y-73276257D02*
X132739285Y-73228638D01*
X132739285Y-73228638D02*
X132453571Y-73228638D01*
X132453571Y-73228638D02*
X132358333Y-73276257D01*
X132358333Y-73276257D02*
X132310714Y-73323876D01*
X132310714Y-73323876D02*
X132263095Y-73419114D01*
X132263095Y-73419114D02*
X132263095Y-73561971D01*
X132263095Y-73561971D02*
X132310714Y-73657209D01*
X132310714Y-73657209D02*
X132358333Y-73704828D01*
X132358333Y-73704828D02*
X132453571Y-73752447D01*
X132453571Y-73752447D02*
X132739285Y-73752447D01*
X132739285Y-73752447D02*
X132834523Y-73704828D01*
X132834523Y-73704828D02*
X132882143Y-73657209D01*
X132882143Y-73657209D02*
X132929762Y-73561971D01*
X132929762Y-73561971D02*
X132929762Y-73419114D01*
X132263095Y-74181019D02*
X132929762Y-74181019D01*
X132358333Y-74181019D02*
X132310714Y-74228638D01*
X132310714Y-74228638D02*
X132263095Y-74323876D01*
X132263095Y-74323876D02*
X132263095Y-74466733D01*
X132263095Y-74466733D02*
X132310714Y-74561971D01*
X132310714Y-74561971D02*
X132405952Y-74609590D01*
X132405952Y-74609590D02*
X132929762Y-74609590D01*
X132929762Y-75847686D02*
X131929762Y-75847686D01*
X132263095Y-76323876D02*
X132929762Y-76323876D01*
X132358333Y-76323876D02*
X132310714Y-76371495D01*
X132310714Y-76371495D02*
X132263095Y-76466733D01*
X132263095Y-76466733D02*
X132263095Y-76609590D01*
X132263095Y-76609590D02*
X132310714Y-76704828D01*
X132310714Y-76704828D02*
X132405952Y-76752447D01*
X132405952Y-76752447D02*
X132929762Y-76752447D01*
X132263095Y-77228638D02*
X132929762Y-77228638D01*
X132358333Y-77228638D02*
X132310714Y-77276257D01*
X132310714Y-77276257D02*
X132263095Y-77371495D01*
X132263095Y-77371495D02*
X132263095Y-77514352D01*
X132263095Y-77514352D02*
X132310714Y-77609590D01*
X132310714Y-77609590D02*
X132405952Y-77657209D01*
X132405952Y-77657209D02*
X132929762Y-77657209D01*
X132929762Y-78276257D02*
X132882143Y-78181019D01*
X132882143Y-78181019D02*
X132834523Y-78133400D01*
X132834523Y-78133400D02*
X132739285Y-78085781D01*
X132739285Y-78085781D02*
X132453571Y-78085781D01*
X132453571Y-78085781D02*
X132358333Y-78133400D01*
X132358333Y-78133400D02*
X132310714Y-78181019D01*
X132310714Y-78181019D02*
X132263095Y-78276257D01*
X132263095Y-78276257D02*
X132263095Y-78419114D01*
X132263095Y-78419114D02*
X132310714Y-78514352D01*
X132310714Y-78514352D02*
X132358333Y-78561971D01*
X132358333Y-78561971D02*
X132453571Y-78609590D01*
X132453571Y-78609590D02*
X132739285Y-78609590D01*
X132739285Y-78609590D02*
X132834523Y-78561971D01*
X132834523Y-78561971D02*
X132882143Y-78514352D01*
X132882143Y-78514352D02*
X132929762Y-78419114D01*
X132929762Y-78419114D02*
X132929762Y-78276257D01*
X132263095Y-78942924D02*
X132929762Y-79181019D01*
X132929762Y-79181019D02*
X132263095Y-79419114D01*
X132929762Y-80228638D02*
X132405952Y-80228638D01*
X132405952Y-80228638D02*
X132310714Y-80181019D01*
X132310714Y-80181019D02*
X132263095Y-80085781D01*
X132263095Y-80085781D02*
X132263095Y-79895305D01*
X132263095Y-79895305D02*
X132310714Y-79800067D01*
X132882143Y-80228638D02*
X132929762Y-80133400D01*
X132929762Y-80133400D02*
X132929762Y-79895305D01*
X132929762Y-79895305D02*
X132882143Y-79800067D01*
X132882143Y-79800067D02*
X132786904Y-79752448D01*
X132786904Y-79752448D02*
X132691666Y-79752448D01*
X132691666Y-79752448D02*
X132596428Y-79800067D01*
X132596428Y-79800067D02*
X132548809Y-79895305D01*
X132548809Y-79895305D02*
X132548809Y-80133400D01*
X132548809Y-80133400D02*
X132501190Y-80228638D01*
X132263095Y-80561972D02*
X132263095Y-80942924D01*
X131929762Y-80704829D02*
X132786904Y-80704829D01*
X132786904Y-80704829D02*
X132882143Y-80752448D01*
X132882143Y-80752448D02*
X132929762Y-80847686D01*
X132929762Y-80847686D02*
X132929762Y-80942924D01*
X132263095Y-81704829D02*
X132929762Y-81704829D01*
X132263095Y-81276258D02*
X132786904Y-81276258D01*
X132786904Y-81276258D02*
X132882143Y-81323877D01*
X132882143Y-81323877D02*
X132929762Y-81419115D01*
X132929762Y-81419115D02*
X132929762Y-81561972D01*
X132929762Y-81561972D02*
X132882143Y-81657210D01*
X132882143Y-81657210D02*
X132834523Y-81704829D01*
X132929762Y-82181020D02*
X132263095Y-82181020D01*
X132453571Y-82181020D02*
X132358333Y-82228639D01*
X132358333Y-82228639D02*
X132310714Y-82276258D01*
X132310714Y-82276258D02*
X132263095Y-82371496D01*
X132263095Y-82371496D02*
X132263095Y-82466734D01*
X132882143Y-83181020D02*
X132929762Y-83085782D01*
X132929762Y-83085782D02*
X132929762Y-82895306D01*
X132929762Y-82895306D02*
X132882143Y-82800068D01*
X132882143Y-82800068D02*
X132786904Y-82752449D01*
X132786904Y-82752449D02*
X132405952Y-82752449D01*
X132405952Y-82752449D02*
X132310714Y-82800068D01*
X132310714Y-82800068D02*
X132263095Y-82895306D01*
X132263095Y-82895306D02*
X132263095Y-83085782D01*
X132263095Y-83085782D02*
X132310714Y-83181020D01*
X132310714Y-83181020D02*
X132405952Y-83228639D01*
X132405952Y-83228639D02*
X132501190Y-83228639D01*
X132501190Y-83228639D02*
X132596428Y-82752449D01*
X132929762Y-84895306D02*
X132929762Y-84419116D01*
X132929762Y-84419116D02*
X131929762Y-84419116D01*
X132929762Y-85657211D02*
X132405952Y-85657211D01*
X132405952Y-85657211D02*
X132310714Y-85609592D01*
X132310714Y-85609592D02*
X132263095Y-85514354D01*
X132263095Y-85514354D02*
X132263095Y-85323878D01*
X132263095Y-85323878D02*
X132310714Y-85228640D01*
X132882143Y-85657211D02*
X132929762Y-85561973D01*
X132929762Y-85561973D02*
X132929762Y-85323878D01*
X132929762Y-85323878D02*
X132882143Y-85228640D01*
X132882143Y-85228640D02*
X132786904Y-85181021D01*
X132786904Y-85181021D02*
X132691666Y-85181021D01*
X132691666Y-85181021D02*
X132596428Y-85228640D01*
X132596428Y-85228640D02*
X132548809Y-85323878D01*
X132548809Y-85323878D02*
X132548809Y-85561973D01*
X132548809Y-85561973D02*
X132501190Y-85657211D01*
X132929762Y-86133402D02*
X131929762Y-86133402D01*
X132310714Y-86133402D02*
X132263095Y-86228640D01*
X132263095Y-86228640D02*
X132263095Y-86419116D01*
X132263095Y-86419116D02*
X132310714Y-86514354D01*
X132310714Y-86514354D02*
X132358333Y-86561973D01*
X132358333Y-86561973D02*
X132453571Y-86609592D01*
X132453571Y-86609592D02*
X132739285Y-86609592D01*
X132739285Y-86609592D02*
X132834523Y-86561973D01*
X132834523Y-86561973D02*
X132882143Y-86514354D01*
X132882143Y-86514354D02*
X132929762Y-86419116D01*
X132929762Y-86419116D02*
X132929762Y-86228640D01*
X132929762Y-86228640D02*
X132882143Y-86133402D01*
X132882143Y-86990545D02*
X132929762Y-87085783D01*
X132929762Y-87085783D02*
X132929762Y-87276259D01*
X132929762Y-87276259D02*
X132882143Y-87371497D01*
X132882143Y-87371497D02*
X132786904Y-87419116D01*
X132786904Y-87419116D02*
X132739285Y-87419116D01*
X132739285Y-87419116D02*
X132644047Y-87371497D01*
X132644047Y-87371497D02*
X132596428Y-87276259D01*
X132596428Y-87276259D02*
X132596428Y-87133402D01*
X132596428Y-87133402D02*
X132548809Y-87038164D01*
X132548809Y-87038164D02*
X132453571Y-86990545D01*
X132453571Y-86990545D02*
X132405952Y-86990545D01*
X132405952Y-86990545D02*
X132310714Y-87038164D01*
X132310714Y-87038164D02*
X132263095Y-87133402D01*
X132263095Y-87133402D02*
X132263095Y-87276259D01*
X132263095Y-87276259D02*
X132310714Y-87371497D01*
X132929762Y-89085783D02*
X132929762Y-88609593D01*
X132929762Y-88609593D02*
X131929762Y-88609593D01*
X132929762Y-89895307D02*
X132929762Y-89419117D01*
X132929762Y-89419117D02*
X131929762Y-89419117D01*
X132929762Y-90228641D02*
X131929762Y-90228641D01*
X131929762Y-90228641D02*
X131929762Y-90609593D01*
X131929762Y-90609593D02*
X131977381Y-90704831D01*
X131977381Y-90704831D02*
X132025000Y-90752450D01*
X132025000Y-90752450D02*
X132120238Y-90800069D01*
X132120238Y-90800069D02*
X132263095Y-90800069D01*
X132263095Y-90800069D02*
X132358333Y-90752450D01*
X132358333Y-90752450D02*
X132405952Y-90704831D01*
X132405952Y-90704831D02*
X132453571Y-90609593D01*
X132453571Y-90609593D02*
X132453571Y-90228641D01*
X132834523Y-91228641D02*
X132882143Y-91276260D01*
X132882143Y-91276260D02*
X132929762Y-91228641D01*
X132929762Y-91228641D02*
X132882143Y-91181022D01*
X132882143Y-91181022D02*
X132834523Y-91228641D01*
X132834523Y-91228641D02*
X132929762Y-91228641D01*
X69212295Y-59735714D02*
X68831342Y-59469047D01*
X69212295Y-59278571D02*
X68412295Y-59278571D01*
X68412295Y-59278571D02*
X68412295Y-59583333D01*
X68412295Y-59583333D02*
X68450390Y-59659523D01*
X68450390Y-59659523D02*
X68488485Y-59697618D01*
X68488485Y-59697618D02*
X68564676Y-59735714D01*
X68564676Y-59735714D02*
X68678961Y-59735714D01*
X68678961Y-59735714D02*
X68755152Y-59697618D01*
X68755152Y-59697618D02*
X68793247Y-59659523D01*
X68793247Y-59659523D02*
X68831342Y-59583333D01*
X68831342Y-59583333D02*
X68831342Y-59278571D01*
X69212295Y-60497618D02*
X69212295Y-60040475D01*
X69212295Y-60269047D02*
X68412295Y-60269047D01*
X68412295Y-60269047D02*
X68526580Y-60192856D01*
X68526580Y-60192856D02*
X68602771Y-60116666D01*
X68602771Y-60116666D02*
X68640866Y-60040475D01*
X68412295Y-60764285D02*
X68412295Y-61259523D01*
X68412295Y-61259523D02*
X68717057Y-60992857D01*
X68717057Y-60992857D02*
X68717057Y-61107142D01*
X68717057Y-61107142D02*
X68755152Y-61183333D01*
X68755152Y-61183333D02*
X68793247Y-61221428D01*
X68793247Y-61221428D02*
X68869438Y-61259523D01*
X68869438Y-61259523D02*
X69059914Y-61259523D01*
X69059914Y-61259523D02*
X69136104Y-61221428D01*
X69136104Y-61221428D02*
X69174200Y-61183333D01*
X69174200Y-61183333D02*
X69212295Y-61107142D01*
X69212295Y-61107142D02*
X69212295Y-60878571D01*
X69212295Y-60878571D02*
X69174200Y-60802380D01*
X69174200Y-60802380D02*
X69136104Y-60764285D01*
X82136104Y-64766667D02*
X82174200Y-64728571D01*
X82174200Y-64728571D02*
X82212295Y-64614286D01*
X82212295Y-64614286D02*
X82212295Y-64538095D01*
X82212295Y-64538095D02*
X82174200Y-64423809D01*
X82174200Y-64423809D02*
X82098009Y-64347619D01*
X82098009Y-64347619D02*
X82021819Y-64309524D01*
X82021819Y-64309524D02*
X81869438Y-64271428D01*
X81869438Y-64271428D02*
X81755152Y-64271428D01*
X81755152Y-64271428D02*
X81602771Y-64309524D01*
X81602771Y-64309524D02*
X81526580Y-64347619D01*
X81526580Y-64347619D02*
X81450390Y-64423809D01*
X81450390Y-64423809D02*
X81412295Y-64538095D01*
X81412295Y-64538095D02*
X81412295Y-64614286D01*
X81412295Y-64614286D02*
X81450390Y-64728571D01*
X81450390Y-64728571D02*
X81488485Y-64766667D01*
X81755152Y-65223809D02*
X81717057Y-65147619D01*
X81717057Y-65147619D02*
X81678961Y-65109524D01*
X81678961Y-65109524D02*
X81602771Y-65071428D01*
X81602771Y-65071428D02*
X81564676Y-65071428D01*
X81564676Y-65071428D02*
X81488485Y-65109524D01*
X81488485Y-65109524D02*
X81450390Y-65147619D01*
X81450390Y-65147619D02*
X81412295Y-65223809D01*
X81412295Y-65223809D02*
X81412295Y-65376190D01*
X81412295Y-65376190D02*
X81450390Y-65452381D01*
X81450390Y-65452381D02*
X81488485Y-65490476D01*
X81488485Y-65490476D02*
X81564676Y-65528571D01*
X81564676Y-65528571D02*
X81602771Y-65528571D01*
X81602771Y-65528571D02*
X81678961Y-65490476D01*
X81678961Y-65490476D02*
X81717057Y-65452381D01*
X81717057Y-65452381D02*
X81755152Y-65376190D01*
X81755152Y-65376190D02*
X81755152Y-65223809D01*
X81755152Y-65223809D02*
X81793247Y-65147619D01*
X81793247Y-65147619D02*
X81831342Y-65109524D01*
X81831342Y-65109524D02*
X81907533Y-65071428D01*
X81907533Y-65071428D02*
X82059914Y-65071428D01*
X82059914Y-65071428D02*
X82136104Y-65109524D01*
X82136104Y-65109524D02*
X82174200Y-65147619D01*
X82174200Y-65147619D02*
X82212295Y-65223809D01*
X82212295Y-65223809D02*
X82212295Y-65376190D01*
X82212295Y-65376190D02*
X82174200Y-65452381D01*
X82174200Y-65452381D02*
X82136104Y-65490476D01*
X82136104Y-65490476D02*
X82059914Y-65528571D01*
X82059914Y-65528571D02*
X81907533Y-65528571D01*
X81907533Y-65528571D02*
X81831342Y-65490476D01*
X81831342Y-65490476D02*
X81793247Y-65452381D01*
X81793247Y-65452381D02*
X81755152Y-65376190D01*
X66447920Y-69354042D02*
X66409825Y-69277852D01*
X66409825Y-69277852D02*
X66333635Y-69201661D01*
X66333635Y-69201661D02*
X66219349Y-69087375D01*
X66219349Y-69087375D02*
X66181254Y-69011185D01*
X66181254Y-69011185D02*
X66181254Y-68934994D01*
X66371730Y-68973090D02*
X66333635Y-68896899D01*
X66333635Y-68896899D02*
X66257444Y-68820709D01*
X66257444Y-68820709D02*
X66105063Y-68782613D01*
X66105063Y-68782613D02*
X65838396Y-68782613D01*
X65838396Y-68782613D02*
X65686015Y-68820709D01*
X65686015Y-68820709D02*
X65609825Y-68896899D01*
X65609825Y-68896899D02*
X65571730Y-68973090D01*
X65571730Y-68973090D02*
X65571730Y-69125471D01*
X65571730Y-69125471D02*
X65609825Y-69201661D01*
X65609825Y-69201661D02*
X65686015Y-69277852D01*
X65686015Y-69277852D02*
X65838396Y-69315947D01*
X65838396Y-69315947D02*
X66105063Y-69315947D01*
X66105063Y-69315947D02*
X66257444Y-69277852D01*
X66257444Y-69277852D02*
X66333635Y-69201661D01*
X66333635Y-69201661D02*
X66371730Y-69125471D01*
X66371730Y-69125471D02*
X66371730Y-68973090D01*
X65647920Y-69620708D02*
X65609825Y-69658804D01*
X65609825Y-69658804D02*
X65571730Y-69734994D01*
X65571730Y-69734994D02*
X65571730Y-69925470D01*
X65571730Y-69925470D02*
X65609825Y-70001661D01*
X65609825Y-70001661D02*
X65647920Y-70039756D01*
X65647920Y-70039756D02*
X65724111Y-70077851D01*
X65724111Y-70077851D02*
X65800301Y-70077851D01*
X65800301Y-70077851D02*
X65914587Y-70039756D01*
X65914587Y-70039756D02*
X66371730Y-69582613D01*
X66371730Y-69582613D02*
X66371730Y-70077851D01*
X68040475Y-96062295D02*
X68040475Y-95262295D01*
X68040475Y-95262295D02*
X67849999Y-95262295D01*
X67849999Y-95262295D02*
X67735713Y-95300390D01*
X67735713Y-95300390D02*
X67659523Y-95376580D01*
X67659523Y-95376580D02*
X67621428Y-95452771D01*
X67621428Y-95452771D02*
X67583332Y-95605152D01*
X67583332Y-95605152D02*
X67583332Y-95719438D01*
X67583332Y-95719438D02*
X67621428Y-95871819D01*
X67621428Y-95871819D02*
X67659523Y-95948009D01*
X67659523Y-95948009D02*
X67735713Y-96024200D01*
X67735713Y-96024200D02*
X67849999Y-96062295D01*
X67849999Y-96062295D02*
X68040475Y-96062295D01*
X66897618Y-95528961D02*
X66897618Y-96062295D01*
X67088094Y-95224200D02*
X67278571Y-95795628D01*
X67278571Y-95795628D02*
X66783332Y-95795628D01*
X66712295Y-59735714D02*
X66331342Y-59469047D01*
X66712295Y-59278571D02*
X65912295Y-59278571D01*
X65912295Y-59278571D02*
X65912295Y-59583333D01*
X65912295Y-59583333D02*
X65950390Y-59659523D01*
X65950390Y-59659523D02*
X65988485Y-59697618D01*
X65988485Y-59697618D02*
X66064676Y-59735714D01*
X66064676Y-59735714D02*
X66178961Y-59735714D01*
X66178961Y-59735714D02*
X66255152Y-59697618D01*
X66255152Y-59697618D02*
X66293247Y-59659523D01*
X66293247Y-59659523D02*
X66331342Y-59583333D01*
X66331342Y-59583333D02*
X66331342Y-59278571D01*
X66712295Y-60497618D02*
X66712295Y-60040475D01*
X66712295Y-60269047D02*
X65912295Y-60269047D01*
X65912295Y-60269047D02*
X66026580Y-60192856D01*
X66026580Y-60192856D02*
X66102771Y-60116666D01*
X66102771Y-60116666D02*
X66140866Y-60040475D01*
X65912295Y-61221428D02*
X65912295Y-60840476D01*
X65912295Y-60840476D02*
X66293247Y-60802380D01*
X66293247Y-60802380D02*
X66255152Y-60840476D01*
X66255152Y-60840476D02*
X66217057Y-60916666D01*
X66217057Y-60916666D02*
X66217057Y-61107142D01*
X66217057Y-61107142D02*
X66255152Y-61183333D01*
X66255152Y-61183333D02*
X66293247Y-61221428D01*
X66293247Y-61221428D02*
X66369438Y-61259523D01*
X66369438Y-61259523D02*
X66559914Y-61259523D01*
X66559914Y-61259523D02*
X66636104Y-61221428D01*
X66636104Y-61221428D02*
X66674200Y-61183333D01*
X66674200Y-61183333D02*
X66712295Y-61107142D01*
X66712295Y-61107142D02*
X66712295Y-60916666D01*
X66712295Y-60916666D02*
X66674200Y-60840476D01*
X66674200Y-60840476D02*
X66636104Y-60802380D01*
X80086104Y-64816667D02*
X80124200Y-64778571D01*
X80124200Y-64778571D02*
X80162295Y-64664286D01*
X80162295Y-64664286D02*
X80162295Y-64588095D01*
X80162295Y-64588095D02*
X80124200Y-64473809D01*
X80124200Y-64473809D02*
X80048009Y-64397619D01*
X80048009Y-64397619D02*
X79971819Y-64359524D01*
X79971819Y-64359524D02*
X79819438Y-64321428D01*
X79819438Y-64321428D02*
X79705152Y-64321428D01*
X79705152Y-64321428D02*
X79552771Y-64359524D01*
X79552771Y-64359524D02*
X79476580Y-64397619D01*
X79476580Y-64397619D02*
X79400390Y-64473809D01*
X79400390Y-64473809D02*
X79362295Y-64588095D01*
X79362295Y-64588095D02*
X79362295Y-64664286D01*
X79362295Y-64664286D02*
X79400390Y-64778571D01*
X79400390Y-64778571D02*
X79438485Y-64816667D01*
X79362295Y-65083333D02*
X79362295Y-65616667D01*
X79362295Y-65616667D02*
X80162295Y-65273809D01*
X62404851Y-69402200D02*
X62366756Y-69326010D01*
X62366756Y-69326010D02*
X62290566Y-69249819D01*
X62290566Y-69249819D02*
X62176280Y-69135533D01*
X62176280Y-69135533D02*
X62138185Y-69059343D01*
X62138185Y-69059343D02*
X62138185Y-68983152D01*
X62328661Y-69021248D02*
X62290566Y-68945057D01*
X62290566Y-68945057D02*
X62214375Y-68868867D01*
X62214375Y-68868867D02*
X62061994Y-68830771D01*
X62061994Y-68830771D02*
X61795327Y-68830771D01*
X61795327Y-68830771D02*
X61642946Y-68868867D01*
X61642946Y-68868867D02*
X61566756Y-68945057D01*
X61566756Y-68945057D02*
X61528661Y-69021248D01*
X61528661Y-69021248D02*
X61528661Y-69173629D01*
X61528661Y-69173629D02*
X61566756Y-69249819D01*
X61566756Y-69249819D02*
X61642946Y-69326010D01*
X61642946Y-69326010D02*
X61795327Y-69364105D01*
X61795327Y-69364105D02*
X62061994Y-69364105D01*
X62061994Y-69364105D02*
X62214375Y-69326010D01*
X62214375Y-69326010D02*
X62290566Y-69249819D01*
X62290566Y-69249819D02*
X62328661Y-69173629D01*
X62328661Y-69173629D02*
X62328661Y-69021248D01*
X61528661Y-69630771D02*
X61528661Y-70126009D01*
X61528661Y-70126009D02*
X61833423Y-69859343D01*
X61833423Y-69859343D02*
X61833423Y-69973628D01*
X61833423Y-69973628D02*
X61871518Y-70049819D01*
X61871518Y-70049819D02*
X61909613Y-70087914D01*
X61909613Y-70087914D02*
X61985804Y-70126009D01*
X61985804Y-70126009D02*
X62176280Y-70126009D01*
X62176280Y-70126009D02*
X62252470Y-70087914D01*
X62252470Y-70087914D02*
X62290566Y-70049819D01*
X62290566Y-70049819D02*
X62328661Y-69973628D01*
X62328661Y-69973628D02*
X62328661Y-69745057D01*
X62328661Y-69745057D02*
X62290566Y-69668866D01*
X62290566Y-69668866D02*
X62252470Y-69630771D01*
X58158496Y-69436538D02*
X58120401Y-69360348D01*
X58120401Y-69360348D02*
X58044211Y-69284157D01*
X58044211Y-69284157D02*
X57929925Y-69169871D01*
X57929925Y-69169871D02*
X57891830Y-69093681D01*
X57891830Y-69093681D02*
X57891830Y-69017490D01*
X58082306Y-69055586D02*
X58044211Y-68979395D01*
X58044211Y-68979395D02*
X57968020Y-68903205D01*
X57968020Y-68903205D02*
X57815639Y-68865109D01*
X57815639Y-68865109D02*
X57548972Y-68865109D01*
X57548972Y-68865109D02*
X57396591Y-68903205D01*
X57396591Y-68903205D02*
X57320401Y-68979395D01*
X57320401Y-68979395D02*
X57282306Y-69055586D01*
X57282306Y-69055586D02*
X57282306Y-69207967D01*
X57282306Y-69207967D02*
X57320401Y-69284157D01*
X57320401Y-69284157D02*
X57396591Y-69360348D01*
X57396591Y-69360348D02*
X57548972Y-69398443D01*
X57548972Y-69398443D02*
X57815639Y-69398443D01*
X57815639Y-69398443D02*
X57968020Y-69360348D01*
X57968020Y-69360348D02*
X58044211Y-69284157D01*
X58044211Y-69284157D02*
X58082306Y-69207967D01*
X58082306Y-69207967D02*
X58082306Y-69055586D01*
X57548972Y-70084157D02*
X58082306Y-70084157D01*
X57244211Y-69893681D02*
X57815639Y-69703204D01*
X57815639Y-69703204D02*
X57815639Y-70198443D01*
X72728963Y-72513082D02*
X72995630Y-72132129D01*
X73186106Y-72513082D02*
X73186106Y-71713082D01*
X73186106Y-71713082D02*
X72881344Y-71713082D01*
X72881344Y-71713082D02*
X72805154Y-71751177D01*
X72805154Y-71751177D02*
X72767059Y-71789272D01*
X72767059Y-71789272D02*
X72728963Y-71865463D01*
X72728963Y-71865463D02*
X72728963Y-71979748D01*
X72728963Y-71979748D02*
X72767059Y-72055939D01*
X72767059Y-72055939D02*
X72805154Y-72094034D01*
X72805154Y-72094034D02*
X72881344Y-72132129D01*
X72881344Y-72132129D02*
X73186106Y-72132129D01*
X71967059Y-72513082D02*
X72424202Y-72513082D01*
X72195630Y-72513082D02*
X72195630Y-71713082D01*
X72195630Y-71713082D02*
X72271821Y-71827367D01*
X72271821Y-71827367D02*
X72348011Y-71903558D01*
X72348011Y-71903558D02*
X72424202Y-71941653D01*
X71662297Y-71789272D02*
X71624201Y-71751177D01*
X71624201Y-71751177D02*
X71548011Y-71713082D01*
X71548011Y-71713082D02*
X71357535Y-71713082D01*
X71357535Y-71713082D02*
X71281344Y-71751177D01*
X71281344Y-71751177D02*
X71243249Y-71789272D01*
X71243249Y-71789272D02*
X71205154Y-71865463D01*
X71205154Y-71865463D02*
X71205154Y-71941653D01*
X71205154Y-71941653D02*
X71243249Y-72055939D01*
X71243249Y-72055939D02*
X71700392Y-72513082D01*
X71700392Y-72513082D02*
X71205154Y-72513082D01*
X64262295Y-59735714D02*
X63881342Y-59469047D01*
X64262295Y-59278571D02*
X63462295Y-59278571D01*
X63462295Y-59278571D02*
X63462295Y-59583333D01*
X63462295Y-59583333D02*
X63500390Y-59659523D01*
X63500390Y-59659523D02*
X63538485Y-59697618D01*
X63538485Y-59697618D02*
X63614676Y-59735714D01*
X63614676Y-59735714D02*
X63728961Y-59735714D01*
X63728961Y-59735714D02*
X63805152Y-59697618D01*
X63805152Y-59697618D02*
X63843247Y-59659523D01*
X63843247Y-59659523D02*
X63881342Y-59583333D01*
X63881342Y-59583333D02*
X63881342Y-59278571D01*
X64262295Y-60497618D02*
X64262295Y-60040475D01*
X64262295Y-60269047D02*
X63462295Y-60269047D01*
X63462295Y-60269047D02*
X63576580Y-60192856D01*
X63576580Y-60192856D02*
X63652771Y-60116666D01*
X63652771Y-60116666D02*
X63690866Y-60040475D01*
X63462295Y-60764285D02*
X63462295Y-61297619D01*
X63462295Y-61297619D02*
X64262295Y-60954761D01*
X65186631Y-96089535D02*
X65186631Y-95289535D01*
X65186631Y-95289535D02*
X64996155Y-95289535D01*
X64996155Y-95289535D02*
X64881869Y-95327630D01*
X64881869Y-95327630D02*
X64805679Y-95403820D01*
X64805679Y-95403820D02*
X64767584Y-95480011D01*
X64767584Y-95480011D02*
X64729488Y-95632392D01*
X64729488Y-95632392D02*
X64729488Y-95746678D01*
X64729488Y-95746678D02*
X64767584Y-95899059D01*
X64767584Y-95899059D02*
X64805679Y-95975249D01*
X64805679Y-95975249D02*
X64881869Y-96051440D01*
X64881869Y-96051440D02*
X64996155Y-96089535D01*
X64996155Y-96089535D02*
X65186631Y-96089535D01*
X64462822Y-95289535D02*
X63967584Y-95289535D01*
X63967584Y-95289535D02*
X64234250Y-95594297D01*
X64234250Y-95594297D02*
X64119965Y-95594297D01*
X64119965Y-95594297D02*
X64043774Y-95632392D01*
X64043774Y-95632392D02*
X64005679Y-95670487D01*
X64005679Y-95670487D02*
X63967584Y-95746678D01*
X63967584Y-95746678D02*
X63967584Y-95937154D01*
X63967584Y-95937154D02*
X64005679Y-96013344D01*
X64005679Y-96013344D02*
X64043774Y-96051440D01*
X64043774Y-96051440D02*
X64119965Y-96089535D01*
X64119965Y-96089535D02*
X64348536Y-96089535D01*
X64348536Y-96089535D02*
X64424727Y-96051440D01*
X64424727Y-96051440D02*
X64462822Y-96013344D01*
X102362295Y-76416667D02*
X101981342Y-76150000D01*
X102362295Y-75959524D02*
X101562295Y-75959524D01*
X101562295Y-75959524D02*
X101562295Y-76264286D01*
X101562295Y-76264286D02*
X101600390Y-76340476D01*
X101600390Y-76340476D02*
X101638485Y-76378571D01*
X101638485Y-76378571D02*
X101714676Y-76416667D01*
X101714676Y-76416667D02*
X101828961Y-76416667D01*
X101828961Y-76416667D02*
X101905152Y-76378571D01*
X101905152Y-76378571D02*
X101943247Y-76340476D01*
X101943247Y-76340476D02*
X101981342Y-76264286D01*
X101981342Y-76264286D02*
X101981342Y-75959524D01*
X101562295Y-77140476D02*
X101562295Y-76759524D01*
X101562295Y-76759524D02*
X101943247Y-76721428D01*
X101943247Y-76721428D02*
X101905152Y-76759524D01*
X101905152Y-76759524D02*
X101867057Y-76835714D01*
X101867057Y-76835714D02*
X101867057Y-77026190D01*
X101867057Y-77026190D02*
X101905152Y-77102381D01*
X101905152Y-77102381D02*
X101943247Y-77140476D01*
X101943247Y-77140476D02*
X102019438Y-77178571D01*
X102019438Y-77178571D02*
X102209914Y-77178571D01*
X102209914Y-77178571D02*
X102286104Y-77140476D01*
X102286104Y-77140476D02*
X102324200Y-77102381D01*
X102324200Y-77102381D02*
X102362295Y-77026190D01*
X102362295Y-77026190D02*
X102362295Y-76835714D01*
X102362295Y-76835714D02*
X102324200Y-76759524D01*
X102324200Y-76759524D02*
X102286104Y-76721428D01*
X74462295Y-83066667D02*
X74081342Y-82800000D01*
X74462295Y-82609524D02*
X73662295Y-82609524D01*
X73662295Y-82609524D02*
X73662295Y-82914286D01*
X73662295Y-82914286D02*
X73700390Y-82990476D01*
X73700390Y-82990476D02*
X73738485Y-83028571D01*
X73738485Y-83028571D02*
X73814676Y-83066667D01*
X73814676Y-83066667D02*
X73928961Y-83066667D01*
X73928961Y-83066667D02*
X74005152Y-83028571D01*
X74005152Y-83028571D02*
X74043247Y-82990476D01*
X74043247Y-82990476D02*
X74081342Y-82914286D01*
X74081342Y-82914286D02*
X74081342Y-82609524D01*
X73662295Y-83333333D02*
X73662295Y-83828571D01*
X73662295Y-83828571D02*
X73967057Y-83561905D01*
X73967057Y-83561905D02*
X73967057Y-83676190D01*
X73967057Y-83676190D02*
X74005152Y-83752381D01*
X74005152Y-83752381D02*
X74043247Y-83790476D01*
X74043247Y-83790476D02*
X74119438Y-83828571D01*
X74119438Y-83828571D02*
X74309914Y-83828571D01*
X74309914Y-83828571D02*
X74386104Y-83790476D01*
X74386104Y-83790476D02*
X74424200Y-83752381D01*
X74424200Y-83752381D02*
X74462295Y-83676190D01*
X74462295Y-83676190D02*
X74462295Y-83447619D01*
X74462295Y-83447619D02*
X74424200Y-83371428D01*
X74424200Y-83371428D02*
X74386104Y-83333333D01*
X61662295Y-59735714D02*
X61281342Y-59469047D01*
X61662295Y-59278571D02*
X60862295Y-59278571D01*
X60862295Y-59278571D02*
X60862295Y-59583333D01*
X60862295Y-59583333D02*
X60900390Y-59659523D01*
X60900390Y-59659523D02*
X60938485Y-59697618D01*
X60938485Y-59697618D02*
X61014676Y-59735714D01*
X61014676Y-59735714D02*
X61128961Y-59735714D01*
X61128961Y-59735714D02*
X61205152Y-59697618D01*
X61205152Y-59697618D02*
X61243247Y-59659523D01*
X61243247Y-59659523D02*
X61281342Y-59583333D01*
X61281342Y-59583333D02*
X61281342Y-59278571D01*
X61662295Y-60497618D02*
X61662295Y-60040475D01*
X61662295Y-60269047D02*
X60862295Y-60269047D01*
X60862295Y-60269047D02*
X60976580Y-60192856D01*
X60976580Y-60192856D02*
X61052771Y-60116666D01*
X61052771Y-60116666D02*
X61090866Y-60040475D01*
X61662295Y-60878571D02*
X61662295Y-61030952D01*
X61662295Y-61030952D02*
X61624200Y-61107142D01*
X61624200Y-61107142D02*
X61586104Y-61145238D01*
X61586104Y-61145238D02*
X61471819Y-61221428D01*
X61471819Y-61221428D02*
X61319438Y-61259523D01*
X61319438Y-61259523D02*
X61014676Y-61259523D01*
X61014676Y-61259523D02*
X60938485Y-61221428D01*
X60938485Y-61221428D02*
X60900390Y-61183333D01*
X60900390Y-61183333D02*
X60862295Y-61107142D01*
X60862295Y-61107142D02*
X60862295Y-60954761D01*
X60862295Y-60954761D02*
X60900390Y-60878571D01*
X60900390Y-60878571D02*
X60938485Y-60840476D01*
X60938485Y-60840476D02*
X61014676Y-60802380D01*
X61014676Y-60802380D02*
X61205152Y-60802380D01*
X61205152Y-60802380D02*
X61281342Y-60840476D01*
X61281342Y-60840476D02*
X61319438Y-60878571D01*
X61319438Y-60878571D02*
X61357533Y-60954761D01*
X61357533Y-60954761D02*
X61357533Y-61107142D01*
X61357533Y-61107142D02*
X61319438Y-61183333D01*
X61319438Y-61183333D02*
X61281342Y-61221428D01*
X61281342Y-61221428D02*
X61205152Y-61259523D01*
X64550272Y-72536191D02*
X64816939Y-72155238D01*
X65007415Y-72536191D02*
X65007415Y-71736191D01*
X65007415Y-71736191D02*
X64702653Y-71736191D01*
X64702653Y-71736191D02*
X64626463Y-71774286D01*
X64626463Y-71774286D02*
X64588368Y-71812381D01*
X64588368Y-71812381D02*
X64550272Y-71888572D01*
X64550272Y-71888572D02*
X64550272Y-72002857D01*
X64550272Y-72002857D02*
X64588368Y-72079048D01*
X64588368Y-72079048D02*
X64626463Y-72117143D01*
X64626463Y-72117143D02*
X64702653Y-72155238D01*
X64702653Y-72155238D02*
X65007415Y-72155238D01*
X63788368Y-72536191D02*
X64245511Y-72536191D01*
X64016939Y-72536191D02*
X64016939Y-71736191D01*
X64016939Y-71736191D02*
X64093130Y-71850476D01*
X64093130Y-71850476D02*
X64169320Y-71926667D01*
X64169320Y-71926667D02*
X64245511Y-71964762D01*
X63102653Y-71736191D02*
X63255034Y-71736191D01*
X63255034Y-71736191D02*
X63331225Y-71774286D01*
X63331225Y-71774286D02*
X63369320Y-71812381D01*
X63369320Y-71812381D02*
X63445510Y-71926667D01*
X63445510Y-71926667D02*
X63483606Y-72079048D01*
X63483606Y-72079048D02*
X63483606Y-72383810D01*
X63483606Y-72383810D02*
X63445510Y-72460000D01*
X63445510Y-72460000D02*
X63407415Y-72498096D01*
X63407415Y-72498096D02*
X63331225Y-72536191D01*
X63331225Y-72536191D02*
X63178844Y-72536191D01*
X63178844Y-72536191D02*
X63102653Y-72498096D01*
X63102653Y-72498096D02*
X63064558Y-72460000D01*
X63064558Y-72460000D02*
X63026463Y-72383810D01*
X63026463Y-72383810D02*
X63026463Y-72193334D01*
X63026463Y-72193334D02*
X63064558Y-72117143D01*
X63064558Y-72117143D02*
X63102653Y-72079048D01*
X63102653Y-72079048D02*
X63178844Y-72040953D01*
X63178844Y-72040953D02*
X63331225Y-72040953D01*
X63331225Y-72040953D02*
X63407415Y-72079048D01*
X63407415Y-72079048D02*
X63445510Y-72117143D01*
X63445510Y-72117143D02*
X63483606Y-72193334D01*
X75762295Y-83066667D02*
X75381342Y-82800000D01*
X75762295Y-82609524D02*
X74962295Y-82609524D01*
X74962295Y-82609524D02*
X74962295Y-82914286D01*
X74962295Y-82914286D02*
X75000390Y-82990476D01*
X75000390Y-82990476D02*
X75038485Y-83028571D01*
X75038485Y-83028571D02*
X75114676Y-83066667D01*
X75114676Y-83066667D02*
X75228961Y-83066667D01*
X75228961Y-83066667D02*
X75305152Y-83028571D01*
X75305152Y-83028571D02*
X75343247Y-82990476D01*
X75343247Y-82990476D02*
X75381342Y-82914286D01*
X75381342Y-82914286D02*
X75381342Y-82609524D01*
X75228961Y-83752381D02*
X75762295Y-83752381D01*
X74924200Y-83561905D02*
X75495628Y-83371428D01*
X75495628Y-83371428D02*
X75495628Y-83866667D01*
X110110421Y-77757837D02*
X110377088Y-77376884D01*
X110567564Y-77757837D02*
X110567564Y-76957837D01*
X110567564Y-76957837D02*
X110262802Y-76957837D01*
X110262802Y-76957837D02*
X110186612Y-76995932D01*
X110186612Y-76995932D02*
X110148517Y-77034027D01*
X110148517Y-77034027D02*
X110110421Y-77110218D01*
X110110421Y-77110218D02*
X110110421Y-77224503D01*
X110110421Y-77224503D02*
X110148517Y-77300694D01*
X110148517Y-77300694D02*
X110186612Y-77338789D01*
X110186612Y-77338789D02*
X110262802Y-77376884D01*
X110262802Y-77376884D02*
X110567564Y-77376884D01*
X109348517Y-77757837D02*
X109805660Y-77757837D01*
X109577088Y-77757837D02*
X109577088Y-76957837D01*
X109577088Y-76957837D02*
X109653279Y-77072122D01*
X109653279Y-77072122D02*
X109729469Y-77148313D01*
X109729469Y-77148313D02*
X109805660Y-77186408D01*
X108586612Y-77757837D02*
X109043755Y-77757837D01*
X108815183Y-77757837D02*
X108815183Y-76957837D01*
X108815183Y-76957837D02*
X108891374Y-77072122D01*
X108891374Y-77072122D02*
X108967564Y-77148313D01*
X108967564Y-77148313D02*
X109043755Y-77186408D01*
X104283417Y-71663858D02*
X104550084Y-71282905D01*
X104740560Y-71663858D02*
X104740560Y-70863858D01*
X104740560Y-70863858D02*
X104435798Y-70863858D01*
X104435798Y-70863858D02*
X104359608Y-70901953D01*
X104359608Y-70901953D02*
X104321513Y-70940048D01*
X104321513Y-70940048D02*
X104283417Y-71016239D01*
X104283417Y-71016239D02*
X104283417Y-71130524D01*
X104283417Y-71130524D02*
X104321513Y-71206715D01*
X104321513Y-71206715D02*
X104359608Y-71244810D01*
X104359608Y-71244810D02*
X104435798Y-71282905D01*
X104435798Y-71282905D02*
X104740560Y-71282905D01*
X103597703Y-70863858D02*
X103750084Y-70863858D01*
X103750084Y-70863858D02*
X103826275Y-70901953D01*
X103826275Y-70901953D02*
X103864370Y-70940048D01*
X103864370Y-70940048D02*
X103940560Y-71054334D01*
X103940560Y-71054334D02*
X103978656Y-71206715D01*
X103978656Y-71206715D02*
X103978656Y-71511477D01*
X103978656Y-71511477D02*
X103940560Y-71587667D01*
X103940560Y-71587667D02*
X103902465Y-71625763D01*
X103902465Y-71625763D02*
X103826275Y-71663858D01*
X103826275Y-71663858D02*
X103673894Y-71663858D01*
X103673894Y-71663858D02*
X103597703Y-71625763D01*
X103597703Y-71625763D02*
X103559608Y-71587667D01*
X103559608Y-71587667D02*
X103521513Y-71511477D01*
X103521513Y-71511477D02*
X103521513Y-71321001D01*
X103521513Y-71321001D02*
X103559608Y-71244810D01*
X103559608Y-71244810D02*
X103597703Y-71206715D01*
X103597703Y-71206715D02*
X103673894Y-71168620D01*
X103673894Y-71168620D02*
X103826275Y-71168620D01*
X103826275Y-71168620D02*
X103902465Y-71206715D01*
X103902465Y-71206715D02*
X103940560Y-71244810D01*
X103940560Y-71244810D02*
X103978656Y-71321001D01*
X60308304Y-72534702D02*
X60574971Y-72153749D01*
X60765447Y-72534702D02*
X60765447Y-71734702D01*
X60765447Y-71734702D02*
X60460685Y-71734702D01*
X60460685Y-71734702D02*
X60384495Y-71772797D01*
X60384495Y-71772797D02*
X60346400Y-71810892D01*
X60346400Y-71810892D02*
X60308304Y-71887083D01*
X60308304Y-71887083D02*
X60308304Y-72001368D01*
X60308304Y-72001368D02*
X60346400Y-72077559D01*
X60346400Y-72077559D02*
X60384495Y-72115654D01*
X60384495Y-72115654D02*
X60460685Y-72153749D01*
X60460685Y-72153749D02*
X60765447Y-72153749D01*
X59546400Y-72534702D02*
X60003543Y-72534702D01*
X59774971Y-72534702D02*
X59774971Y-71734702D01*
X59774971Y-71734702D02*
X59851162Y-71848987D01*
X59851162Y-71848987D02*
X59927352Y-71925178D01*
X59927352Y-71925178D02*
X60003543Y-71963273D01*
X59089257Y-72077559D02*
X59165447Y-72039464D01*
X59165447Y-72039464D02*
X59203542Y-72001368D01*
X59203542Y-72001368D02*
X59241638Y-71925178D01*
X59241638Y-71925178D02*
X59241638Y-71887083D01*
X59241638Y-71887083D02*
X59203542Y-71810892D01*
X59203542Y-71810892D02*
X59165447Y-71772797D01*
X59165447Y-71772797D02*
X59089257Y-71734702D01*
X59089257Y-71734702D02*
X58936876Y-71734702D01*
X58936876Y-71734702D02*
X58860685Y-71772797D01*
X58860685Y-71772797D02*
X58822590Y-71810892D01*
X58822590Y-71810892D02*
X58784495Y-71887083D01*
X58784495Y-71887083D02*
X58784495Y-71925178D01*
X58784495Y-71925178D02*
X58822590Y-72001368D01*
X58822590Y-72001368D02*
X58860685Y-72039464D01*
X58860685Y-72039464D02*
X58936876Y-72077559D01*
X58936876Y-72077559D02*
X59089257Y-72077559D01*
X59089257Y-72077559D02*
X59165447Y-72115654D01*
X59165447Y-72115654D02*
X59203542Y-72153749D01*
X59203542Y-72153749D02*
X59241638Y-72229940D01*
X59241638Y-72229940D02*
X59241638Y-72382321D01*
X59241638Y-72382321D02*
X59203542Y-72458511D01*
X59203542Y-72458511D02*
X59165447Y-72496607D01*
X59165447Y-72496607D02*
X59089257Y-72534702D01*
X59089257Y-72534702D02*
X58936876Y-72534702D01*
X58936876Y-72534702D02*
X58860685Y-72496607D01*
X58860685Y-72496607D02*
X58822590Y-72458511D01*
X58822590Y-72458511D02*
X58784495Y-72382321D01*
X58784495Y-72382321D02*
X58784495Y-72229940D01*
X58784495Y-72229940D02*
X58822590Y-72153749D01*
X58822590Y-72153749D02*
X58860685Y-72115654D01*
X58860685Y-72115654D02*
X58936876Y-72077559D01*
X68615338Y-72513082D02*
X68882005Y-72132129D01*
X69072481Y-72513082D02*
X69072481Y-71713082D01*
X69072481Y-71713082D02*
X68767719Y-71713082D01*
X68767719Y-71713082D02*
X68691529Y-71751177D01*
X68691529Y-71751177D02*
X68653434Y-71789272D01*
X68653434Y-71789272D02*
X68615338Y-71865463D01*
X68615338Y-71865463D02*
X68615338Y-71979748D01*
X68615338Y-71979748D02*
X68653434Y-72055939D01*
X68653434Y-72055939D02*
X68691529Y-72094034D01*
X68691529Y-72094034D02*
X68767719Y-72132129D01*
X68767719Y-72132129D02*
X69072481Y-72132129D01*
X67853434Y-72513082D02*
X68310577Y-72513082D01*
X68082005Y-72513082D02*
X68082005Y-71713082D01*
X68082005Y-71713082D02*
X68158196Y-71827367D01*
X68158196Y-71827367D02*
X68234386Y-71903558D01*
X68234386Y-71903558D02*
X68310577Y-71941653D01*
X67167719Y-71979748D02*
X67167719Y-72513082D01*
X67358195Y-71674987D02*
X67548672Y-72246415D01*
X67548672Y-72246415D02*
X67053433Y-72246415D01*
X70555216Y-69319680D02*
X70517121Y-69243490D01*
X70517121Y-69243490D02*
X70440931Y-69167299D01*
X70440931Y-69167299D02*
X70326645Y-69053013D01*
X70326645Y-69053013D02*
X70288550Y-68976823D01*
X70288550Y-68976823D02*
X70288550Y-68900632D01*
X70479026Y-68938728D02*
X70440931Y-68862537D01*
X70440931Y-68862537D02*
X70364740Y-68786347D01*
X70364740Y-68786347D02*
X70212359Y-68748251D01*
X70212359Y-68748251D02*
X69945692Y-68748251D01*
X69945692Y-68748251D02*
X69793311Y-68786347D01*
X69793311Y-68786347D02*
X69717121Y-68862537D01*
X69717121Y-68862537D02*
X69679026Y-68938728D01*
X69679026Y-68938728D02*
X69679026Y-69091109D01*
X69679026Y-69091109D02*
X69717121Y-69167299D01*
X69717121Y-69167299D02*
X69793311Y-69243490D01*
X69793311Y-69243490D02*
X69945692Y-69281585D01*
X69945692Y-69281585D02*
X70212359Y-69281585D01*
X70212359Y-69281585D02*
X70364740Y-69243490D01*
X70364740Y-69243490D02*
X70440931Y-69167299D01*
X70440931Y-69167299D02*
X70479026Y-69091109D01*
X70479026Y-69091109D02*
X70479026Y-68938728D01*
X70479026Y-70043489D02*
X70479026Y-69586346D01*
X70479026Y-69814918D02*
X69679026Y-69814918D01*
X69679026Y-69814918D02*
X69793311Y-69738727D01*
X69793311Y-69738727D02*
X69869502Y-69662537D01*
X69869502Y-69662537D02*
X69907597Y-69586346D01*
X114504124Y-77757837D02*
X114770791Y-77376884D01*
X114961267Y-77757837D02*
X114961267Y-76957837D01*
X114961267Y-76957837D02*
X114656505Y-76957837D01*
X114656505Y-76957837D02*
X114580315Y-76995932D01*
X114580315Y-76995932D02*
X114542220Y-77034027D01*
X114542220Y-77034027D02*
X114504124Y-77110218D01*
X114504124Y-77110218D02*
X114504124Y-77224503D01*
X114504124Y-77224503D02*
X114542220Y-77300694D01*
X114542220Y-77300694D02*
X114580315Y-77338789D01*
X114580315Y-77338789D02*
X114656505Y-77376884D01*
X114656505Y-77376884D02*
X114961267Y-77376884D01*
X113742220Y-77757837D02*
X114199363Y-77757837D01*
X113970791Y-77757837D02*
X113970791Y-76957837D01*
X113970791Y-76957837D02*
X114046982Y-77072122D01*
X114046982Y-77072122D02*
X114123172Y-77148313D01*
X114123172Y-77148313D02*
X114199363Y-77186408D01*
X113246981Y-76957837D02*
X113170791Y-76957837D01*
X113170791Y-76957837D02*
X113094600Y-76995932D01*
X113094600Y-76995932D02*
X113056505Y-77034027D01*
X113056505Y-77034027D02*
X113018410Y-77110218D01*
X113018410Y-77110218D02*
X112980315Y-77262599D01*
X112980315Y-77262599D02*
X112980315Y-77453075D01*
X112980315Y-77453075D02*
X113018410Y-77605456D01*
X113018410Y-77605456D02*
X113056505Y-77681646D01*
X113056505Y-77681646D02*
X113094600Y-77719742D01*
X113094600Y-77719742D02*
X113170791Y-77757837D01*
X113170791Y-77757837D02*
X113246981Y-77757837D01*
X113246981Y-77757837D02*
X113323172Y-77719742D01*
X113323172Y-77719742D02*
X113361267Y-77681646D01*
X113361267Y-77681646D02*
X113399362Y-77605456D01*
X113399362Y-77605456D02*
X113437458Y-77453075D01*
X113437458Y-77453075D02*
X113437458Y-77262599D01*
X113437458Y-77262599D02*
X113399362Y-77110218D01*
X113399362Y-77110218D02*
X113361267Y-77034027D01*
X113361267Y-77034027D02*
X113323172Y-76995932D01*
X113323172Y-76995932D02*
X113246981Y-76957837D01*
D11*
%TO.C,R13*%
X69590681Y-59985896D02*
X69590681Y-60495344D01*
X70635681Y-59985896D02*
X70635681Y-60495344D01*
%TO.C,C8*%
X81113922Y-62083340D02*
X81113922Y-62605844D01*
X82583922Y-62083340D02*
X82583922Y-62605844D01*
%TO.C,Q2*%
X66455031Y-66907733D02*
X66455031Y-68427733D01*
X66455031Y-68427733D02*
X66505031Y-68427733D01*
X67455031Y-66907733D02*
X66455031Y-66907733D01*
X67625031Y-68427733D02*
X68405031Y-68427733D01*
X69525031Y-68427733D02*
X69575031Y-68427733D01*
X69575031Y-66907733D02*
X68575031Y-66907733D01*
X69575031Y-68427733D02*
X69575031Y-66907733D01*
X68395031Y-68967733D02*
X68065031Y-69207733D01*
X68065031Y-68727733D01*
X68395031Y-68967733D01*
G36*
X68395031Y-68967733D02*
G01*
X68065031Y-69207733D01*
X68065031Y-68727733D01*
X68395031Y-68967733D01*
G37*
%TO.C,D4*%
X66723282Y-96395370D02*
X68683282Y-96395370D01*
X66723282Y-97595370D02*
X68683282Y-97595370D01*
X68683282Y-96395370D02*
X68683282Y-97595370D01*
%TO.C,R15*%
X67097111Y-59987227D02*
X67097111Y-60496675D01*
X68142111Y-59987227D02*
X68142111Y-60496675D01*
%TO.C,C7*%
X79291535Y-62202381D02*
X79291535Y-62494915D01*
X80311535Y-62202381D02*
X80311535Y-62494915D01*
%TO.C,Q3*%
X62406366Y-66955891D02*
X62406366Y-68475891D01*
X62406366Y-68475891D02*
X62456366Y-68475891D01*
X63406366Y-66955891D02*
X62406366Y-66955891D01*
X63576366Y-68475891D02*
X64356366Y-68475891D01*
X65476366Y-68475891D02*
X65526366Y-68475891D01*
X65526366Y-66955891D02*
X64526366Y-66955891D01*
X65526366Y-68475891D02*
X65526366Y-66955891D01*
X64346366Y-69015891D02*
X64016366Y-69255891D01*
X64016366Y-68775891D01*
X64346366Y-69015891D01*
G36*
X64346366Y-69015891D02*
G01*
X64016366Y-69255891D01*
X64016366Y-68775891D01*
X64346366Y-69015891D01*
G37*
%TO.C,Q4*%
X58160000Y-66979565D02*
X58160000Y-68499565D01*
X58160000Y-68499565D02*
X58210000Y-68499565D01*
X59160000Y-66979565D02*
X58160000Y-66979565D01*
X59330000Y-68499565D02*
X60110000Y-68499565D01*
X61230000Y-68499565D02*
X61280000Y-68499565D01*
X61280000Y-66979565D02*
X60280000Y-66979565D01*
X61280000Y-68499565D02*
X61280000Y-66979565D01*
X60100000Y-69039565D02*
X59770000Y-69279565D01*
X59770000Y-68799565D01*
X60100000Y-69039565D01*
G36*
X60100000Y-69039565D02*
G01*
X59770000Y-69279565D01*
X59770000Y-68799565D01*
X60100000Y-69039565D01*
G37*
%TO.C,R12*%
X72442947Y-70299796D02*
X71933499Y-70299796D01*
X72442947Y-71344796D02*
X71933499Y-71344796D01*
%TO.C,R17*%
X64599933Y-59965680D02*
X64599933Y-60475128D01*
X65644933Y-59965680D02*
X65644933Y-60475128D01*
%TO.C,D3*%
X63286447Y-97595370D02*
X63286447Y-96395370D01*
X65246447Y-96395370D02*
X63286447Y-96395370D01*
X65246447Y-97595370D02*
X63286447Y-97595370D01*
%TO.C,R5*%
X102727500Y-76804724D02*
X102727500Y-76295276D01*
X103772500Y-76804724D02*
X103772500Y-76295276D01*
%TO.C,R3*%
X74965395Y-81179654D02*
X74965395Y-81514896D01*
X75725395Y-81179654D02*
X75725395Y-81514896D01*
%TO.C,R19*%
X62066058Y-59987227D02*
X62066058Y-60496675D01*
X63111058Y-59987227D02*
X63111058Y-60496675D01*
%TO.C,R16*%
X64264256Y-70322905D02*
X63754808Y-70322905D01*
X64264256Y-71367905D02*
X63754808Y-71367905D01*
%TO.C,R4*%
X73667458Y-81513541D02*
X73667458Y-81178299D01*
X74427458Y-81513541D02*
X74427458Y-81178299D01*
%TO.C,R11*%
X109345276Y-78177500D02*
X109854724Y-78177500D01*
X109345276Y-79222500D02*
X109854724Y-79222500D01*
%TO.C,R6*%
X104860635Y-71987718D02*
X103406507Y-71987718D01*
X104860635Y-73807718D02*
X103406507Y-73807718D01*
%TO.C,R18*%
X60009788Y-70321416D02*
X59500340Y-70321416D01*
X60009788Y-71366416D02*
X59500340Y-71366416D01*
%TO.C,R14*%
X68329322Y-70299796D02*
X67819874Y-70299796D01*
X68329322Y-71344796D02*
X67819874Y-71344796D01*
%TO.C,Q1*%
X70570941Y-66864745D02*
X70570941Y-68384745D01*
X70570941Y-68384745D02*
X70620941Y-68384745D01*
X71570941Y-66864745D02*
X70570941Y-66864745D01*
X71740941Y-68384745D02*
X72520941Y-68384745D01*
X73640941Y-68384745D02*
X73690941Y-68384745D01*
X73690941Y-66864745D02*
X72690941Y-66864745D01*
X73690941Y-68384745D02*
X73690941Y-66864745D01*
X72510941Y-68924745D02*
X72180941Y-69164745D01*
X72180941Y-68684745D01*
X72510941Y-68924745D01*
G36*
X72510941Y-68924745D02*
G01*
X72180941Y-69164745D01*
X72180941Y-68684745D01*
X72510941Y-68924745D01*
G37*
%TO.C,R10*%
X114254724Y-78177500D02*
X113745276Y-78177500D01*
X114254724Y-79222500D02*
X113745276Y-79222500D01*
%TD*%
M02*
