%TF.GenerationSoftware,KiCad,Pcbnew,9.0.5*%
%TF.CreationDate,2026-01-05T22:54:41+05:30*%
%TF.ProjectId,Dietarium,44696574-6172-4697-956d-2e6b69636164,rev?*%
%TF.SameCoordinates,Original*%
%TF.FileFunction,Soldermask,Top*%
%TF.FilePolarity,Negative*%
%FSLAX46Y46*%
G04 Gerber Fmt 4.6, Leading zero omitted, Abs format (unit mm)*
G04 Created by KiCad (PCBNEW 9.0.5) date 2026-01-05 22:54:41*
%MOMM*%
%LPD*%
G01*
G04 APERTURE LIST*
G04 Aperture macros list*
%AMRoundRect*
0 Rectangle with rounded corners*
0 $1 Rounding radius*
0 $2 $3 $4 $5 $6 $7 $8 $9 X,Y pos of 4 corners*
0 Add a 4 corners polygon primitive as box body*
4,1,4,$2,$3,$4,$5,$6,$7,$8,$9,$2,$3,0*
0 Add four circle primitives for the rounded corners*
1,1,$1+$1,$2,$3*
1,1,$1+$1,$4,$5*
1,1,$1+$1,$6,$7*
1,1,$1+$1,$8,$9*
0 Add four rect primitives between the rounded corners*
20,1,$1+$1,$2,$3,$4,$5,0*
20,1,$1+$1,$4,$5,$6,$7,0*
20,1,$1+$1,$6,$7,$8,$9,0*
20,1,$1+$1,$8,$9,$2,$3,0*%
G04 Aperture macros list end*
%ADD10RoundRect,0.237500X0.237500X-0.250000X0.237500X0.250000X-0.237500X0.250000X-0.237500X-0.250000X0*%
%ADD11RoundRect,0.250000X0.600000X0.725000X-0.600000X0.725000X-0.600000X-0.725000X0.600000X-0.725000X0*%
%ADD12O,1.700000X1.950000*%
%ADD13RoundRect,0.102000X-0.700000X0.700000X-0.700000X-0.700000X0.700000X-0.700000X0.700000X0.700000X0*%
%ADD14RoundRect,0.237500X0.237500X-0.300000X0.237500X0.300000X-0.237500X0.300000X-0.237500X-0.300000X0*%
%ADD15RoundRect,0.112500X0.187500X0.112500X-0.187500X0.112500X-0.187500X-0.112500X0.187500X-0.112500X0*%
%ADD16RoundRect,0.150000X0.200000X-0.150000X0.200000X0.150000X-0.200000X0.150000X-0.200000X-0.150000X0*%
%ADD17RoundRect,0.250000X0.725000X-0.600000X0.725000X0.600000X-0.725000X0.600000X-0.725000X-0.600000X0*%
%ADD18O,1.950000X1.700000*%
%ADD19C,3.900000*%
%ADD20C,7.000000*%
%ADD21C,1.800000*%
%ADD22RoundRect,0.218750X0.256250X-0.218750X0.256250X0.218750X-0.256250X0.218750X-0.256250X-0.218750X0*%
%ADD23RoundRect,0.237500X-0.300000X-0.237500X0.300000X-0.237500X0.300000X0.237500X-0.300000X0.237500X0*%
%ADD24C,0.650000*%
%ADD25R,0.600000X1.450000*%
%ADD26R,0.300000X1.450000*%
%ADD27O,1.000000X2.100000*%
%ADD28O,1.000000X1.600000*%
%ADD29C,3.250000*%
%ADD30R,1.800000X1.800000*%
%ADD31C,3.000000*%
%ADD32RoundRect,0.250000X-0.600000X-0.725000X0.600000X-0.725000X0.600000X0.725000X-0.600000X0.725000X0*%
%ADD33RoundRect,0.237500X-0.237500X0.250000X-0.237500X-0.250000X0.237500X-0.250000X0.237500X0.250000X0*%
%ADD34RoundRect,0.250000X0.450000X-0.350000X0.450000X0.350000X-0.450000X0.350000X-0.450000X-0.350000X0*%
%ADD35RoundRect,0.087500X-0.250000X-0.087500X0.250000X-0.087500X0.250000X0.087500X-0.250000X0.087500X0*%
%ADD36R,1.700000X1.700000*%
%ADD37C,1.700000*%
%ADD38RoundRect,0.266667X1.333333X-1.333333X1.333333X1.333333X-1.333333X1.333333X-1.333333X-1.333333X0*%
%ADD39O,3.200000X3.200000*%
%ADD40RoundRect,0.249999X3.500001X-0.850001X3.500001X0.850001X-3.500001X0.850001X-3.500001X-0.850001X0*%
%ADD41RoundRect,0.237500X-0.237500X0.300000X-0.237500X-0.300000X0.237500X-0.300000X0.237500X0.300000X0*%
%ADD42O,1.500000X1.500000*%
%ADD43R,1.500000X0.900000*%
%ADD44R,0.900000X1.500000*%
%ADD45C,0.600000*%
%ADD46R,3.900000X3.900000*%
G04 APERTURE END LIST*
D10*
%TO.C,R7*%
X58496419Y-97397702D03*
X58496419Y-95572702D03*
%TD*%
D11*
%TO.C,J5*%
X72597051Y-63545343D03*
D12*
X70097051Y-63545343D03*
X67597051Y-63545343D03*
X65097051Y-63545343D03*
X62597051Y-63545343D03*
X60097051Y-63545343D03*
%TD*%
D13*
%TO.C,S2*%
X62389930Y-79672390D03*
X62389930Y-86272390D03*
X59389930Y-79672390D03*
X59389930Y-86272390D03*
%TD*%
D14*
%TO.C,C9*%
X64499450Y-86299999D03*
X64499450Y-84574999D03*
%TD*%
D15*
%TO.C,D1*%
X67661201Y-90552045D03*
X65561201Y-90552045D03*
%TD*%
D16*
%TO.C,D2*%
X58473739Y-91173602D03*
X58473739Y-92573602D03*
%TD*%
D17*
%TO.C,J7*%
X126745255Y-104293247D03*
D18*
X126745255Y-101793247D03*
X126745255Y-99293247D03*
%TD*%
D19*
%TO.C,H4*%
X119516498Y-55014173D03*
D20*
X119516498Y-55014173D03*
%TD*%
D21*
%TO.C,JP2*%
X67647243Y-86455973D03*
X67647243Y-83915973D03*
%TD*%
D19*
%TO.C,H1*%
X55014297Y-103024875D03*
D20*
X55014297Y-103024875D03*
%TD*%
D14*
%TO.C,C2*%
X63313430Y-90563180D03*
X63313430Y-88838180D03*
%TD*%
%TO.C,C6*%
X70985203Y-80487431D03*
X70985203Y-78762431D03*
%TD*%
D17*
%TO.C,J10*%
X126738330Y-70842464D03*
D18*
X126738330Y-68342464D03*
X126738330Y-65842464D03*
%TD*%
D22*
%TO.C,D5*%
X60289913Y-97296350D03*
X60289913Y-95721350D03*
%TD*%
D14*
%TO.C,C5*%
X72890135Y-80490536D03*
X72890135Y-78765536D03*
%TD*%
D13*
%TO.C,S1*%
X62400000Y-69712500D03*
X62400000Y-76312500D03*
X59400000Y-69712500D03*
X59400000Y-76312500D03*
%TD*%
D10*
%TO.C,R8*%
X64493423Y-81541970D03*
X64493423Y-79716970D03*
%TD*%
D23*
%TO.C,C1*%
X63330923Y-92569729D03*
X65055923Y-92569729D03*
%TD*%
D24*
%TO.C,J1*%
X63074425Y-102864589D03*
X68854425Y-102864589D03*
D25*
X62714425Y-101419589D03*
X63514425Y-101419589D03*
D26*
X64714425Y-101419589D03*
X65714425Y-101419589D03*
X66214425Y-101419589D03*
X67214425Y-101419589D03*
D25*
X68414425Y-101419589D03*
X69214425Y-101419589D03*
X69214425Y-101419589D03*
X68414425Y-101419589D03*
D26*
X67714425Y-101419589D03*
X66714425Y-101419589D03*
X65214425Y-101419589D03*
X64214425Y-101419589D03*
D25*
X63514425Y-101419589D03*
X62714425Y-101419589D03*
D27*
X61644425Y-102334589D03*
D28*
X61644425Y-106514589D03*
D27*
X70284425Y-102334589D03*
D28*
X70284425Y-106514589D03*
%TD*%
D29*
%TO.C,J13*%
X100867550Y-100904837D03*
X112297550Y-100904837D03*
D30*
X102137550Y-94554837D03*
D21*
X103407550Y-92014837D03*
X104677550Y-94554837D03*
X105947550Y-92014837D03*
X107217550Y-94554837D03*
X108487550Y-92014837D03*
X109757550Y-94554837D03*
X111027550Y-92014837D03*
D31*
X98837550Y-97854837D03*
X114327550Y-97854837D03*
%TD*%
D32*
%TO.C,J2*%
X105578338Y-83289838D03*
D12*
X108078338Y-83289838D03*
X110578338Y-83289838D03*
X113078338Y-83289838D03*
%TD*%
D33*
%TO.C,R9*%
X64566746Y-74454108D03*
X64566746Y-76279108D03*
%TD*%
D19*
%TO.C,H3*%
X119500770Y-102991232D03*
D20*
X119500770Y-102991232D03*
%TD*%
D17*
%TO.C,J9*%
X126746547Y-81981121D03*
D18*
X126746547Y-79481121D03*
X126746547Y-76981121D03*
%TD*%
D14*
%TO.C,C3*%
X68591634Y-80502909D03*
X68591634Y-78777909D03*
%TD*%
D34*
%TO.C,R2*%
X64749746Y-97488783D03*
X64749746Y-95488783D03*
%TD*%
D35*
%TO.C,U1*%
X71086767Y-82299165D03*
X71086767Y-82799165D03*
X71086767Y-83299165D03*
X72511767Y-83299165D03*
X72511767Y-82799165D03*
X72511767Y-82299165D03*
%TD*%
D29*
%TO.C,J14*%
X78812138Y-100903198D03*
X90242138Y-100903198D03*
D30*
X80082138Y-94553198D03*
D21*
X81352138Y-92013198D03*
X82622138Y-94553198D03*
X83892138Y-92013198D03*
X85162138Y-94553198D03*
X86432138Y-92013198D03*
X87702138Y-94553198D03*
X88972138Y-92013198D03*
D31*
X76782138Y-97853198D03*
X92272138Y-97853198D03*
%TD*%
D36*
%TO.C,J12*%
X54086454Y-63259590D03*
D37*
X54086454Y-65799590D03*
X54086454Y-68339590D03*
X54086454Y-70879590D03*
D36*
X54086454Y-73419590D03*
D37*
X54086454Y-75959590D03*
X54086454Y-78499590D03*
X54086454Y-81039590D03*
X54086454Y-83579590D03*
X54086454Y-86119590D03*
X54086454Y-88659590D03*
X54086454Y-91199590D03*
X54086454Y-93739590D03*
D36*
X54086454Y-96279590D03*
%TD*%
D34*
%TO.C,R1*%
X67697248Y-97495194D03*
X67697248Y-95495194D03*
%TD*%
D32*
%TO.C,J4*%
X105550000Y-65800000D03*
D12*
X108050000Y-65800000D03*
X110550000Y-65800000D03*
X113050000Y-65800000D03*
X115550000Y-65800000D03*
X118050000Y-65800000D03*
%TD*%
D14*
%TO.C,C4*%
X66791634Y-80502909D03*
X66791634Y-78777909D03*
%TD*%
D11*
%TO.C,J6*%
X118072004Y-75596282D03*
D12*
X115572004Y-75596282D03*
X113072004Y-75596282D03*
X110572004Y-75596282D03*
X108072004Y-75596282D03*
X105572004Y-75596282D03*
%TD*%
D19*
%TO.C,H2*%
X54988635Y-54993799D03*
D20*
X54988635Y-54993799D03*
%TD*%
D38*
%TO.C,J11*%
X125498550Y-54425455D03*
D39*
X125498550Y-59505455D03*
%TD*%
D40*
%TO.C,L1*%
X78699049Y-86468132D03*
X78699049Y-80468132D03*
%TD*%
D36*
%TO.C,J3*%
X99280373Y-64401618D03*
D37*
X99280373Y-66941618D03*
X99280373Y-69481618D03*
X99280373Y-72021618D03*
X99280373Y-74561618D03*
X99280373Y-77101618D03*
%TD*%
D41*
%TO.C,C10*%
X64588545Y-69726520D03*
X64588545Y-71451520D03*
%TD*%
D34*
%TO.C,FB1*%
X60697023Y-92568007D03*
X60697023Y-90568007D03*
%TD*%
D17*
%TO.C,J8*%
X126732392Y-93091320D03*
D18*
X126732392Y-90591320D03*
X126732392Y-88091320D03*
%TD*%
D42*
%TO.C,JP1*%
X116035408Y-60981673D03*
X118035408Y-60981673D03*
%TD*%
D43*
%TO.C,U2*%
X78013107Y-59528879D03*
X78013107Y-60798879D03*
X78013107Y-62068879D03*
X78013107Y-63338879D03*
X78013107Y-64608879D03*
X78013107Y-65878879D03*
X78013107Y-67148879D03*
X78013107Y-68418879D03*
X78013107Y-69688879D03*
X78013107Y-70958879D03*
X78013107Y-72228879D03*
X78013107Y-73498879D03*
X78013107Y-74768879D03*
X78013107Y-76038879D03*
D44*
X79778107Y-77288879D03*
X81048107Y-77288879D03*
X82318107Y-77288879D03*
X83588107Y-77288879D03*
X84858107Y-77288879D03*
X86128107Y-77288879D03*
X87398107Y-77288879D03*
X88668107Y-77288879D03*
X89938107Y-77288879D03*
X91208107Y-77288879D03*
X92478107Y-77288879D03*
X93748107Y-77288879D03*
D43*
X95513107Y-76038879D03*
X95513107Y-74768879D03*
X95513107Y-73498879D03*
X95513107Y-72228879D03*
X95513107Y-70958879D03*
X95513107Y-69688879D03*
X95513107Y-68418879D03*
X95513107Y-67148879D03*
X95513107Y-65878879D03*
X95513107Y-64608879D03*
X95513107Y-63338879D03*
X95513107Y-62068879D03*
X95513107Y-60798879D03*
X95513107Y-59528879D03*
D45*
X83863107Y-66548879D03*
X83863107Y-67948879D03*
X84563107Y-65848879D03*
X84563107Y-67248879D03*
X84563107Y-68648879D03*
X85263107Y-66548879D03*
D46*
X85263107Y-67248879D03*
D45*
X85263107Y-67948879D03*
X85963107Y-65848879D03*
X85963107Y-67248879D03*
X85963107Y-68648879D03*
X86663107Y-66548879D03*
X86663107Y-67948879D03*
%TD*%
M02*
