%TF.GenerationSoftware,KiCad,Pcbnew,9.0.5*%
%TF.CreationDate,2026-01-05T22:54:41+05:30*%
%TF.ProjectId,Dietarium,44696574-6172-4697-956d-2e6b69636164,rev?*%
%TF.SameCoordinates,Original*%
%TF.FileFunction,Paste,Top*%
%TF.FilePolarity,Positive*%
%FSLAX46Y46*%
G04 Gerber Fmt 4.6, Leading zero omitted, Abs format (unit mm)*
G04 Created by KiCad (PCBNEW 9.0.5) date 2026-01-05 22:54:41*
%MOMM*%
%LPD*%
G01*
G04 APERTURE LIST*
G04 Aperture macros list*
%AMRoundRect*
0 Rectangle with rounded corners*
0 $1 Rounding radius*
0 $2 $3 $4 $5 $6 $7 $8 $9 X,Y pos of 4 corners*
0 Add a 4 corners polygon primitive as box body*
4,1,4,$2,$3,$4,$5,$6,$7,$8,$9,$2,$3,0*
0 Add four circle primitives for the rounded corners*
1,1,$1+$1,$2,$3*
1,1,$1+$1,$4,$5*
1,1,$1+$1,$6,$7*
1,1,$1+$1,$8,$9*
0 Add four rect primitives between the rounded corners*
20,1,$1+$1,$2,$3,$4,$5,0*
20,1,$1+$1,$4,$5,$6,$7,0*
20,1,$1+$1,$6,$7,$8,$9,0*
20,1,$1+$1,$8,$9,$2,$3,0*%
G04 Aperture macros list end*
%ADD10RoundRect,0.237500X0.237500X-0.250000X0.237500X0.250000X-0.237500X0.250000X-0.237500X-0.250000X0*%
%ADD11R,1.400000X1.400000*%
%ADD12RoundRect,0.237500X0.237500X-0.300000X0.237500X0.300000X-0.237500X0.300000X-0.237500X-0.300000X0*%
%ADD13RoundRect,0.112500X0.187500X0.112500X-0.187500X0.112500X-0.187500X-0.112500X0.187500X-0.112500X0*%
%ADD14RoundRect,0.150000X0.200000X-0.150000X0.200000X0.150000X-0.200000X0.150000X-0.200000X-0.150000X0*%
%ADD15RoundRect,0.218750X0.256250X-0.218750X0.256250X0.218750X-0.256250X0.218750X-0.256250X-0.218750X0*%
%ADD16RoundRect,0.237500X-0.300000X-0.237500X0.300000X-0.237500X0.300000X0.237500X-0.300000X0.237500X0*%
%ADD17R,0.600000X1.450000*%
%ADD18R,0.300000X1.450000*%
%ADD19RoundRect,0.237500X-0.237500X0.250000X-0.237500X-0.250000X0.237500X-0.250000X0.237500X0.250000X0*%
%ADD20RoundRect,0.250000X0.450000X-0.350000X0.450000X0.350000X-0.450000X0.350000X-0.450000X-0.350000X0*%
%ADD21RoundRect,0.087500X-0.250000X-0.087500X0.250000X-0.087500X0.250000X0.087500X-0.250000X0.087500X0*%
%ADD22RoundRect,0.249999X3.500001X-0.850001X3.500001X0.850001X-3.500001X0.850001X-3.500001X-0.850001X0*%
%ADD23RoundRect,0.237500X-0.237500X0.300000X-0.237500X-0.300000X0.237500X-0.300000X0.237500X0.300000X0*%
%ADD24R,0.900000X0.900000*%
%ADD25R,1.500000X0.900000*%
%ADD26R,0.900000X1.500000*%
G04 APERTURE END LIST*
D10*
%TO.C,R7*%
X58496419Y-97397702D03*
X58496419Y-95572702D03*
%TD*%
D11*
%TO.C,S2*%
X62389930Y-79672390D03*
X62389930Y-86272390D03*
X59389930Y-79672390D03*
X59389930Y-86272390D03*
%TD*%
D12*
%TO.C,C9*%
X64499450Y-86299999D03*
X64499450Y-84574999D03*
%TD*%
D13*
%TO.C,D1*%
X67661201Y-90552045D03*
X65561201Y-90552045D03*
%TD*%
D14*
%TO.C,D2*%
X58473739Y-91173602D03*
X58473739Y-92573602D03*
%TD*%
D12*
%TO.C,C2*%
X63313430Y-90563180D03*
X63313430Y-88838180D03*
%TD*%
%TO.C,C6*%
X70985203Y-80487431D03*
X70985203Y-78762431D03*
%TD*%
D15*
%TO.C,D5*%
X60289913Y-97296350D03*
X60289913Y-95721350D03*
%TD*%
D12*
%TO.C,C5*%
X72890135Y-80490536D03*
X72890135Y-78765536D03*
%TD*%
D11*
%TO.C,S1*%
X62400000Y-69712500D03*
X62400000Y-76312500D03*
X59400000Y-69712500D03*
X59400000Y-76312500D03*
%TD*%
D10*
%TO.C,R8*%
X64493423Y-81541970D03*
X64493423Y-79716970D03*
%TD*%
D16*
%TO.C,C1*%
X63330923Y-92569729D03*
X65055923Y-92569729D03*
%TD*%
D17*
%TO.C,J1*%
X62714425Y-101419589D03*
X63514425Y-101419589D03*
D18*
X64714425Y-101419589D03*
X65714425Y-101419589D03*
X66214425Y-101419589D03*
X67214425Y-101419589D03*
D17*
X68414425Y-101419589D03*
X69214425Y-101419589D03*
X69214425Y-101419589D03*
X68414425Y-101419589D03*
D18*
X67714425Y-101419589D03*
X66714425Y-101419589D03*
X65214425Y-101419589D03*
X64214425Y-101419589D03*
D17*
X63514425Y-101419589D03*
X62714425Y-101419589D03*
%TD*%
D19*
%TO.C,R9*%
X64566746Y-74454108D03*
X64566746Y-76279108D03*
%TD*%
D12*
%TO.C,C3*%
X68591634Y-80502909D03*
X68591634Y-78777909D03*
%TD*%
D20*
%TO.C,R2*%
X64749746Y-97488783D03*
X64749746Y-95488783D03*
%TD*%
D21*
%TO.C,U1*%
X71086767Y-82299165D03*
X71086767Y-82799165D03*
X71086767Y-83299165D03*
X72511767Y-83299165D03*
X72511767Y-82799165D03*
X72511767Y-82299165D03*
%TD*%
D20*
%TO.C,R1*%
X67697248Y-97495194D03*
X67697248Y-95495194D03*
%TD*%
D12*
%TO.C,C4*%
X66791634Y-80502909D03*
X66791634Y-78777909D03*
%TD*%
D22*
%TO.C,L1*%
X78699049Y-86468132D03*
X78699049Y-80468132D03*
%TD*%
D23*
%TO.C,C10*%
X64588545Y-69726520D03*
X64588545Y-71451520D03*
%TD*%
D20*
%TO.C,FB1*%
X60697023Y-92568007D03*
X60697023Y-90568007D03*
%TD*%
D24*
%TO.C,U2*%
X83863107Y-65848879D03*
X83863107Y-67248879D03*
X83863107Y-68648879D03*
X85263107Y-65848879D03*
X85263107Y-67248879D03*
X85263107Y-68648879D03*
X86663107Y-65848879D03*
X86663107Y-67248879D03*
X86663107Y-68648879D03*
D25*
X78013107Y-59528879D03*
X78013107Y-60798879D03*
X78013107Y-62068879D03*
X78013107Y-63338879D03*
X78013107Y-64608879D03*
X78013107Y-65878879D03*
X78013107Y-67148879D03*
X78013107Y-68418879D03*
X78013107Y-69688879D03*
X78013107Y-70958879D03*
X78013107Y-72228879D03*
X78013107Y-73498879D03*
X78013107Y-74768879D03*
X78013107Y-76038879D03*
D26*
X79778107Y-77288879D03*
X81048107Y-77288879D03*
X82318107Y-77288879D03*
X83588107Y-77288879D03*
X84858107Y-77288879D03*
X86128107Y-77288879D03*
X87398107Y-77288879D03*
X88668107Y-77288879D03*
X89938107Y-77288879D03*
X91208107Y-77288879D03*
X92478107Y-77288879D03*
X93748107Y-77288879D03*
D25*
X95513107Y-76038879D03*
X95513107Y-74768879D03*
X95513107Y-73498879D03*
X95513107Y-72228879D03*
X95513107Y-70958879D03*
X95513107Y-69688879D03*
X95513107Y-68418879D03*
X95513107Y-67148879D03*
X95513107Y-65878879D03*
X95513107Y-64608879D03*
X95513107Y-63338879D03*
X95513107Y-62068879D03*
X95513107Y-60798879D03*
X95513107Y-59528879D03*
%TD*%
M02*
